<svg xmlns="http://www.w3.org/2000/svg" width="16" height="16" fill="none" viewBox="0 0 16 16">
  <path d="M12.021 5.4 9.435 7.988l2.586 2.586a1 1 0 0 1-1.415 1.415L8.021 9.402 5.433 11.99a.998.998 0 1 1-1.412-1.413l2.586-2.588-2.594-2.593A1 1 0 0 1 5.428 3.98L8.02 6.574l2.589-2.586A1 1 0 0 1 12.02 5.4h.001Z"/>
  <path fill-rule="evenodd" d="M13 2H3a1 1 0 0 0-1 1v10a1 1 0 0 0 1 1h10a1 1 0 0 0 1-1V3a1 1 0 0 0-1-1ZM3 0a3 3 0 0 0-3 3v10a3 3 0 0 0 3 3h10a3 3 0 0 0 3-3V3a3 3 0 0 0-3-3H3Z" clip-rule="evenodd"/>
</svg>
