<svg xmlns="http://www.w3.org/2000/svg" width="16" height="16" fill="none" viewBox="0 0 16 16">
  <path fill-rule="evenodd" d="M.879 1.879A3 3 0 0 1 3 1h3.715a3 3 0 0 1 2.041.802l.849.788a1 1 0 0 0 .68.267H13a3 3 0 0 1 3 3V13a3 3 0 0 1-3 3H3a3 3 0 0 1-3-3V4a3 3 0 0 1 .879-2.121Zm1.414 1.414A1 1 0 0 0 2 4v2h12v-.143a1 1 0 0 0-1-1h-2.715a3 3 0 0 1-2.041-.801l-.849-.789A1 1 0 0 0 6.715 3H3a1 1 0 0 0-.707.293Zm0 10.414A1 1 0 0 1 2 13V8h12v5a1 1 0 0 1-1 1H3a1 1 0 0 1-.707-.293Z" clip-rule="evenodd"/>
</svg>
