<svg xmlns="http://www.w3.org/2000/svg" width="16" height="16" fill="none" viewBox="0 0 16 16">
  <path fill-rule="evenodd" d="M8 0C3.582 0 0 3.672 0 8.202c0 3.624 2.292 6.699 5.47 7.784.4.075.547-.178.547-.395 0-.195-.007-.841-.01-1.527-2.226.496-2.696-.968-2.696-.968-.364-.948-.888-1.2-.888-1.2-.726-.51.055-.498.055-.498.803.058 1.226.845 1.226.845.713 1.254 1.871.891 2.328.682.072-.53.28-.892.508-1.097-1.777-.207-3.645-.91-3.645-4.054 0-.895.313-1.627.825-2.201-.083-.207-.357-1.041.077-2.171 0 0 .672-.22 2.2.84A7.495 7.495 0 0 1 8 3.967c.68.004 1.364.095 2.004.277C11.53 3.18 12.2 3.402 12.2 3.402c.436 1.13.162 1.964.08 2.17.512.575.822 1.307.822 2.202 0 3.15-1.87 3.844-3.652 4.048.287.254.543.753.543 1.518 0 1.098-.01 1.981-.01 2.251 0 .218.144.475.55.394C13.71 14.899 16 11.825 16 8.203 16 3.673 12.418 0 8 0Z" clip-rule="evenodd"/>
  <path d="M3.03 11.777c-.017.041-.08.053-.137.025-.058-.026-.091-.082-.072-.123.017-.041.08-.053.138-.025.058.026.09.082.07.123Zm.324.371c-.038.036-.113.019-.163-.038-.053-.057-.062-.134-.024-.17.04-.037.112-.02.164.038.053.057.063.133.023.17Zm.316.472c-.05.035-.13.002-.18-.07-.049-.074-.049-.161.002-.196.05-.035.129-.003.179.069.048.074.048.161-.002.197Zm.431.456c-.044.05-.137.037-.205-.031-.07-.066-.09-.16-.045-.21.044-.05.138-.035.207.032.07.066.09.16.043.21Zm.597.264c-.02.065-.11.095-.2.067-.09-.028-.15-.103-.132-.168.02-.065.11-.095.201-.066.09.028.15.103.13.168Zm.654.05c.002.068-.074.124-.17.125-.095.002-.173-.052-.174-.119 0-.068.076-.123.171-.126.095-.002.173.053.173.12Zm.61-.106c.011.066-.055.134-.15.152-.092.018-.178-.023-.19-.089-.012-.068.056-.135.148-.153.094-.017.18.022.192.09Z"/>
</svg>
