<svg xmlns="http://www.w3.org/2000/svg" width="16" height="16" fill="none" viewBox="0 0 16 16">
  <path fill="#000" fill-rule="evenodd" d="M13 2H3a1 1 0 0 0-1 1v10a1 1 0 0 0 1 1h10a1 1 0 0 0 1-1V3a1 1 0 0 0-1-1ZM3 0a3 3 0 0 0-3 3v10a3 3 0 0 0 3 3h10a3 3 0 0 0 3-3V3a3 3 0 0 0-3-3H3Z" clip-rule="evenodd"/>
  <path fill="#000" d="m6.347 10.656-.711 1.604c-.097.223-.232.4-.404.53-.173.14-.426.21-.76.21s-.604-.08-.808-.238c-.194-.158-.216-.428-.065-.809l3.33-8.381a.792.792 0 0 1 .34-.39C7.452 3.06 7.694 3 7.996 3s.539.06.711.181c.183.112.302.242.356.39l3.362 8.41c.13.353.091.61-.113.767-.194.168-.458.251-.792.251-.334.01-.582-.056-.744-.195a1.308 1.308 0 0 1-.372-.474l-.776-1.674H6.347ZM9.24 9.08 7.996 5.622 6.75 9.08h2.49Z"/>
</svg>
