<svg xmlns="http://www.w3.org/2000/svg" width="16" height="16" fill="none" viewBox="0 0 16 16">
  <path d="M12.294 3.028a.532.532 0 0 1 .693.386.533.533 0 0 1-.015.293l-.684 2.075a.548.548 0 0 1-.904.226l-.337-.337L9.97 6.748a.508.508 0 0 1-.718-.718l1.077-1.077-.337-.337a.548.548 0 0 1 .226-.904l2.076-.684Zm-8.588 9.944a.532.532 0 0 1-.693-.386.532.532 0 0 1 .015-.293l.684-2.075a.548.548 0 0 1 .904-.226l.337.337L6.03 9.252a.508.508 0 0 1 .718.718l-1.077 1.077.337.337a.548.548 0 0 1-.226.904l-2.076.684Zm9.137-.129a.53.53 0 0 0 .129-.55l-.684-2.075a.548.548 0 0 0-.904-.226l-.337.337L9.97 9.252a.508.508 0 0 0-.718.718l1.077 1.077-.337.337a.548.548 0 0 0 .226.904l2.076.684c.21.07.415.005.55-.129h-.001ZM3.028 3.706a.532.532 0 0 1 .386-.693.532.532 0 0 1 .293.015l2.075.684c.388.128.51.619.226.904l-.337.337L6.748 6.03a.508.508 0 0 1-.718.718L4.953 5.671l-.337.337a.548.548 0 0 1-.904-.226l-.684-2.076Z"/>
  <path fill-rule="evenodd" d="M13 2H3a1 1 0 0 0-1 1v10a1 1 0 0 0 1 1h10a1 1 0 0 0 1-1V3a1 1 0 0 0-1-1ZM3 0a3 3 0 0 0-3 3v10a3 3 0 0 0 3 3h10a3 3 0 0 0 3-3V3a3 3 0 0 0-3-3H3Z" clip-rule="evenodd"/>
</svg>
