<svg xmlns="http://www.w3.org/2000/svg" width="32" height="32" fill="none" viewBox="0 0 32 32">
  <path fill="#FAEF93" d="M1 5.5a2 2 0 0 1 2-2h26a2 2 0 0 1 2 2V30a2 2 0 0 1-2 2H3a2 2 0 0 1-2-2V5.5Z"/>
  <path fill="#F5B982" d="M4 3.5a2 2 0 0 0-2 2V30a2 2 0 0 0 2 2v-1a1 1 0 0 1-1-1V5.5a1 1 0 0 1 1-1v-1Z"/>
  <path fill="#DBD176" d="M28 32a2 2 0 0 0 2-2V5.5a2 2 0 0 0-2-2v1a1 1 0 0 1 1 1V30a1 1 0 0 1-1 1v1Z"/>
  <path fill="#F2F9FF" d="M27 6H5v23h18v-4h4V6Z"/>
  <path fill="#D6E1EF" d="M5 29V6h1v23H5Z" fill-rule="evenodd" clip-rule="evenodd"/>
  <path fill="#CFDCED" d="M24 26h2.5L24 28.5V26Z"/>
  <path fill="#B0C5E0" d="M18 2.5a2 2 0 1 0-4 0H9.5a1 1 0 0 0-1 1V6a1 1 0 0 0 1 1h13a1 1 0 0 0 1-1V3.5a1 1 0 0 0-1-1H18Z"/>
  <path fill="#7094C6" d="M10.5 3V2A1.5 1.5 0 0 0 9 3.5V6a1.5 1.5 0 0 0 1.5 1.5v-1A.5.5 0 0 1 10 6V3.5a.5.5 0 0 1 .5-.5Z"/>
  <path fill="#989898" d="M7 12h18v-1H7v1Zm0 3h18v-1H7v1Zm18 3H7v-1h18v1ZM7 21h18v-1H7v1Zm3 6H7v-1h3v1Zm-3-3h18v-1H7v1Z"/>
  <path fill="#000000" d="M13.5 2a2.5 2.5 0 0 1 4.9 0h4.1A1.5 1.5 0 0 1 24 3.5h5a2 2 0 0 1 2 2V30a2 2 0 0 1-2 2H3a2 2 0 0 1-2-2V5.5a2 2 0 0 1 2-2h5A1.5 1.5 0 0 1 9.5 2h4Zm2.45-1a1.5 1.5 0 0 0-1.5 1.5V3H9.5a.5.5 0 0 0-.5.5V6a.5.5 0 0 0 .5.5h13A.5.5 0 0 0 23 6V3.5a.5.5 0 0 0-.5-.5h-5.05v-.5a1.5 1.5 0 0 0-1.5-1.5ZM8 4.5H3a1 1 0 0 0-1 1V30a1 1 0 0 0 1 1h26a1 1 0 0 0 1-1V5.5a1 1 0 0 0-1-1h-5v1h4V26l-4 4H4V5.5h4v-1Zm14.5 3A1.5 1.5 0 0 0 24 6v.5h3V25h-4v4H5V6.5h3V6a1.5 1.5 0 0 0 1.5 1.5h13ZM26.586 26 24 28.586V26h2.586Z" fill-rule="evenodd" clip-rule="evenodd"/>
  <path fill="#D9D9D9" d="M16.908 23.035a1 1 0 0 1-1.816 0l-1.9-4.116a1 1 0 0 1 .907-1.419h3.802a1 1 0 0 1 .907 1.42l-1.9 4.114Z"/>
  <path fill="#242424" d="M16 10a1 1 0 0 0-1 1v6.5h-.9a1 1 0 0 0-.909 1.42l1.901 4.114a1 1 0 0 0 1.816 0l1.9-4.115a1 1 0 0 0-.907-1.419H17V11a1 1 0 0 0-1-1Zm-5 15a1 1 0 0 1 1-1h8a1 1 0 1 1 0 2h-8a1 1 0 0 1-1-1Z"/>
</svg>
