<svg xmlns="http://www.w3.org/2000/svg" width="16" height="16" viewBox="0 0 16 16">
  <path fill-rule="evenodd" d="M13 2H3a1 1 0 0 0-1 1v10a1 1 0 0 0 1 1h10a1 1 0 0 0 1-1V3a1 1 0 0 0-1-1ZM3 0a3 3 0 0 0-3 3v10a3 3 0 0 0 3 3h10a3 3 0 0 0 3-3V3a3 3 0 0 0-3-3H3Z" clip-rule="evenodd"/>
  <path d="M3.293 11.392a1 1 0 1 0 1.414 1.414l8.099-8.099a1 1 0 1 0-1.414-1.414l-8.1 8.099Zm.112-.82 1.07-1.07C3.747 8.979 3.5 8.426 3.5 8c0-.447.272-1.035 1.09-1.58.807-.538 2.008-.92 3.41-.92.157 0 .312.005.464.014l1.331-1.332A8.798 8.798 0 0 0 8 4C4.686 4 2 5.79 2 8c0 .98.528 1.877 1.405 2.572ZM8 12a8.848 8.848 0 0 1-1.63-.15l1.355-1.355c.09.003.183.005.275.005 1.402 0 2.604-.382 3.41-.92.818-.545 1.09-1.133 1.09-1.58 0-.403-.22-.92-.862-1.417l1.066-1.067C13.515 6.2 14 7.062 14 8c0 2.21-2.686 4-6 4Z"/>
  <path d="M8.234 9.986a2 2 0 0 0 1.752-1.752L8.234 9.986ZM7.977 6 6 7.977A2 2 0 0 1 7.977 6Z"/>
</svg>
