<svg xmlns="http://www.w3.org/2000/svg" width="16" height="16" fill="none" viewBox="0 0 16 16">
  <path d="M7.254 7.254a.534.534 0 0 0 .128-.552l-.686-2.083a.55.55 0 0 0-.907-.226l-.338.338-1.08-1.082a.51.51 0 1 0-.722.721l1.082 1.081-.338.338a.55.55 0 0 0 .226.907l2.083.686c.212.07.417.006.552-.128Zm2.044.128a.534.534 0 0 1-.68-.68l.686-2.083a.55.55 0 0 1 .907-.226l.338.338 1.08-1.082a.51.51 0 1 1 .722.721l-1.082 1.081.338.338a.55.55 0 0 1-.226.907l-2.083.686ZM6.702 8.618a.534.534 0 0 1 .68.68l-.686 2.083a.55.55 0 0 1-.907.226l-.338-.338-1.08 1.082a.51.51 0 0 1-.722-.721l1.082-1.081-.338-.338a.55.55 0 0 1 .226-.907l2.083-.686Zm1.916.68a.534.534 0 0 1 .68-.68l2.083.686a.55.55 0 0 1 .226.907l-.338.338 1.082 1.08a.51.51 0 0 1-.721.722l-1.081-1.082-.338.338a.55.55 0 0 1-.907-.226l-.686-2.083Z"/>
  <path fill-rule="evenodd" d="M13 2H3a1 1 0 0 0-1 1v10a1 1 0 0 0 1 1h10a1 1 0 0 0 1-1V3a1 1 0 0 0-1-1ZM3 0a3 3 0 0 0-3 3v10a3 3 0 0 0 3 3h10a3 3 0 0 0 3-3V3a3 3 0 0 0-3-3H3Z" clip-rule="evenodd"/>
</svg>
