<svg xmlns="http://www.w3.org/2000/svg" width="16" height="16" fill="none" viewBox="0 0 16 16">
  <path d="M5.538 7.51H6.99v3.65a1 1 0 1 0 2 0V7.51h1.452a.671.671 0 0 0 .47-1.14L8.668 4.125a.957.957 0 0 0-1.354 0L5.067 6.37a.67.67 0 0 0 .471 1.14Z"/>
  <path fill-rule="evenodd" d="M3 0a3 3 0 0 0-3 3v10a3 3 0 0 0 3 3h10a3 3 0 0 0 3-3V3a3 3 0 0 0-3-3H3Zm9.586 2H3a1 1 0 0 0-1 1v9.586l3.99-3.99v2.564c0 .084.005.167.016.249L3.414 14H13a1 1 0 0 0 1-1V3.414l-2.317 2.317a1.71 1.71 0 0 0-.056-.06l-1.356-1.357L12.586 2Z" clip-rule="evenodd"/>
</svg>
