<svg xmlns="http://www.w3.org/2000/svg" width="16" height="16" viewBox="0 0 16 16">
  <path fill-rule="evenodd" d="M13 2H3a1 1 0 0 0-1 1v10a1 1 0 0 0 1 1h10a1 1 0 0 0 1-1V3a1 1 0 0 0-1-1ZM3 0a3 3 0 0 0-3 3v10a3 3 0 0 0 3 3h10a3 3 0 0 0 3-3V3a3 3 0 0 0-3-3H3Z" clip-rule="evenodd"/>
  <path d="M8 10a2 2 0 1 0 0-4 2 2 0 0 0 0 4Z"/>
  <path fill-rule="evenodd" d="M14 8c0 2.21-2.686 4-6 4s-6-1.79-6-4 2.686-4 6-4 6 1.79 6 4Zm-1.5 0c0 .447-.272 1.035-1.09 1.58-.806.538-2.008.92-3.41.92-1.402 0-2.603-.382-3.41-.92C3.771 9.035 3.5 8.447 3.5 8c0-.447.272-1.035 1.09-1.58.807-.538 2.008-.92 3.41-.92 1.402 0 2.604.382 3.41.92.818.545 1.09 1.133 1.09 1.58Z" clip-rule="evenodd"/>
</svg>
