<svg xmlns="http://www.w3.org/2000/svg" viewBox="0 0 256 256">
  <defs>
    <linearGradient id="b" x1="128" x2="128" y1="25" y2="231" gradientUnits="userSpaceOnUse">
      <stop stop-color="#233540"/>
      <stop offset="1"/>
    </linearGradient>
    <filter id="a" width="218" height="218" x="21" y="21" color-interpolation-filters="sRGB" filterUnits="userSpaceOnUse">
      <feFlood flood-opacity="0" result="BackgroundImageFix"/>
      <feColorMatrix in="SourceAlpha" result="hardAlpha" values="0 0 0 0 0 0 0 0 0 0 0 0 0 0 0 0 0 0 127 0"/>
      <feOffset dx="2" dy="2"/>
      <feGaussianBlur stdDeviation="3"/>
      <feComposite in2="hardAlpha" operator="out"/>
      <feColorMatrix values="0 0 0 0 0 0 0 0 0 0 0 0 0 0 0 0 0 0 0.5 0"/>
      <feBlend in2="BackgroundImageFix" result="effect1_dropShadow_167_83"/>
      <feBlend in="SourceGraphic" in2="effect1_dropShadow_167_83" result="shape"/>
    </filter>
  </defs>
  <g filter="url(#a)">
    <rect width="206" height="206" x="25" y="25" fill="url(#b)" rx="45"/>
  </g>
  <path fill="#FE2752" d="M111.713 94.723a15.111 15.111 0 0 0 1.743-5.801c.371-4.171-.939-8.324-3.703-11.743-2.764-3.418-6.81-5.887-11.438-6.98-1.215-3.809-3.827-7.164-7.436-9.553-3.62-2.402-8.053-3.684-12.6-3.645-4.548.039-8.952 1.397-12.517 3.86-3.566 2.462-6.09 5.89-7.177 9.743-1.086 3.853-.672 7.912 1.176 11.537-2.595 1.433-4.603 3.547-5.736 6.038s-1.332 5.231-.57 7.828c.894 2.755 2.81 5.174 5.447 6.879 2.637 1.704 5.847 2.599 9.129 2.543h6.385c1.003 0 1.966-.348 2.675-.967.71-.619 1.109-1.459 1.109-2.335 0-.875-.4-1.715-1.109-2.334-.71-.62-1.672-.967-2.675-.967H68.03c-1.604.042-3.18-.373-4.488-1.183-1.309-.81-2.28-1.969-2.765-3.303a5.372 5.372 0 0 1 .415-4.034c.663-1.264 1.802-2.291 3.228-2.912 1.458-.686 2.546-1.849 3.024-3.233.479-1.384.31-2.878-.471-4.153-1.301-2.242-1.706-4.798-1.15-7.263.475-2.283 1.756-4.379 3.665-5.994 1.908-1.616 4.348-2.67 6.977-3.015a14.986 14.986 0 0 1 5.181.22 14.017 14.017 0 0 1 4.678 1.955 11.95 11.95 0 0 1 3.391 3.32 10.347 10.347 0 0 1 1.654 4.207c.111.718.49 1.384 1.077 1.896a4.015 4.015 0 0 0 2.175.936c3.303.38 6.314 1.848 8.414 4.105 2.1 2.256 3.129 5.13 2.875 8.027a9.148 9.148 0 0 1-1.052 3.522 2.922 2.922 0 0 0-.131 2.524c.342.823 1.045 1.494 1.954 1.866a4.294 4.294 0 0 0 2.893.114c.944-.299 1.713-.912 2.138-1.705Z"/>
  <path fill="#FE2752" d="M95.858 96.625h3.943c.484 0 .956.124 1.358.358.402.234.716.567.901.957.185.39.233.818.139 1.232a2.066 2.066 0 0 1-.67 1.091l-7.727 6.742a2.489 2.489 0 0 1-.792.463 2.738 2.738 0 0 1-.936.163c-.32 0-.639-.055-.935-.163a2.489 2.489 0 0 1-.793-.463l-7.727-6.742a2.062 2.062 0 0 1-.67-1.091 1.88 1.88 0 0 1 .14-1.232 2.22 2.22 0 0 1 .9-.957 2.703 2.703 0 0 1 1.358-.358h3.943v-9.904c0-.876.399-1.716 1.109-2.335s1.672-.967 2.675-.967c1.004 0 1.966.348 2.676.967.71.62 1.108 1.46 1.108 2.335v9.904Zm90.411 24.291c9.79 7.059 21.789 11.215 34.731 11.216V107.07a34.427 34.427 0 0 1-18.918-5.651c-7.825-5.121-13.471-13.317-15.232-22.868a35.452 35.452 0 0 1-.587-6.362h-24.97l-.018 100.462c-.424 11.252-9.647 20.281-20.952 20.281-3.516 0-6.826-.881-9.737-2.418-6.681-3.53-11.256-10.56-11.256-18.653 0-11.623 9.416-21.076 20.987-21.076 2.161 0 4.231.358 6.191.972v-25.591c-2.027-.274-4.085-.45-6.191-.45-25.345 0-45.963 20.7-45.963 46.145 0 15.609 7.77 29.425 19.62 37.779 7.462 5.261 16.546 8.36 26.337 8.36 25.339 0 45.958-20.694 45.958-46.139v-50.945Z"/>
  <path fill="#25F4EE" d="M108.722 90.971a15.286 15.286 0 0 0 1.744-5.84c.371-4.198-.939-8.378-3.704-11.819-2.765-3.44-6.81-5.926-11.44-7.027-1.215-3.833-3.828-7.21-7.438-9.615-3.62-2.417-8.054-3.708-12.602-3.67-4.548.04-8.952 1.407-12.518 3.886-3.566 2.479-6.091 5.93-7.178 9.807-1.087 3.879-.673 7.964 1.177 11.613-2.596 1.443-4.604 3.57-5.738 6.078a11.314 11.314 0 0 0-.57 7.879c.894 2.773 2.81 5.208 5.448 6.924 2.637 1.716 5.848 2.616 9.13 2.56h6.386c1.004 0 1.966-.35 2.676-.973.71-.623 1.109-1.469 1.109-2.35s-.4-1.727-1.109-2.35c-.71-.623-1.672-.973-2.676-.973h-6.386c-1.604.042-3.18-.376-4.488-1.19-1.309-.816-2.28-1.983-2.766-3.325a5.439 5.439 0 0 1 .416-4.061c.663-1.272 1.802-2.307 3.228-2.931 1.458-.691 2.546-1.861 3.025-3.255.478-1.393.309-2.896-.472-4.18-1.301-2.256-1.706-4.83-1.15-7.311.475-2.298 1.756-4.407 3.665-6.033 1.91-1.626 4.35-2.687 6.98-3.035a14.896 14.896 0 0 1 5.18.222 13.968 13.968 0 0 1 4.68 1.967 11.985 11.985 0 0 1 3.39 3.343c.867 1.3 1.43 2.74 1.655 4.234.111.723.49 1.393 1.077 1.909a4.007 4.007 0 0 0 2.176.942c3.303.381 6.315 1.86 8.415 4.131 2.1 2.272 3.129 5.163 2.875 8.08a9.252 9.252 0 0 1-1.052 3.545 2.955 2.955 0 0 0-.13 2.541c.341.829 1.044 1.504 1.953 1.878a4.27 4.27 0 0 0 2.894.115c.944-.3 1.713-.918 2.138-1.716Z"/>
  <path fill="#25F4EE" d="M92.865 92.885h3.944c.483 0 .956.125 1.358.361.402.236.715.57.9.963a1.9 1.9 0 0 1 .14 1.24 2.079 2.079 0 0 1-.67 1.099l-7.728 6.785a2.48 2.48 0 0 1-.793.467 2.74 2.74 0 0 1-.936.163c-.32 0-.639-.055-.935-.163a2.48 2.48 0 0 1-.793-.467l-7.728-6.785a2.08 2.08 0 0 1-.67-1.1 1.902 1.902 0 0 1 .14-1.24c.184-.391.498-.726.9-.962a2.689 2.689 0 0 1 1.358-.36h3.944v-9.97c0-.881.398-1.727 1.108-2.35.71-.623 1.673-.973 2.676-.973 1.004 0 1.967.35 2.677.973s1.108 1.469 1.108 2.35v9.97Zm87.398 21.394c9.792 7.105 21.792 11.288 34.737 11.289v-25.227c-6.973 0-13.473-2.098-18.921-5.688a35.194 35.194 0 0 1-15.235-23.019 36.006 36.006 0 0 1-.587-6.403h-24.973l-.019 101.122c-.423 11.326-9.648 20.414-20.954 20.414a20.69 20.69 0 0 1-9.739-2.434 21.252 21.252 0 0 1-11.258-18.775c0-11.699 9.418-21.215 20.991-21.215 2.161 0 4.231.361 6.192.978v-25.759c-2.028-.275-4.086-.452-6.192-.452-25.349 0-45.97 20.836-45.97 46.448 0 15.711 7.77 29.618 19.622 38.027 7.463 5.296 16.548 8.415 26.342 8.415 25.343 0 45.964-20.83 45.964-46.442v-51.279Z"/>
  <path fill="#fff" d="M110.449 85.898a15.126 15.126 0 0 1-1.744 5.805c-.426.793-1.195 1.406-2.139 1.705a4.311 4.311 0 0 1-2.041.131 2.95 2.95 0 0 1 .351-1.598 9.172 9.172 0 0 0 1.052-3.523c.254-2.9-.776-5.774-2.876-8.032a12.332 12.332 0 0 0-1.95-1.693 11.426 11.426 0 0 0-1.077-1.346c-2.1-2.258-5.112-3.727-8.416-4.106a4.33 4.33 0 0 1-.267-.04 10.381 10.381 0 0 0-1.614-3.964 11.877 11.877 0 0 0-3.071-3.105 11.97 11.97 0 0 0-3.348-3.256 14.019 14.019 0 0 0-4.68-1.956 14.99 14.99 0 0 0-5.182-.22c-2.63.345-5.07 1.4-6.98 3.016-1.91 1.616-3.191 3.713-3.666 5.997-.556 2.466-.151 5.024 1.15 7.267.781 1.276.95 2.77.472 4.155-.479 1.385-1.566 2.548-3.025 3.235-1.427.62-2.566 1.648-3.229 2.913a5.376 5.376 0 0 0-.415 4.036c.486 1.335 1.457 2.495 2.766 3.305.16.098.323.191.49.278.532 1.105 1.409 2.063 2.537 2.761 1.309.81 2.885 1.225 4.489 1.183h6.386c.255 0 .506.023.752.066.004.066.007.132.007.198 0 .876-.399 1.716-1.109 2.336-.71.619-1.672.967-2.676.967h-6.387c-3.283.056-6.494-.839-9.132-2.544a14.77 14.77 0 0 1-.72-.496 12.204 12.204 0 0 1-1.702-3.347 11.184 11.184 0 0 1 .57-7.831c1.134-2.493 3.143-4.608 5.739-6.042-1.85-3.627-2.264-7.688-1.177-11.542 1.087-3.855 3.612-7.285 7.179-9.749 3.567-2.464 7.971-3.822 12.52-3.861 4.55-.039 8.983 1.244 12.605 3.647.523.346 1.025.713 1.506 1.098a17.156 17.156 0 0 1 2.906 5.42c.685.161 1.358.353 2.015.574.403.796.742 1.619 1.012 2.465 3.206.757 6.132 2.175 8.547 4.11 2.674 3.389 3.937 7.477 3.572 11.583Z"/>
  <path fill="#fff" d="M95.872 96.644h3.13c-.12.222-.283.426-.484.601l-7.73 6.745a2.488 2.488 0 0 1-.792.463 2.74 2.74 0 0 1-.936.163 2.74 2.74 0 0 1-.936-.163 2.489 2.489 0 0 1-.793-.463l-5.333-4.654a1.88 1.88 0 0 1 .1-1.376c.185-.39.499-.723.9-.957a2.703 2.703 0 0 1 1.36-.359h3.944v-9.909c0-.876.398-1.716 1.108-2.335.71-.62 1.673-.968 2.677-.968.254 0 .506.022.751.066.005.066.007.132.007.198v9.91h3.027v3.038ZM215 126.09c-12.947-.001-24.949-4.159-34.742-11.221v50.97c0 25.457-20.625 46.161-45.972 46.161-9.795 0-18.882-3.1-26.346-8.364a46.572 46.572 0 0 1-2.977-2.285c-6.612-7.995-10.596-18.255-10.596-29.434 0-25.457 20.625-46.167 45.978-46.167h.14v19.974c-1.962-.614-4.032-.972-6.193-.972-11.575 0-20.995 9.458-20.995 21.087 0 7.359 3.782 13.84 9.489 17.612a21.227 21.227 0 0 0 7.825 7.128 20.792 20.792 0 0 0 9.74 2.419c11.309 0 20.535-9.033 20.958-20.291l.019-100.51h19.46l.051.285c1.574 8.541 6.254 16 12.819 21.146a35.07 35.07 0 0 0 8.472 7.813 34.507 34.507 0 0 0 12.87 5.121v19.528Z"/>
</svg>
