<svg xmlns="http://www.w3.org/2000/svg" width="400" height="380" fill="none" viewBox="0 0 400 380">
  <path fill="#fff" d="M390 0H10C4.477 0 0 4.477 0 10v360c0 5.523 4.477 10 10 10h380c5.523 0 10-4.477 10-10V10c0-5.523-4.477-10-10-10Z"/>
  <path fill="#000" fill-rule="evenodd" d="M64 30a1 1 0 0 1-1 1H53a1 1 0 0 1-1-1V20a1 1 0 0 1 1-1h10a1 1 0 0 1 1 1v10Zm2-10v10a3 3 0 0 1-3 3H53a3 3 0 0 1-3-3V20a3 3 0 0 1 3-3h10a3 3 0 0 1 3 3Z" clip-rule="evenodd"/>
  <path fill="#000" fill-rule="evenodd" d="M58 23a2 2 0 1 1 0 4 2 2 0 0 1 0-4Zm-6 2c0 2.21 2.686 4 6 4s6-1.79 6-4-2.686-4-6-4-6 1.79-6 4Zm6-2.5c-1.402 0-2.603.382-3.41.92-.818.545-1.09 1.133-1.09 1.58 0 .447.272 1.035 1.09 1.58.806.538 2.008.92 3.41.92 1.402 0 2.603-.382 3.41-.92.818-.545 1.09-1.133 1.09-1.58 0-.447-.272-1.035-1.09-1.58-.806-.538-2.008-.92-3.41-.92ZM64 60a1 1 0 0 1-1 1H53a1 1 0 0 1-1-1V50a1 1 0 0 1 1-1h10a1 1 0 0 1 1 1v10Zm2-10v10a3 3 0 0 1-3 3H53a3 3 0 0 1-3-3V50a3 3 0 0 1 3-3h10a3 3 0 0 1 3 3Z" clip-rule="evenodd"/>
  <path fill="#000" d="M53.293 58.392a1 1 0 0 0 1.414 1.414l8.099-8.099a1 1 0 1 0-1.414-1.414l-8.1 8.099ZM57.977 53 56 54.977A2 2 0 0 1 57.977 53ZM52 55c0 .98.528 1.877 1.405 2.572l1.07-1.07c-.729-.523-.975-1.076-.975-1.502 0-.447.272-1.035 1.09-1.58.806-.538 2.008-.92 3.41-.92.157 0 .312.005.464.014l1.331-1.332A8.795 8.795 0 0 0 58 51c-3.314 0-6 1.79-6 4Zm6.234 1.986a2.001 2.001 0 0 0 1.752-1.752l-1.752 1.752Zm-1.864 1.865A8.87 8.87 0 0 0 58 59c3.314 0 6-1.79 6-4 0-.938-.485-1.801-1.296-2.483l-1.066 1.066c.641.497.862 1.014.862 1.417 0 .447-.272 1.035-1.09 1.58-.806.538-2.008.92-3.41.92-.093 0-.184-.002-.275-.005l-1.355 1.356Zm-1.201 25.545a.67.67 0 0 1-.102-1.026l2.247-2.245a.957.957 0 0 1 1.354 0l2.244 2.245a.671.671 0 0 1-.47 1.14H58.99v3.65a1 1 0 1 1-2 0v-3.65h-1.452v.001a.671.671 0 0 1-.37-.115Z"/>
  <path fill="#000" fill-rule="evenodd" d="M64 90a1 1 0 0 1-1 1H53a1 1 0 0 1-1-1V80a1 1 0 0 1 1-1h10a1 1 0 0 1 1 1v10Zm2-10v10a3 3 0 0 1-3 3H53a3 3 0 0 1-3-3V80a3 3 0 0 1 3-3h10a3 3 0 0 1 3 3Zm-11.076 34.097a.67.67 0 0 1 .143-.727l2.247-2.245a.955.955 0 0 1 1.354 0l2.244 2.245a.67.67 0 0 1-.47 1.14H58.99v3.65a1 1 0 1 1-2 0v-3.65h-1.452a.666.666 0 0 1-.614-.413ZM66 110v10a3 3 0 0 1-3 3H53a3 3 0 0 1-3-3v-10a3 3 0 0 1 3-3h10a3 3 0 0 1 3 3Zm-4.373 2.671.056.06L64 110.414V120a1 1 0 0 1-1 1h-9.586l2.591-2.591a1.996 1.996 0 0 1-.015-.249v-2.564l-3.99 3.99V110a1 1 0 0 1 1-1h9.586l-2.315 2.314 1.356 1.357Z" clip-rule="evenodd"/>
  <path fill="#000" d="M60.218 140.712a.544.544 0 0 0-.365.389.551.551 0 0 0 .139.515l.337.337-1.077 1.077a.508.508 0 0 0 .718.718l1.077-1.077.337.337a.545.545 0 0 0 .757.007.548.548 0 0 0 .147-.233l.684-2.075a.531.531 0 0 0-.128-.55.534.534 0 0 0-.55-.129l-2.076.684Zm-4.436 8.576a.544.544 0 0 0 .362-.665.546.546 0 0 0-.136-.239l-.337-.337 1.077-1.077a.508.508 0 0 0-.718-.718l-1.077 1.077-.337-.337a.545.545 0 0 0-.515-.139.55.55 0 0 0-.389.365l-.684 2.075a.531.531 0 0 0 .128.55.534.534 0 0 0 .55.129l2.076-.684Zm6.512.684-2.076-.684a.544.544 0 0 1-.365-.389.551.551 0 0 1 .139-.515l.337-.337-1.077-1.077a.508.508 0 0 1 .718-.718l1.077 1.077.337-.337a.545.545 0 0 1 .757-.007.548.548 0 0 1 .147.233l.684 2.075a.533.533 0 0 1-.129.55h.001a.533.533 0 0 1-.55.129Zm-8.582-7.19a.548.548 0 0 0 .904.226l.337-.337 1.077 1.077a.51.51 0 0 0 .718-.718l-1.077-1.077.337-.337a.549.549 0 0 0-.226-.904l-2.075-.684a.533.533 0 0 0-.694.384.533.533 0 0 0 .015.294l.684 2.076Z"/>
  <path fill="#000" fill-rule="evenodd" d="M64 150a1 1 0 0 1-1 1H53a1 1 0 0 1-1-1v-10a1 1 0 0 1 1-1h10a1 1 0 0 1 1 1v10Zm2-10v10a3 3 0 0 1-3 3H53a3 3 0 0 1-3-3v-10a3 3 0 0 1 3-3h10a3 3 0 0 1 3 3Z" clip-rule="evenodd"/>
  <path fill="#000" d="M54.619 173.696a.558.558 0 0 1-.365-.391.548.548 0 0 1 .139-.516l.338-.338-1.082-1.081a.512.512 0 0 1 .557-.832.523.523 0 0 1 .165.111l1.08 1.082.338-.338a.55.55 0 0 1 .907.226l.686 2.083a.532.532 0 0 1-.128.552.535.535 0 0 1-.552.128l-2.083-.686Zm6.995-.148a.547.547 0 0 0-.007-.759l-.338-.338 1.082-1.081a.508.508 0 0 0 .11-.556.519.519 0 0 0-.276-.276.504.504 0 0 0-.556.111l-1.08 1.082-.338-.338a.55.55 0 0 0-.907.226l-.686 2.083a.533.533 0 0 0 .68.68l2.083-.686c.09-.029.17-.08.233-.148Zm-7.228 2.904a.548.548 0 0 0 .007.759l.338.338-1.082 1.081a.508.508 0 0 0-.11.556.519.519 0 0 0 .276.276.504.504 0 0 0 .556-.111l1.08-1.082.338.338a.55.55 0 0 0 .907-.226l.686-2.083a.535.535 0 0 0-.68-.68l-2.083.686a.558.558 0 0 0-.233.148Zm5.066 2.162a.543.543 0 0 0 .519.13.559.559 0 0 0 .24-.137l.338-.338 1.081 1.082a.509.509 0 0 0 .87-.361.51.51 0 0 0-.149-.361l-1.082-1.08.338-.338a.552.552 0 0 0-.226-.907l-2.083-.686a.528.528 0 0 0-.695.386.533.533 0 0 0 .015.294l.686 2.083a.55.55 0 0 0 .148.233Z"/>
  <path fill="#000" fill-rule="evenodd" d="M64 180a1 1 0 0 1-1 1H53a1 1 0 0 1-1-1v-10a1 1 0 0 1 1-1h10a1 1 0 0 1 1 1v10Zm2-10v10a3 3 0 0 1-3 3H53a3 3 0 0 1-3-3v-10a3 3 0 0 1 3-3h10a3 3 0 0 1 3 3Zm-16 40a2.998 2.998 0 0 0 3 3h10a2.999 2.999 0 0 0 3-3v-7.143a2.998 2.998 0 0 0-3-3h-2.715a.998.998 0 0 1-.68-.267l-.849-.788a3 3 0 0 0-2.041-.802H53a2.999 2.999 0 0 0-3 3v9Zm6.715-10c.252 0 .495.095.68.267l.849.789a3 3 0 0 0 2.041.801H63a.998.998 0 0 1 1 1V203H52v-2a1 1 0 0 1 1-1h3.715ZM63 211a.998.998 0 0 0 1-1v-5H52v5a1 1 0 0 0 1 1h10Z" clip-rule="evenodd"/>
  <path fill="#000" d="M59.5 233h2v-3a3 3 0 0 0-3-3H53a3 3 0 0 0-3 3v10a3 3 0 0 0 3 3h5.5a3 3 0 0 0 3-3v-3h-2v3a1 1 0 0 1-1 1H53a1 1 0 0 1-1-1v-10a1 1 0 0 1 1-1h5.5a1 1 0 0 1 1 1v3Zm-1.218 1.321a.962.962 0 0 0 .68 1.644h3.511v1.398a.644.644 0 0 0 .768.625.647.647 0 0 0 .329-.172l2.16-2.162a.934.934 0 0 0 .27-.652.919.919 0 0 0-.27-.652l-2.16-2.164a.648.648 0 0 0-.698-.137.642.642 0 0 0-.399.591v1.398h-3.511a.96.96 0 0 0-.68.283ZM62 269v-1h-8v1h8Zm-8-3v-1h8v1h-8Zm0-3v-1h8v1h-8Z"/>
  <path fill="#000" fill-rule="evenodd" d="M64 270a1 1 0 0 1-1 1H53a1 1 0 0 1-1-1v-10a1 1 0 0 1 1-1h10a1 1 0 0 1 1 1v10Zm2-10v10a3 3 0 0 1-3 3H53a3 3 0 0 1-3-3v-10a3 3 0 0 1 3-3h10a3 3 0 0 1 3 3Z" clip-rule="evenodd"/>
  <path fill="#000" d="M60.832 295.605a.67.67 0 0 1 .101 1.026l-2.246 2.245a.955.955 0 0 1-1.354 0l-2.245-2.246a.674.674 0 0 1-.14-.725.673.673 0 0 1 .61-.415h1.452v-3.65a1 1 0 1 1 2 0v3.65h1.453c.132.001.26.041.369.115Z"/>
  <path fill="#000" fill-rule="evenodd" d="M64 300a1 1 0 0 1-1 1H53a1 1 0 0 1-1-1v-10a1 1 0 0 1 1-1h10a1 1 0 0 1 1 1v10Zm2-10v10a3 3 0 0 1-3 3H53a3 3 0 0 1-3-3v-10a3 3 0 0 1 3-3h10a3 3 0 0 1 3 3Z" clip-rule="evenodd"/>
  <path fill="#000" d="m57.564 328.396 5.103-5.103a1.001 1.001 0 0 0-1.414-1.415l-4.808 4.808-1.698-1.696a.992.992 0 0 0-.713-.316 1.008 1.008 0 0 0-.723.293.99.99 0 0 0-.293.723.992.992 0 0 0 .315.713l1.992 1.988c.296.299.699.467 1.12.467l-.001.001c.42.001.824-.166 1.12-.463Z"/>
  <path fill="#000" fill-rule="evenodd" d="M64 330a1 1 0 0 1-1 1H53a1 1 0 0 1-1-1v-10a1 1 0 0 1 1-1h10a1 1 0 0 1 1 1v10Zm2-10v10a3 3 0 0 1-3 3H53a3 3 0 0 1-3-3v-10a3 3 0 0 1 3-3h10a3 3 0 0 1 3 3Zm-3.686 38.281a.999.999 0 0 1-1.708.707l-2.585-2.586-2.588 2.586a.988.988 0 0 1-.718.334.998.998 0 0 1-.694-1.745l2.586-2.589-2.594-2.593a1.004 1.004 0 0 1-.217-1.09 1.008 1.008 0 0 1 .542-.541.986.986 0 0 1 .765 0c.122.05.232.124.325.216l2.593 2.594 2.589-2.586a1.004 1.004 0 0 1 1.367.044 1 1 0 0 1 .044 1.368l-2.586 2.588 2.586 2.586a.999.999 0 0 1 .293.707ZM53 363h10a3 3 0 0 0 3-3v-10a3 3 0 0 0-3-3H53a3 3 0 0 0-3 3v10a3 3 0 0 0 3 3Zm-1-3a1 1 0 0 0 1 1h10a1 1 0 0 0 1-1v-10a1 1 0 0 0-1-1H53a1 1 0 0 0-1 1v10Z" clip-rule="evenodd"/>
  <path fill="#000" d="M90.573 21.251c-.267.701-.55 1.379-.849 2.031a20.31 20.31 0 0 1-.958 1.839l-1.105-.547c.268-.448.533-.946.797-1.495.268-.552.516-1.118.745-1.698.233-.58.445-1.16.635-1.74.192-.583.346-1.135.464-1.655l1.219.208-.255.948c-.087.32-.184.633-.292.942h4.74v1.167h-5.141ZM87.5 25.824h-1.12v-7.693l1.12.032v7.661Zm-3.198-.417h-1.104v-6.682l1.104.031v6.651Zm7.333-3.567c.202.16.44.368.714.625.278.256.555.527.833.812.278.281.544.563.797.844.257.281.466.524.625.729l-.88.88a8.95 8.95 0 0 0-.615-.791 18.39 18.39 0 0 0-.791-.875 17.799 17.799 0 0 0-.818-.808c-.27-.25-.509-.455-.713-.614l.848-.802ZM96 30.74v1.084H81.693v-1.083h1.838v-4.323h10.594v4.323H96Zm-11.349 0h2.13v-3.25h-2.13v3.25Zm5.234-3.25h-2.093v3.25h2.093v-3.25Zm3.12 0H90.88v3.25h2.125v-3.25Zm9.13-.088a8.15 8.15 0 0 0-.697-.875 19.34 19.34 0 0 0-.844-.89v6.724h-1.089v-6.422c-.278.305-.57.612-.875.921a31.52 31.52 0 0 1-.963.943l-.724-.885a18.704 18.704 0 0 0 2.312-2.386 11.53 11.53 0 0 0 1.641-2.708h-3.23v-1.167h2.047a28.463 28.463 0 0 0-.765-2.52l1.083-.193c.066.163.134.354.203.573.07.215.139.444.209.687.069.243.139.49.208.74.069.25.13.488.182.713h1.297v1.167a17.736 17.736 0 0 1-1.458 2.625c.18.135.37.292.568.469.201.173.397.35.588.531.195.177.38.356.557.536.177.178.33.346.459.506l-.709.911Zm2.198.323h-1.119v-8.932h7.119v8.9h-1.135v-7.75h-4.865v7.782Zm7.328 1.042c-.02.347-.05.704-.088 1.073-.035.364-.09.717-.167 1.057-.031.17-.085.314-.161.432a.919.919 0 0 1-.318.302 1.77 1.77 0 0 1-.516.193 4.962 4.962 0 0 1-.776.104c-.472.031-.939.031-1.401 0a3.577 3.577 0 0 1-.739-.12 1.127 1.127 0 0 1-.485-.276 1.078 1.078 0 0 1-.27-.49 2.893 2.893 0 0 1-.084-.76v-2.62a7 7 0 0 1-.656 1.334 8.34 8.34 0 0 1-.953 1.229c-.368.396-.795.785-1.281 1.167-.483.382-1.033.764-1.651 1.146l-.735-1.01c.92-.536 1.669-1.062 2.245-1.579a7.244 7.244 0 0 0 1.391-1.651 6.07 6.07 0 0 0 .734-1.89c.146-.681.245-1.46.297-2.34.01-.128.019-.336.026-.624.007-.292.01-.603.01-.932v-1.573l1.167.052c0 .114-.003.323-.01.625-.004.298-.009.614-.016.948a70.28 70.28 0 0 1-.016.963 81.96 81.96 0 0 0-.005.662c-.01.434-.033.843-.068 1.229a9.483 9.483 0 0 1-.156 1.12l.813.03v3.277c0 .177.01.328.031.453a.625.625 0 0 0 .12.292.58.58 0 0 0 .255.166c.111.035.259.058.443.068.121.01.272.016.453.016.184 0 .337-.006.458-.016.34-.02.559-.085.656-.193.098-.11.172-.29.224-.536.052-.274.089-.56.11-.86.024-.302.036-.59.036-.864l1.083.396Zm15.532-9.276v1.01h-13.86v-1.01h4.115a8.378 8.378 0 0 0-.464-.573 8.665 8.665 0 0 0-.432-.469l.828-.688c.094.087.195.193.302.318l.328.375c.115.125.223.252.323.38.104.129.193.247.266.355l-.339.302h3.412c.243-.278.498-.577.766-.896.267-.32.491-.603.671-.85l.912.595a12.9 12.9 0 0 1-.432.552c-.16.198-.33.397-.511.599h4.115Zm-4.568 6.666 1.104-.114c.271-.031.481-.07.63-.115a.71.71 0 0 0 .334-.203.54.54 0 0 0 .13-.318c.01-.128.016-.283.016-.463V21.23l1.057.032v4c0 .319-.023.586-.068.802a.91.91 0 0 1-.281.515c-.143.129-.344.228-.604.297-.261.07-.606.125-1.037.167l-.958.094-.323-.98Zm-4.443.037c.216-.021.381-.044.495-.068a.658.658 0 0 0 .266-.114.283.283 0 0 0 .104-.183 2.35 2.35 0 0 0 .015-.302v-.161h-3.359v1.604h-1.088v-5.594h5.567v4.167c0 .267-.024.493-.073.677a.957.957 0 0 1-.27.458 1.33 1.33 0 0 1-.553.281 5.24 5.24 0 0 1-.911.141l-.802.068-.302-.89.911-.084Zm3.667-4.719 1.036.016v3.906h-1.036v-3.922Zm-6.146.734v.787h3.359v-.787h-3.359Zm3.359 2.37v-.797h-3.359v.797h3.359Zm-4.942 3.172h12.047a25.45 25.45 0 0 1-.063.531l-.099.776a36.08 36.08 0 0 1-.094.76l-.062.46a4.75 4.75 0 0 1-.203.859c-.08.218-.219.394-.417.526-.194.135-.465.236-.812.302-.348.07-.809.126-1.386.171l-.927.079-.37-1.058 1.151-.078c.365-.02.657-.05.875-.088a1.38 1.38 0 0 0 .511-.177.651.651 0 0 0 .255-.302c.049-.122.089-.285.12-.49.01-.073.026-.168.047-.287.024-.118.043-.237.057-.359l.047-.344.042-.255h-5.167a4.232 4.232 0 0 1-.594 1.406 3.851 3.851 0 0 1-1.083 1.047c-.452.306-1.014.568-1.688.787-.67.218-1.474.423-2.411.614l-.432-1.01a24.68 24.68 0 0 0 2.088-.495c.587-.17 1.078-.366 1.474-.588a3.29 3.29 0 0 0 .943-.771 2.96 2.96 0 0 0 .531-.99h-4.38v-1.026Zm24.984-5.927v3.182H142v7.25h-1.135v-.979H137v.964h-1.135v-7.235h2.088v-7l1.151.032v2.65h3.693v1.136h-3.693Zm-8.37 6.531h-1.073v-9.26H135v9.198h-1.073V20.23h-3.193v8.125Zm1.99-2.161a9.59 9.59 0 0 1-.146 1.74 5.302 5.302 0 0 1-.516 1.51 6.766 6.766 0 0 1-1.02 1.437c-.434.483-.99.995-1.667 1.537l-.734-.948c.611-.455 1.114-.89 1.51-1.307.399-.417.71-.836.932-1.256.223-.423.375-.857.459-1.302a7.98 7.98 0 0 0 .125-1.463v-4.995l1.057.052v4.995Zm8.141-.037H137v4h3.865v-4Zm-7.818 2.474c.18.15.396.34.646.573a30.463 30.463 0 0 1 1.495 1.453c.222.236.395.433.52.589l-.854.88a9.32 9.32 0 0 0-.515-.625 32.64 32.64 0 0 0-.704-.766 18.803 18.803 0 0 0-1.359-1.333l.771-.77Zm16.286-2.047a14.42 14.42 0 0 0-.687-.984 12.302 12.302 0 0 0-.839-.984v7.875h-1.125v-7.76a19.4 19.4 0 0 1-.791 1.916c-.292.618-.62 1.2-.985 1.745l-.958-.719c.257-.354.516-.757.776-1.208.26-.455.507-.927.74-1.417.236-.49.453-.988.651-1.495.198-.507.361-.995.489-1.463h-1.937v-1.12h2.015v-2.958l1.125.052v2.906h2.032v1.12h-2.032v1.791l.433-.4c.132.117.283.27.453.458.173.184.35.378.531.583.181.201.352.401.516.599.163.198.293.371.39.52l-.797.943Zm6.157 2.287c.458.503.986.977 1.583 1.422.597.44 1.279.88 2.047 1.317l-.766 1.042a20.364 20.364 0 0 1-2.026-1.37 12.512 12.512 0 0 1-1.62-1.479 12.5 12.5 0 0 1-1.635 1.432 20.7 20.7 0 0 1-2.146 1.386l-.906-1.01a21.977 21.977 0 0 0 2.276-1.376 11.377 11.377 0 0 0 1.625-1.375 10.654 10.654 0 0 1-1.219-2.109 12.01 12.01 0 0 1-.765-2.547l1.026-.323c.194.799.432 1.526.713 2.183.281.656.625 1.272 1.031 1.849a8.314 8.314 0 0 0 1.052-1.985c.257-.694.487-1.456.688-2.286h-4.943c0 1.024-.05 1.948-.151 2.77a14.9 14.9 0 0 1-.453 2.282 11.13 11.13 0 0 1-.781 1.984 14.586 14.586 0 0 1-1.146 1.88l-1.12-.692c.462-.577.849-1.153 1.162-1.73a9.533 9.533 0 0 0 .76-1.854c.198-.663.34-1.392.427-2.187.087-.795.13-1.705.13-2.73v-3.9a59.615 59.615 0 0 0 3.87-.375 98.6 98.6 0 0 0 3.719-.568l.255 1.135a53.243 53.243 0 0 1-3.38.537 82.205 82.205 0 0 1-3.292.344v2.015h6.177v1.089a22.474 22.474 0 0 1-.901 2.896c-.33.84-.76 1.618-1.291 2.333Zm7.453 5.286c-.861-1.218-1.512-2.467-1.953-3.744a12.233 12.233 0 0 1-.657-3.995c0-1.459.228-2.834.683-4.125.458-1.295 1.116-2.563 1.974-3.802h1.312c-.875 1.392-1.512 2.717-1.911 3.974a12.569 12.569 0 0 0-.599 3.843c0 1.351.199 2.665.599 3.943.399 1.278 1.02 2.58 1.864 3.906h-1.312Zm15.39-14.333v12.48h-1.265v-.996h-8.151v1.042h-1.25V19.824h3.75c.149-.344.291-.715.427-1.115.139-.399.251-.737.338-1.015l1.365.208c-.087.278-.198.594-.333.948-.136.35-.268.675-.396.974h5.515Zm-9.416 1.167v2.364h8.151v-2.364h-8.151Zm0 3.5v2.161h8.151v-2.161h-8.151Zm8.151 5.666v-2.333h-8.151v2.333h8.151Zm17.896-9.166c-.011.18-.021.498-.032.953-.01.451-.027.967-.052 1.547-.021.58-.041 1.198-.062 1.854a557.74 557.74 0 0 1-.12 3.469c-.014.472-.026.82-.037 1.046-.01.382-.057.697-.14.943a1.3 1.3 0 0 1-.391.594c-.177.15-.42.264-.729.344a8.32 8.32 0 0 1-1.151.198l-.938.114-.369-1.25L192 30.71c.302-.034.55-.072.745-.114.194-.042.348-.113.463-.214a.826.826 0 0 0 .24-.416 3.24 3.24 0 0 0 .094-.683c.01-.17.022-.44.036-.812.017-.372.033-.792.047-1.26.017-.47.036-.962.057-1.48.021-.517.041-1.012.058-1.484.017-.476.031-.898.041-1.266.011-.368.021-.642.031-.823h-2.567a107.28 107.28 0 0 1-.11 2.516c-.041.74-.098 1.411-.171 2.016a12.273 12.273 0 0 1-.308 1.656 9.19 9.19 0 0 1-.515 1.448 9.986 9.986 0 0 1-.766 1.38c-.302.458-.663.948-1.083 1.469l-1.026-.719a15.46 15.46 0 0 0 1.041-1.318 9.45 9.45 0 0 0 .74-1.245c.205-.42.366-.862.484-1.328.122-.465.219-.979.292-1.541.073-.566.125-1.203.156-1.912.035-.708.068-1.515.099-2.422h-1.979v-1.166h2c.011-.31.018-.64.021-.99.007-.354.015-.686.026-.995.01-.35.015-.703.015-1.057l1.167.063c-.011.312-.016.638-.016.979a28 28 0 0 0-.015.963c0 .35-.005.696-.016 1.037h3.683Zm-6.818-.698h-5.662v-1.136h5.662v1.136Zm-.641 10.526a16.615 16.615 0 0 0-.239-.865l-1.078.156c-.41.056-.813.113-1.209.172l-1.073.162c-.319.048-.543.078-.672.088-.18.021-.35.056-.51.105l-.495.15-.448-1.213c.212-.087.36-.19.443-.307a4.51 4.51 0 0 0 .26-.401c.105-.223.232-.512.381-.87s.305-.745.468-1.162a28.897 28.897 0 0 0 .865-2.526h-2.531v-1.15h6.974v1.15h-3.214c-.118.382-.255.81-.411 1.282-.153.468-.315.935-.485 1.4-.17.463-.338.897-.505 1.303a9.36 9.36 0 0 1-.453.99c.125-.021.321-.05.588-.084.267-.038.557-.076.87-.115.316-.038.639-.081.969-.13.333-.048.628-.088.885-.12a41.84 41.84 0 0 0-.604-1.53 14.693 14.693 0 0 0-.583-1.266l1.073-.417c.139.278.293.614.463 1.01.171.393.341.8.511 1.224.173.42.331.834.474 1.24.142.403.251.753.328 1.052l-1.042.672Zm19.682-8.932v3.166h3.146v7.438h-1.156v-.943h-4.505v.958h-1.167v-7.453H206v-6.995l1.187.052v2.625h4.105v1.152h-4.105Zm-5.875 4.026c.139.138.304.317.495.536a23.762 23.762 0 0 1 1.136 1.38c.17.23.314.43.432.6l-.833.926a9.527 9.527 0 0 0-.323-.541 7.938 7.938 0 0 0-.417-.615 16.553 16.553 0 0 0-.474-.615 12.62 12.62 0 0 0-.448-.546v5.39h-1.088V25.95a18.104 18.104 0 0 1-.953 2.198 12.097 12.097 0 0 1-1.339 2.01l-.813-.802c.264-.32.521-.67.771-1.052.254-.385.495-.778.724-1.177.233-.403.441-.809.625-1.219.188-.41.351-.807.49-1.192h-2.099V23.58h2.594v-5.505l1.088.052v5.453h2.464v1.136h-2.464v1.614l.432-.416Zm-.109-3.329a5.73 5.73 0 0 0 .333-.74c.119-.298.233-.605.344-.921.115-.32.219-.63.313-.932.097-.306.172-.57.224-.792l1.041.255a17.58 17.58 0 0 1-.25.839c-.101.326-.215.654-.343.984-.125.326-.252.642-.381.948-.128.302-.246.55-.354.745l-.927-.386Zm-2.984.443a11.019 11.019 0 0 0-.183-.818 22.064 22.064 0 0 0-.265-.942 15.79 15.79 0 0 0-.297-.912 8.69 8.69 0 0 0-.292-.74l.959-.4c.087.19.185.434.296.729.111.291.221.594.329.906.107.31.203.613.286.912.087.298.151.548.193.75l-1.026.515Zm10.958 3.208h-4.505v4.13h4.505v-4.13Zm13.927-4.411v3.182H226v7.25h-1.135v-.979H221v.964h-1.135v-7.235h2.088v-7l1.151.032v2.65h3.693v1.136h-3.693Zm-8.37 6.531h-1.073v-9.26H219v9.198h-1.073V20.23h-3.193v8.125Zm1.99-2.161a9.59 9.59 0 0 1-.146 1.74 5.241 5.241 0 0 1-.516 1.51 6.766 6.766 0 0 1-1.02 1.437c-.434.483-.99.995-1.667 1.537l-.734-.948c.611-.455 1.114-.89 1.51-1.307.399-.417.71-.836.932-1.256.223-.423.376-.857.459-1.302a7.98 7.98 0 0 0 .125-1.463v-4.995l1.057.052v4.995Zm8.141-.037H221v4h3.865v-4Zm-7.818 2.474c.181.15.396.34.646.573a30.463 30.463 0 0 1 1.495 1.453c.222.236.395.433.52.589l-.854.88a9.018 9.018 0 0 0-.515-.625 32.64 32.64 0 0 0-.704-.766 18.803 18.803 0 0 0-1.359-1.333l.771-.77Zm11.443 5.526c.875-1.392 1.512-2.715 1.911-3.968a12.65 12.65 0 0 0 .599-3.85c0-1.35-.2-2.664-.599-3.942-.399-1.278-1.016-2.58-1.849-3.906h1.313c.851 1.218 1.495 2.467 1.932 3.744.441 1.278.661 2.61.661 3.995 0 1.459-.227 2.835-.682 4.13-.455 1.292-1.107 2.558-1.958 3.797h-1.328ZM95.64 49.491v1.041h-9.42v-1.041h4.031a57.287 57.287 0 0 0-.266-.828 8.345 8.345 0 0 0-.244-.693l1.182-.224c.083.194.18.46.291.797.115.333.22.649.313.948h4.115Zm-9.666-1.375a30.68 30.68 0 0 1-.599 1.89 41.124 41.124 0 0 1-.646 1.693v10.599h-1.104v-8.297a19.315 19.315 0 0 1-1.36 1.958l-.88-.828c.726-.927 1.374-2.019 1.943-3.276.57-1.26 1.042-2.56 1.417-3.9l1.229.16Zm8.463 3.375v2.833h-7.359v-2.833h7.36Zm-1.12.849h-5.114v1.15h5.115v-1.15Zm-7.437 2.817h9.73v2.688h-1.136v-1.662H87v1.662h-1.12v-2.688Zm1.469 2.334h6.755v1.01H91.48v2.026c0 .302-.028.554-.083.755a.949.949 0 0 1-.302.495c-.15.132-.36.23-.63.292-.268.066-.62.114-1.058.146l-.932.067-.365-1.104 1.063-.067c.264-.011.472-.035.625-.073a.798.798 0 0 0 .349-.151.411.411 0 0 0 .15-.256c.022-.11.032-.252.032-.422v-1.708H87.35v-1.01Zm24.318 2.948v1.135H97.458v-1.135h2.735v-9.813l1.25.047v9.766h3.328v-12.5l1.265.047v4.656h4.719v1.182h-4.719v6.615h5.631Zm10.239-9.188c-.267.702-.55 1.379-.849 2.031a20.07 20.07 0 0 1-.958 1.839l-1.104-.547c.267-.448.533-.946.797-1.495a24.93 24.93 0 0 0 .744-1.698c.233-.58.445-1.16.636-1.74.191-.583.345-1.135.463-1.655l1.219.208-.255.948c-.087.32-.184.633-.292.942h4.74v1.167h-5.141Zm-3.073 4.573h-1.119v-7.693l1.119.032v7.661Zm-3.198-.417h-1.104v-6.682l1.104.031v6.651Zm7.334-3.567c.201.16.439.368.713.625.278.256.556.527.834.812.277.281.543.563.796.844.257.281.466.524.626.729l-.881.88a8.802 8.802 0 0 0-.614-.791 18.29 18.29 0 0 0-.792-.875 17.553 17.553 0 0 0-.818-.808 11.59 11.59 0 0 0-.713-.614l.849-.802Zm4.364 8.9v1.084h-14.307v-1.083h1.839v-4.323h10.593v4.323h1.875Zm-11.349 0h2.131v-3.25h-2.131v3.25Zm5.235-3.25h-2.094v3.25h2.094v-3.25Zm3.12 0h-2.125v3.25h2.125v-3.25Zm9.13-.088a8.17 8.17 0 0 0-.698-.875 19.34 19.34 0 0 0-.844-.89v6.724h-1.088v-6.422A33.36 33.36 0 0 1 129 57.803l-.724-.885a18.756 18.756 0 0 0 2.313-2.386 11.544 11.544 0 0 0 1.64-2.708H129v-1.167h2.047a27.81 27.81 0 0 0-.391-1.39 21.936 21.936 0 0 0-.375-1.13l1.084-.193c.066.163.133.354.203.573.069.215.139.444.208.687.069.243.139.49.208.74.07.25.131.488.183.713h1.297v1.167a17.432 17.432 0 0 1-1.459 2.625c.181.135.37.292.568.469.201.173.397.35.588.531.195.177.381.356.558.537.177.177.33.345.458.505l-.708.911Zm2.198.323h-1.12v-8.932h7.12v8.9h-1.136v-7.75h-4.864v7.782Zm7.328 1.042a25.39 25.39 0 0 1-.089 1.073c-.034.364-.09.717-.166 1.057-.032.17-.086.314-.162.432a.91.91 0 0 1-.318.302c-.132.08-.303.144-.515.193a4.979 4.979 0 0 1-.776.104c-.472.031-.939.031-1.401 0a3.576 3.576 0 0 1-.74-.12 1.124 1.124 0 0 1-.484-.276 1.079 1.079 0 0 1-.271-.49 2.898 2.898 0 0 1-.083-.76v-2.62c-.171.466-.389.91-.657 1.334a8.34 8.34 0 0 1-.953 1.229c-.368.396-.795.785-1.281 1.167a17.29 17.29 0 0 1-1.651 1.145l-.734-1.01c.92-.535 1.668-1.06 2.244-1.578a7.219 7.219 0 0 0 1.391-1.651 6.07 6.07 0 0 0 .734-1.89c.146-.681.245-1.46.297-2.34.011-.128.019-.336.026-.624.007-.292.011-.603.011-.933V50.94l1.166.052c0 .114-.003.323-.01.625-.004.298-.009.614-.016.948-.003.333-.008.654-.015.963a57.18 57.18 0 0 0-.006.662c-.01.434-.033.843-.067 1.229a9.482 9.482 0 0 1-.157 1.12l.813.03v3.277c0 .177.01.328.031.453a.625.625 0 0 0 .12.292.591.591 0 0 0 .255.166c.111.035.259.058.443.068.121.01.272.016.453.016.184 0 .337-.006.458-.016.341-.02.559-.085.657-.193.097-.11.172-.29.224-.536a7.4 7.4 0 0 0 .109-.86c.024-.302.036-.59.036-.864l1.084.396Zm-56.813 19.63c-.18.587-.368 1.158-.562 1.713a28.69 28.69 0 0 1-.62 1.63v10.75h-1.135v-8.463c-.448.771-.96 1.507-1.537 2.209l-.911-.797a18.465 18.465 0 0 0 2.24-3.521 21.562 21.562 0 0 0 1.406-3.735l1.12.214Zm8.302 5.427h-7.406v-5.031h7.406v5.031Zm-1.203-3.912h-5.005v2.792h5.005v-2.791Zm-1.76 6.74a11.324 11.324 0 0 0 2.041 2.084 15.354 15.354 0 0 0 2.76 1.723l-.734 1.042a15.081 15.081 0 0 1-2.437-1.682 14.33 14.33 0 0 1-1.854-1.938v4.563h-1.135v-4.51c-.244.34-.504.663-.782.968a12.09 12.09 0 0 1-.927.901c-.34.299-.715.596-1.125.89-.41.293-.871.588-1.385.886l-.776-.99a14.942 14.942 0 0 0 2.666-1.755c.81-.666 1.48-1.394 2.01-2.182h-4.015v-1.068h4.334v-1.317l1.135.067v1.25h4.37v1.068H91.52Zm10.588-.911a8.188 8.188 0 0 1-.619.234c-.261.087-.546.182-.855.287v4.479c0 .309-.029.559-.088.75a.937.937 0 0 1-.287.458 1.225 1.225 0 0 1-.547.24 5.98 5.98 0 0 1-.854.104l-.849.062-.349-1.104.865-.047c.191-.01.347-.03.469-.057a.629.629 0 0 0 .291-.125.5.5 0 0 0 .151-.24c.032-.1.047-.237.047-.411v-3.76c-.437.135-.855.26-1.255.374l-1.016.282-.291-1.136a22.368 22.368 0 0 0 2.563-.708V81.86h-2v-1.036h2v-3.073l1.15.047v3.026h1.698v1.037h-1.698v3.192c.257-.094.495-.182.714-.266.219-.086.418-.168.599-.244l.114.755.047.443Zm9.511-2.641v1.057h-9.672V83.1h4.094v-2.114H103v-1.094h3.042v-2.063l1.182.047v2.016h3.375v1.094h-3.375V83.1h4.396Zm-2.365 2.984h1.933v1.073h-1.933v3.313c0 .32-.029.59-.088.812a1.17 1.17 0 0 1-.323.563c-.153.15-.368.264-.646.344-.278.08-.634.135-1.068.166l-.864.068-.433-1.151.995-.068a3.43 3.43 0 0 0 .646-.073.752.752 0 0 0 .375-.172.557.557 0 0 0 .167-.317 2.78 2.78 0 0 0 .041-.526v-2.959h-5.724v-1.073h5.724V84.7l1.198.047v1.338Zm-5.344 1.552c.171.15.349.318.537.506.187.187.371.377.552.567.184.191.352.38.505.568.156.188.281.35.375.49l-.833.911a9.27 9.27 0 0 0-.432-.625 15.255 15.255 0 0 0-1.037-1.224 6.36 6.36 0 0 0-.5-.49l.833-.703Zm11.271-5.921H114V79.49h5.693a17.351 17.351 0 0 0-.224-.667 18.753 18.753 0 0 0-.193-.547l1.104-.208a47.68 47.68 0 0 1 .516 1.422h5.568v2.224h-1.188v-1.26h-10.094v1.26Zm3.901-.032c-.319.15-.718.318-1.198.506a43.04 43.04 0 0 1-3.031 1.057c-.507.153-.948.272-1.323.36l-.396-.964c.403-.077.858-.186 1.365-.328a33.408 33.408 0 0 0 1.526-.48c.514-.173 1-.354 1.458-.541.459-.188.849-.367 1.172-.537l.427.927Zm2.625-.88c.375.097.813.22 1.313.37.503.15 1.01.307 1.521.474.51.163.998.331 1.463.505.465.17.847.318 1.146.443l-.307 1.041c-.32-.17-.719-.35-1.198-.541a36.312 36.312 0 0 0-3.016-1.057c-.496-.15-.92-.268-1.271-.355l.349-.88Zm-.781 1.328a9.083 9.083 0 0 1-.307.651c-.125.25-.252.486-.38.709h5.536v9.104h-1.156v-.771h-8.813v.77h-1.151v-9.103h4.287c.17-.243.331-.516.484-.818.156-.306.278-.556.365-.75l1.135.208Zm3.693 2.323h-8.813v6.344h8.813v-6.344Zm-5.854 1.917a14.4 14.4 0 0 1-.927.849c-.32.264-.667.531-1.042.802l-.688-.708c.674-.4 1.276-.835 1.808-1.308a8.482 8.482 0 0 0 1.328-1.469l.786.495c-.149.167-.293.32-.432.459h3.839v.864a9.365 9.365 0 0 1-1.646 1.802c.35.188.685.37 1.005.547.319.174.592.337.818.49l-.417 1.026a9.732 9.732 0 0 0-1.016-.698 26.042 26.042 0 0 0-1.271-.724c-.566.364-1.185.69-1.859.98a22.65 22.65 0 0 1-2.255.806l-.479-.859a30.404 30.404 0 0 0 2.041-.661 10.014 10.014 0 0 0 1.61-.76 52.61 52.61 0 0 0-.922-.433 12.44 12.44 0 0 0-.792-.344l.526-.776c.278.097.597.23.959.396.364.167.744.349 1.14.547.243-.188.471-.39.682-.61.216-.222.419-.46.61-.713h-3.406Zm22.567-6.88v12.671h-1.265v-1.427h-8.401v1.506h-1.261V79.49h10.927Zm-1.265 10v-8.75h-8.401v8.75h8.401Zm17.286-8H145.74v-3.037h11.614v3.037Zm-10.495-.818h2.48v-1.401h-2.48v1.401Zm3.506-1.401v1.401h2.395v-1.401h-2.395Zm5.885 0h-2.464v1.401h2.464v-1.401Zm2.417 11.552v.948h-14.224v-.948h2.286v-6.667h4.255v-.786h-5.838v-.88h5.838v-.813l1.141.047v.766h5.823v.88h-5.823v.786h4.24v6.667h2.302Zm-10.766-5.787v.787h7.292v-.787h-7.292Zm7.292 1.506h-7.292v.948h7.292v-.948Zm-7.292 1.666v.907h7.292v-.907h-7.292Zm0 2.615h7.292v-.99h-7.292v.99Zm20.75-9c.076-.326.148-.662.214-1.005l.182-.907h-3.448v-1.088h8.682v1.088h-4c-.055.25-.118.55-.187.902-.066.347-.137.684-.214 1.01h3.453v6.969h-1.151v-5.927h-5.031v5.911H166v-6.953h2.651Zm-4.911-1.625v9.516c0 .34-.02.625-.058.854a1.07 1.07 0 0 1-.224.547.963.963 0 0 1-.479.307c-.205.07-.474.116-.807.14l-1.136.079-.401-1.105 1.381-.093c.243-.025.394-.11.453-.255.059-.15.088-.374.088-.672v-9.318h-2.224v-1.151h4.896v1.151h-1.489Zm6.442 6.068c0 .687-.064 1.304-.192 1.849a3.833 3.833 0 0 1-.74 1.515c-.368.466-.885.908-1.552 1.328-.663.42-1.53.851-2.599 1.292l-.625-1.026c1.024-.375 1.835-.74 2.432-1.094.597-.357 1.051-.738 1.36-1.14.309-.407.508-.853.599-1.339a9.41 9.41 0 0 0 .135-1.687v-2.26l1.182.062v2.5Zm.443 2.145c.219.164.476.351.771.563.298.212.618.448.958.708.34.257.686.528 1.037.813.354.285.698.571 1.031.86l-.734.989c-.271-.288-.575-.58-.912-.875a25.378 25.378 0 0 0-1.021-.85c-.34-.27-.67-.522-.989-.754-.32-.233-.599-.434-.839-.605l.698-.849Zm-86.078 23.459a11.093 11.093 0 0 0-1.078-1.531c-.4-.476-.755-.872-1.068-1.188l.849-.719c.15.146.325.323.526.532a14.325 14.325 0 0 1 1.193 1.38c.187.243.345.463.474.661l-.896.865Zm3.187 7.922a9.98 9.98 0 0 0-.432.14 3.855 3.855 0 0 0-.48.204l-.452-1.032c.215-.115.357-.217.427-.307s.104-.21.104-.359v-9.657h7.188v5.761h-6.084v4.052c.17-.042.382-.101.636-.177l.791-.235c.271-.083.526-.16.766-.229.24-.073.424-.13.552-.172l.224 1.078a118.435 118.435 0 0 1-1.63.469 69.165 69.165 0 0 0-1.61.464Zm.271-9.969v1.333H93v-1.333h-4.995ZM93 113.491v-1.313h-4.995v1.313H93Zm-2.651 7.312c.951.021 1.922.021 2.911 0 .99-.021 1.912-.059 2.766-.114l-.27 1.203a272.355 272.355 0 0 1-2.563.062c-.466.011-.922.016-1.37.016-.448 0-.837-.005-1.167-.016a46.174 46.174 0 0 1-2.172-.099 8.209 8.209 0 0 1-1.661-.271 5.398 5.398 0 0 1-1.375-.599 6.697 6.697 0 0 1-1.286-1.062c-.15.17-.29.333-.422.49a40.488 40.488 0 0 1-.896 1.02c-.17.188-.367.395-.589.62l-.843-.896c.437-.413.847-.817 1.229-1.213.385-.396.727-.785 1.026-1.167v-4.489h-1.73v-1.105h2.88v5.839a6.52 6.52 0 0 0 1.12.911c.365.223.757.396 1.178.521.42.122.889.209 1.406.261a23.24 23.24 0 0 0 1.828.088Zm-.636-5.651c.146.087.414.253.803.5.392.243.826.523 1.302.839.479-.285.958-.601 1.437-.948.483-.351.926-.721 1.328-1.11l.657.813c-.34.295-.73.606-1.167.932-.438.327-.88.632-1.328.917.514.347.996.681 1.448 1 .455.316.803.576 1.047.781l-.589.995c-.184-.163-.43-.365-.74-.604a38.85 38.85 0 0 0-1.015-.761 93.907 93.907 0 0 0-1.14-.823 48.25 48.25 0 0 0-1.1-.776c-.34-.236-.64-.441-.9-.614a19.69 19.69 0 0 0-.553-.36l.51-.781Zm20.87.938v6.401h-1.26v-.766H98.667v-5.651l1.245.068v4.38H104v-5.698h-4.677v-5.412l1.234.053v4.172H104v-5.631l1.198.031v5.6h3.469v-4.225l1.229.053v5.359h-4.698v5.698h4.125v-4.479l1.26.047Zm15.438-4.599h-11.615v-3.037h11.615v3.037Zm-10.495-.818h2.479v-1.401h-2.479v1.401Zm3.505-1.401v1.401h2.396v-1.401h-2.396Zm5.886 0h-2.464v1.401h2.464v-1.401Zm2.416 11.552v.948h-14.224v-.948h2.287v-6.667h4.255v-.786h-5.839v-.88h5.839v-.813l1.141.047v.766h5.823v.88h-5.823v.786h4.239v6.667h2.302Zm-10.765-5.786v.786h7.291v-.786h-7.291Zm7.291 1.505h-7.291v.948h7.291v-.948Zm-7.291 1.666v.907h7.291v-.907h-7.291Zm0 2.615h7.291v-.99h-7.291v.99Zm20.75-9c.076-.327.147-.662.213-1.005l.183-.907h-3.448v-1.088h8.682v1.088h-4c-.056.251-.118.551-.188.902-.066.347-.137.683-.213 1.01H142v6.969h-1.151v-5.927h-5.031v5.911h-1.151v-6.953h2.651Zm-4.912-1.625v9.516c0 .34-.019.625-.057.854a1.077 1.077 0 0 1-.224.547.967.967 0 0 1-.479.307 3.394 3.394 0 0 1-.807.141l-1.136.078-.401-1.104 1.38-.094c.243-.025.394-.11.453-.255.059-.149.089-.373.089-.672v-9.318H129v-1.151h4.896v1.151h-1.49Zm6.443 6.068a8.06 8.06 0 0 1-.193 1.849 3.835 3.835 0 0 1-.739 1.515c-.368.465-.886.908-1.552 1.328-.664.421-1.53.851-2.599 1.292l-.625-1.026c1.024-.375 1.835-.739 2.432-1.094.597-.357 1.05-.737 1.359-1.14.309-.407.509-.853.599-1.339a9.305 9.305 0 0 0 .136-1.687v-2.261l1.182.063v2.5Zm.443 2.146c.218.163.475.35.77.562.299.212.619.448.959.708.34.257.686.528 1.036.813.354.285.698.571 1.032.859l-.735.99c-.271-.288-.574-.58-.911-.875a25.637 25.637 0 0 0-1.021-.849c-.34-.271-.67-.522-.99-.755a81.676 81.676 0 0 0-.838-.604l.698-.849ZM96 143.798v1.026H81.937v-1.026h4.896v-3.286h-4.161v-1.021h3.745a8.298 8.298 0 0 0-.547-.735 20.065 20.065 0 0 0-.51-.609l.88-.594c.18.212.39.462.63.75.243.288.455.566.635.834l-.463.354h3.26a23.397 23.397 0 0 0 .77-.985c.13-.177.25-.347.36-.51a9.92 9.92 0 0 0 .281-.443l.912.557c-.108.185-.25.4-.427.646l-.536.735h3.62v1.021H91.12v3.286H96Zm-8.047 0H90v-3.286h-2.047v3.286Zm-2.703-.073c-.108-.17-.241-.364-.401-.583-.16-.219-.332-.444-.516-.677-.18-.237-.359-.454-.536-.651a5.844 5.844 0 0 0-.469-.485l.74-.765c.139.135.298.3.479.494.184.195.365.396.541.605.181.208.353.418.516.63.167.208.304.387.412.536l-.766.896Zm6.604-.792c.14-.149.297-.323.474-.52a33.284 33.284 0 0 0 1.031-1.235c.16-.205.294-.387.401-.547l.818.683c-.118.159-.262.343-.432.552-.17.208-.347.421-.531.64-.18.215-.36.424-.537.625-.174.198-.325.363-.453.495l-.77-.693ZM84.13 146.1h9.693v6.443h-1.12v-.719H85.25v.734h-1.12V146.1Zm1.12 1.057v1.334h7.453v-1.334H85.25Zm7.453 3.641v-1.318H85.25v1.318h7.453Zm7.458-8.677a11.56 11.56 0 0 0-.87-1.656 15.692 15.692 0 0 0-.536-.808 18.33 18.33 0 0 0-.474-.64l.901-.578c.146.163.311.371.495.625.184.253.366.519.547.796.184.278.354.551.51.818.16.267.285.498.375.693l-.948.75Zm6.125-.896a19.58 19.58 0 0 0 1.094-.682c.358-.24.712-.483 1.063-.729h-6.365v-.99h8.255v.958c-.524.341-1.045.674-1.562 1-.518.323-1.037.626-1.557.907l.031.036-.078.099h3.198v6.656c0 .281-.03.514-.089.698a.952.952 0 0 1-.292.448c-.132.111-.305.2-.52.266a4.179 4.179 0 0 1-.808.146l-.64.067-.339-1.057.781-.063c.181-.01.325-.034.433-.072a.59.59 0 0 0 .25-.172.571.571 0 0 0 .109-.282c.017-.111.026-.256.026-.437v-.531h-2.542v2.312h-1.073v-2.312h-2.479v2.484h-1.088v-8.151h3.458a14.8 14.8 0 0 0-1.088-.656 23.495 23.495 0 0 0-.98-.511l.578-.729c.299.149.65.342 1.053.578.406.233.796.472 1.171.719Zm-3.104 1.625v1.307h2.479v-1.307h-2.479Zm6.094 0h-2.542v1.307h2.542v-1.307Zm-4.802 7.974c.559.031 1.148.052 1.766.063.621.01 1.248.015 1.88.015a69.5 69.5 0 0 0 1.89-.026 53.924 53.924 0 0 0 1.776-.068l-.224 1.12a119.396 119.396 0 0 1-3.635.078 116.8 116.8 0 0 1-1.88-.015 85.947 85.947 0 0 1-1.75-.047 9.53 9.53 0 0 1-1.516-.167 4.91 4.91 0 0 1-1.203-.396 4.28 4.28 0 0 1-.953-.619 4.668 4.668 0 0 1-.77-.881c-.244.278-.537.587-.881.927-.344.341-.719.709-1.125 1.105l-.766-1.058c.223-.181.419-.346.589-.495a16.232 16.232 0 0 0 1-.921 34.9 34.9 0 0 0 .557-.573v-4.422h-1.797v-1.177h2.948v5.547c.358.687.861 1.182 1.511 1.484.652.299 1.514.474 2.583.526Zm1.187-4.323v-1.338h-2.479v1.338h2.479Zm3.615 0v-1.338h-2.542v1.338h2.542Zm5.906-4.786H114v-2.224h5.693a17.312 17.312 0 0 0-.224-.667 18.772 18.772 0 0 0-.193-.547l1.104-.208a44.911 44.911 0 0 1 .516 1.422h5.568v2.224h-1.188v-1.261h-10.094v1.261Zm3.901-.032c-.319.149-.718.318-1.198.506a44.975 44.975 0 0 1-3.031 1.057c-.507.153-.948.272-1.323.359l-.396-.963c.403-.077.858-.186 1.365-.328a33.055 33.055 0 0 0 1.526-.48c.514-.173 1-.354 1.458-.541a13.09 13.09 0 0 0 1.172-.537l.427.927Zm2.625-.88a57.147 57.147 0 0 1 2.834.844c.51.163.998.332 1.463.505.465.17.847.318 1.146.443l-.307 1.042c-.32-.171-.719-.351-1.198-.542a32.106 32.106 0 0 0-1.495-.563 36.576 36.576 0 0 0-2.792-.849l.349-.88Zm-.781 1.328a9.083 9.083 0 0 1-.307.651c-.125.25-.252.486-.38.709h5.536v9.104h-1.156v-.771h-8.813v.771h-1.151v-9.104h4.287c.17-.243.331-.516.484-.818.156-.305.278-.555.365-.75l1.135.208Zm3.693 2.323h-8.813v6.344h8.813v-6.344Zm-5.854 1.917c-.299.299-.608.582-.927.849-.32.264-.667.531-1.042.802l-.688-.708a11.613 11.613 0 0 0 1.808-1.308 8.471 8.471 0 0 0 1.328-1.468l.786.494c-.149.167-.293.32-.432.459h3.839v.864a9.35 9.35 0 0 1-1.646 1.802c.35.188.685.37 1.005.547.319.174.592.337.818.49l-.417 1.026a9.747 9.747 0 0 0-1.016-.698 25.715 25.715 0 0 0-1.271-.724c-.566.365-1.185.691-1.859.979-.67.285-1.422.554-2.255.807l-.479-.859a30.134 30.134 0 0 0 2.041-.661 10.058 10.058 0 0 0 1.61-.761c-.32-.153-.627-.297-.922-.432a12.807 12.807 0 0 0-.792-.344l.526-.776c.278.097.597.229.959.396.364.167.744.349 1.14.547.243-.187.471-.391.682-.61.216-.222.419-.46.61-.713h-3.406Zm22.567-6.88v12.672h-1.265v-1.428h-8.401v1.506h-1.261v-12.75h10.927Zm-1.265 10v-8.75h-8.401v8.75h8.401Zm11.265-8.844h-1.968v-1.037h1.968v-1.52l1.042.031v1.489h2.573v-1.52l1.052.031v1.489h2.417v1.037H156v1.042h-1.052v-1.042h-2.573v1.042h-1.042v-1.042Zm-2.395 5.932a6.685 6.685 0 0 0-.521-.828 14.655 14.655 0 0 0-.672-.88v7.62h-1.089V144.6a28.94 28.94 0 0 1-.87 1.964 21.724 21.724 0 0 1-.937 1.718l-.943-.619c.236-.361.479-.763.729-1.204.25-.444.495-.904.735-1.38.239-.479.463-.965.672-1.458.208-.497.387-.981.536-1.453h-1.937v-1.042h2.015v-2.989l1.089.031v2.958h1.682v1.042h-1.682v1.89l.302-.286c.121.104.259.243.411.417.153.17.302.35.448.541.146.188.287.374.422.558.139.18.254.34.344.479l-.734.812Zm5.421 2.391c.379.607.931 1.119 1.657 1.536.725.417 1.713.747 2.963.99l-.417 1.12c-1.25-.319-2.269-.708-3.057-1.167-.788-.458-1.41-1.017-1.864-1.677-.341.607-.889 1.146-1.646 1.615-.754.469-1.787.878-3.099 1.229l-.573-1.006c1.299-.298 2.288-.666 2.969-1.104.68-.437 1.142-.949 1.385-1.536h-3.604v-.99h3.891a.725.725 0 0 0 .02-.192 4.67 4.67 0 0 0 .016-.422v-.474h-3.042v-4.865h7.469v4.865h-3.276a6.92 6.92 0 0 0-.016.463c0 .16-.005.304-.015.433v.192h4.344v.99h-4.105ZM151 142.923v1.104h5.354v-1.104H151Zm0 3.052h5.354v-1.12H151v1.12Zm22.969 2.693a14.734 14.734 0 0 1-.354 1.63 4.488 4.488 0 0 1-.329.943 2.27 2.27 0 0 1-.39.583c-.139.143-.288.24-.448.292-.16.055-.325.083-.495.083-.365 0-.722-.12-1.073-.359-.35-.24-.708-.693-1.073-1.36-.416-.757-.783-1.849-1.099-3.276-.312-1.427-.527-3.22-.646-5.38h-7.729v-1.172h7.688l-.094-2.703 1.261.047c0 .278.005.655.015 1.13.011.476.028.985.052 1.526h2.761c-.118-.17-.25-.351-.396-.542a13.73 13.73 0 0 0-.896-1.078 16.815 16.815 0 0 0-.37-.395l.797-.672c.129.107.278.251.448.432.17.181.34.37.51.568a10.449 10.449 0 0 1 .865 1.109l-.542.578h1.516v1.172h-4.63c.073 1.059.163 2.014.271 2.865.107.847.23 1.61.369 2.291.139.677.295 1.273.469 1.787.177.514.377.96.599 1.338.181.309.351.507.51.594.16.083.304.125.433.125a.388.388 0 0 0 .182-.047.528.528 0 0 0 .177-.177c.059-.087.118-.206.177-.359.059-.157.115-.356.167-.599a18.2 18.2 0 0 0 .151-.677c.049-.24.088-.499.12-.776l1.026.479Zm-5.917 1.005.016.542c-.479.076-1.065.164-1.756.265l-2.114.308c-.719.101-1.42.193-2.104.276-.684.087-1.266.156-1.745.208l-.193-1.167c.448-.055.965-.118 1.552-.187.591-.069 1.2-.146 1.828-.229v-4.198h-2.724v-1.136h6.662v1.136h-2.688v4.041a93.334 93.334 0 0 0 3.25-.494l.016.635Zm-82.568 28.484a14.41 14.41 0 0 0 2.38-1.76 11.971 11.971 0 0 0 1.803-2.047H86v-1.135h3.969v-5.089l1.198.047v5.042H95.5v1.135h-4.333v1.521l.687-.802a32.107 32.107 0 0 1 1.917 1.422c.364.288.715.576 1.052.864.337.289.616.551.839.787l-.657 1.041a30.738 30.738 0 0 0-.922-.88 31.528 31.528 0 0 0-1.02-.906c-.348-.295-.686-.57-1.016-.823-.33-.257-.623-.475-.88-.656v4.239h-1.198v-4.479a14.15 14.15 0 0 1-1.682 1.896 16.318 16.318 0 0 1-2.094 1.656l-.709-1.073Zm-.942-5.854a14.02 14.02 0 0 0-.448-.771 13.742 13.742 0 0 0-.573-.875 15.23 15.23 0 0 0-.604-.817 6.926 6.926 0 0 0-.542-.625l.948-.74c.15.16.326.368.531.625a26.807 26.807 0 0 1 1.198 1.63c.18.271.328.502.443.693l-.953.88Zm3.734.354a8.412 8.412 0 0 0-.432-.776 19.76 19.76 0 0 0-.578-.88 15.115 15.115 0 0 0-.61-.833 12.424 12.424 0 0 0-.526-.651l.88-.672c.16.17.34.383.542.64.205.254.411.527.62.818a20.5 20.5 0 0 1 1.031 1.568l-.927.786Zm6.776-3.14c-.115.211-.264.456-.448.734a21.922 21.922 0 0 1-1.203 1.667c-.201.253-.382.467-.542.64l-.89-.687c.16-.16.34-.367.541-.62.202-.257.401-.527.6-.812a22.218 22.218 0 0 0 .999-1.579l.943.657ZM90.5 180.855a66.79 66.79 0 0 0 2.901 0 69.14 69.14 0 0 0 2.755-.109l-.27 1.198a254.906 254.906 0 0 1-2.553.062c-.468.014-.927.021-1.375.021-.444 0-.83-.007-1.156-.021-.83-.021-1.55-.052-2.161-.093a8.736 8.736 0 0 1-1.657-.261 5.487 5.487 0 0 1-1.37-.568 6.615 6.615 0 0 1-1.286-1.005 75.457 75.457 0 0 1-1.312 1.433c-.17.18-.368.378-.594.593l-.844-.896c.438-.392.847-.774 1.23-1.145.385-.375.727-.744 1.025-1.105v-4.401h-1.729v-1.135H85v5.776a6.56 6.56 0 0 0 1.115.844 5.15 5.15 0 0 0 1.161.489 7.83 7.83 0 0 0 1.396.24c.517.045 1.127.073 1.828.083Zm10.943-6.995c.288-.406.567-.845.838-1.317.275-.476.538-.969.792-1.479.253-.511.483-1.026.687-1.547.205-.525.382-1.033.532-1.526l1.224.161c-.108.33-.224.658-.349.985-.122.326-.252.649-.391.968h6.359v1.151a22.38 22.38 0 0 1-1.281 2.657l-1.088-.401c.215-.351.413-.716.593-1.094.181-.379.356-.766.526-1.162h-5.625a34.407 34.407 0 0 1-.88 1.688 21.808 21.808 0 0 1-.958 1.557l-.979-.641Zm.276-5.546a33.532 33.532 0 0 1-1.25 3.328v10.682h-1.136v-8.458a29.695 29.695 0 0 1-1.375 2.109l-.849-.75a26.784 26.784 0 0 0 1.881-3.208c.305-.615.585-1.252.838-1.912.257-.663.476-1.325.656-1.984l1.235.193Zm4.281 4.224 1.167.031v7.932c0 .299-.033.55-.099.755a1.048 1.048 0 0 1-.328.511 1.512 1.512 0 0 1-.625.307 5.028 5.028 0 0 1-1 .135l-.808.068-.422-1.203.969-.062c.236-.011.429-.035.578-.073a.898.898 0 0 0 .354-.162.483.483 0 0 0 .172-.271c.028-.111.042-.251.042-.422v-7.546Zm-1.464 2.604a24.73 24.73 0 0 1-1.161 3.026 31.48 31.48 0 0 1-1.453 2.797l-1.031-.464c.236-.385.479-.807.729-1.266.253-.458.495-.934.724-1.427.232-.496.451-.998.656-1.505.205-.507.377-.989.516-1.448l1.02.287Zm4.73-.287c.201.33.423.742.666 1.235a42.702 42.702 0 0 1 1.401 3.099c.209.51.372.953.49 1.328l-.99.62a19.485 19.485 0 0 0-.484-1.386 33.545 33.545 0 0 0-.656-1.614 31.504 31.504 0 0 0-.719-1.568c-.243-.503-.462-.92-.656-1.25l.948-.464Zm5.916-3.14H114v-2.224h5.693a17.312 17.312 0 0 0-.224-.667 18.772 18.772 0 0 0-.193-.547l1.104-.208a44.911 44.911 0 0 1 .516 1.422h5.568v2.224h-1.188v-1.261h-10.094v1.261Zm3.901-.032c-.319.149-.718.318-1.198.506a44.975 44.975 0 0 1-3.031 1.057c-.507.153-.948.272-1.323.359l-.396-.963c.403-.077.858-.186 1.365-.328a33.055 33.055 0 0 0 1.526-.48c.514-.173 1-.354 1.458-.541a13.09 13.09 0 0 0 1.172-.537l.427.927Zm2.625-.88a57.147 57.147 0 0 1 2.834.844c.51.163.998.332 1.463.505.465.17.847.318 1.146.443l-.307 1.042c-.32-.171-.719-.351-1.198-.542a32.106 32.106 0 0 0-1.495-.563 36.576 36.576 0 0 0-2.792-.849l.349-.88Zm-.781 1.328a9.083 9.083 0 0 1-.307.651c-.125.25-.252.486-.38.709h5.536v9.104h-1.156v-.771h-8.813v.771h-1.151v-9.104h4.287c.17-.243.331-.516.484-.818.156-.305.278-.555.365-.75l1.135.208Zm3.693 2.323h-8.813v6.344h8.813v-6.344Zm-5.854 1.917c-.299.299-.608.582-.927.849-.32.264-.667.531-1.042.802l-.688-.708a11.613 11.613 0 0 0 1.808-1.308 8.471 8.471 0 0 0 1.328-1.468l.786.494c-.149.167-.293.32-.432.459h3.839v.864a9.35 9.35 0 0 1-1.646 1.802c.35.188.685.37 1.005.547.319.174.592.337.818.49l-.417 1.026a9.747 9.747 0 0 0-1.016-.698 25.715 25.715 0 0 0-1.271-.724c-.566.365-1.185.691-1.859.979-.67.285-1.422.554-2.255.807l-.479-.859a30.134 30.134 0 0 0 2.041-.661 10.058 10.058 0 0 0 1.61-.761c-.32-.153-.627-.297-.922-.432a12.807 12.807 0 0 0-.792-.344l.526-.776c.278.097.597.229.959.396.364.167.744.349 1.14.547.243-.187.471-.391.682-.61.216-.222.419-.46.61-.713h-3.406Zm22.567-6.88v12.672h-1.265v-1.428h-8.401v1.506h-1.261v-12.75h10.927Zm-1.265 10v-8.75h-8.401v8.75h8.401Zm11.265-8.844h-1.968v-1.037h1.968v-1.52l1.042.031v1.489h2.573v-1.52l1.052.031v1.489h2.417v1.037H156v1.042h-1.052v-1.042h-2.573v1.042h-1.042v-1.042Zm-2.395 5.932a6.685 6.685 0 0 0-.521-.828 14.655 14.655 0 0 0-.672-.88v7.62h-1.089V174.6a28.94 28.94 0 0 1-.87 1.964 21.724 21.724 0 0 1-.937 1.718l-.943-.619c.236-.361.479-.763.729-1.204.25-.444.495-.904.735-1.38.239-.479.463-.965.672-1.458.208-.497.387-.981.536-1.453h-1.937v-1.042h2.015v-2.989l1.089.031v2.958h1.682v1.042h-1.682v1.89l.302-.286c.121.104.259.243.411.417.153.17.302.35.448.541.146.188.287.374.422.558.139.18.254.34.344.479l-.734.812Zm5.421 2.391c.379.607.931 1.119 1.657 1.536.725.417 1.713.747 2.963.99l-.417 1.12c-1.25-.319-2.269-.708-3.057-1.167-.788-.458-1.41-1.017-1.864-1.677-.341.607-.889 1.146-1.646 1.615-.754.469-1.787.878-3.099 1.229l-.573-1.006c1.299-.298 2.288-.666 2.969-1.104.68-.437 1.142-.949 1.385-1.536h-3.604v-.99h3.891a.725.725 0 0 0 .02-.192 4.67 4.67 0 0 0 .016-.422v-.474h-3.042v-4.865h7.469v4.865h-3.276a6.92 6.92 0 0 0-.016.463c0 .16-.005.304-.015.433v.192h4.344v.99h-4.105ZM151 172.923v1.104h5.354v-1.104H151Zm0 3.052h5.354v-1.12H151v1.12Zm22.969 2.693a14.734 14.734 0 0 1-.354 1.63 4.488 4.488 0 0 1-.329.943 2.27 2.27 0 0 1-.39.583c-.139.143-.288.24-.448.292-.16.055-.325.083-.495.083-.365 0-.722-.12-1.073-.359-.35-.24-.708-.693-1.073-1.36-.416-.757-.783-1.849-1.099-3.276-.312-1.427-.527-3.22-.646-5.38h-7.729v-1.172h7.688l-.094-2.703 1.261.047c0 .278.005.655.015 1.13.011.476.028.985.052 1.526h2.761c-.118-.17-.25-.351-.396-.542a13.73 13.73 0 0 0-.896-1.078 16.815 16.815 0 0 0-.37-.395l.797-.672c.129.107.278.251.448.432.17.181.34.37.51.568a10.449 10.449 0 0 1 .865 1.109l-.542.578h1.516v1.172h-4.63c.073 1.059.163 2.014.271 2.865.107.847.23 1.61.369 2.291.139.677.295 1.273.469 1.787.177.514.377.96.599 1.338.181.309.351.507.51.594.16.083.304.125.433.125a.388.388 0 0 0 .182-.047.528.528 0 0 0 .177-.177c.059-.087.118-.206.177-.359.059-.157.115-.356.167-.599a18.2 18.2 0 0 0 .151-.677c.049-.24.088-.499.12-.776l1.026.479Zm-5.917 1.005.016.542c-.479.076-1.065.164-1.756.265l-2.114.308c-.719.101-1.42.193-2.104.276-.684.087-1.266.156-1.745.208l-.193-1.167c.448-.055.965-.118 1.552-.187.591-.069 1.2-.146 1.828-.229v-4.198h-2.724v-1.136h6.662v1.136h-2.688v4.041a93.334 93.334 0 0 0 3.25-.494l.016.635Zm-72.39 32.385a72.81 72.81 0 0 1-2.657-.25 27.71 27.71 0 0 1-2.15-.323 15.551 15.551 0 0 1-1.725-.421c-.51-.16-.99-.346-1.437-.558-.566.438-1.294.818-2.183 1.141-.889.327-2 .644-3.333.953l-.48-1.073a38.032 38.032 0 0 0 2.949-.797c.781-.257 1.429-.545 1.942-.864a12.082 12.082 0 0 1-1.218-.933 28.404 28.404 0 0 1-1.26-1.192l.64-.578h-1.234v-5.98h4.755v-1.349h-5.938v-1.072h13.042v1.072h-5.89v1.349h4.708v5.98h-4.771a5.97 5.97 0 0 1-.297 1.385c-.142.41-.342.785-.599 1.125.427.181.89.339 1.39.474.504.132 1.056.247 1.657.344.604.093 1.266.17 1.984.229a41.98 41.98 0 0 0 2.396.12l-.291 1.218Zm-10.959-9.901v1.667h3.568v-1.667h-3.568Zm4.781 0v1.667h3.537v-1.667h-3.537Zm-4.78 3.98h3.567v-1.339h-3.568v1.339Zm8.317 0v-1.339h-3.537v1.339h3.537Zm-8 1.026c.382.403.767.769 1.156 1.099a8.54 8.54 0 0 0 1.26.869 3.12 3.12 0 0 0 .506-.88 5.04 5.04 0 0 0 .265-1.088h-3.187Zm22.974.875c.521.601 1.114 1.17 1.781 1.708a22.088 22.088 0 0 0 2.266 1.588l-.802 1.073a26.445 26.445 0 0 1-2.224-1.672 14.943 14.943 0 0 1-1.761-1.75 14.45 14.45 0 0 1-1.896 1.761 26.246 26.246 0 0 1-2.505 1.708l-.75-1.052a22.6 22.6 0 0 0 2.568-1.646 12.112 12.112 0 0 0 1.849-1.698 13.206 13.206 0 0 1-1.141-1.968 11.454 11.454 0 0 1-.734-2.162 20.53 20.53 0 0 1-.37.578c-.125.191-.252.377-.38.558l-.781-.86c.309-.427.607-.901.895-1.422.289-.524.553-1.066.792-1.625.24-.562.451-1.126.636-1.692a12.92 12.92 0 0 0 .427-1.615l1.166.24c-.104.403-.219.805-.343 1.208-.122.399-.257.795-.407 1.187h5.297v1.157h-1.39c-.174 1.333-.431 2.517-.771 3.552a10.732 10.732 0 0 1-1.422 2.844Zm-4.354 1.427a5.37 5.37 0 0 1-.37.182c-.195.09-.424.198-.688.323-.26.121-.543.255-.849.401-.305.142-.599.281-.88.417a585.04 585.04 0 0 0-1.224.578l-.52.286c-.15.087-.332.205-.547.354l-.568-1.166c.225-.191.368-.337.427-.438a.726.726 0 0 0 .094-.38v-5.948h3.27v-3.667h-3.599v-1.198H103v6h-3.333v4.766c.076-.031.21-.094.401-.187.194-.097.422-.207.682-.329.26-.125.533-.253.818-.385.284-.135.555-.26.812-.375.261-.118.488-.222.682-.312l.386-.188.193 1.266Zm1.791-6.98c.288 1.761.896 3.302 1.823 4.625a9.344 9.344 0 0 0 1.177-2.479c.275-.885.474-1.882.599-2.989h-3.213c-.052.149-.111.29-.177.422a14.77 14.77 0 0 1-.209.421Zm12.084-4.088a46.53 46.53 0 0 1-.563 1.713 27.958 27.958 0 0 1-.62 1.631v10.75h-1.135v-8.464c-.448.771-.96 1.507-1.537 2.208l-.911-.796a18.499 18.499 0 0 0 2.24-3.521 21.548 21.548 0 0 0 1.406-3.735l1.12.214Zm8.302 5.427h-7.407v-5.031h7.407v5.031Zm-1.203-3.911h-5.006v2.791h5.006v-2.791Zm-1.761 6.739a11.293 11.293 0 0 0 2.042 2.083 15.33 15.33 0 0 0 2.76 1.724l-.734 1.042a15.08 15.08 0 0 1-2.438-1.682 14.327 14.327 0 0 1-1.854-1.938v4.563h-1.135v-4.511c-.243.341-.504.664-.781.969-.278.302-.587.602-.928.901-.34.299-.715.596-1.125.891a18.06 18.06 0 0 1-1.385.885l-.776-.989a14.985 14.985 0 0 0 2.667-1.756 10.29 10.29 0 0 0 2.01-2.182h-4.016v-1.068h4.334v-1.317l1.135.067v1.25H127v1.068h-4.146Zm11.604-5.828a19.463 19.463 0 0 1-2.02 3.354v8.396h-1.152v-7.036c-.319.34-.656.682-1.01 1.026-.351.34-.724.68-1.12 1.02l-.812-.942a20.87 20.87 0 0 0 2.62-2.657 17.532 17.532 0 0 0 2.067-3.161h-3.698v-1.089h4.224c.25-.565.476-1.168.677-1.807l1.261.209c-.17.531-.361 1.063-.573 1.598h7.599v1.089h-8.063Zm8.396 7h-4.14l.02 2.703c0 .354-.029.647-.088.88a1.093 1.093 0 0 1-.328.568c-.16.146-.384.255-.672.328a6.87 6.87 0 0 1-1.136.177l-.916.078-.401-1.151 1.088-.093c.275-.021.495-.051.662-.089a.862.862 0 0 0 .385-.177.533.533 0 0 0 .172-.302c.028-.125.042-.289.042-.49l-.016-2.432h-4.177v-1.104h4.177v-1.182l2.385-1.714h-5.614v-1.057h7.489v1.057l-3.072 2.255v.641h4.14v1.104Zm6.094-9.599a48.717 48.717 0 0 1-.62 1.787 31.665 31.665 0 0 1-.661 1.635v10.615h-1.151v-8.381a22.181 22.181 0 0 1-1.605 2.344l-.942-.838a24.403 24.403 0 0 0 2.146-3.454 22.697 22.697 0 0 0 1.567-3.916l1.266.208Zm9.432 3.599h-9.344v-1.135h4.24a9.483 9.483 0 0 0-.198-.631c-.08-.229-.163-.452-.25-.671-.087-.219-.168-.423-.245-.61a14.15 14.15 0 0 0-.172-.427l1.12-.318c.052.118.127.292.224.521.097.229.193.478.287.745.097.267.187.526.27.776l.214.615h3.854v1.135Zm.287 8.599v1.135h-10.078v-1.135h5.026c.194-.507.402-1.104.625-1.792.225-.687.441-1.39.645-2.109.209-.722.4-1.429.573-2.12a31.36 31.36 0 0 0 .412-1.802l1.26.255a32.241 32.241 0 0 1-.422 1.703c-.177.649-.369 1.32-.578 2.011-.208.691-.422 1.375-.64 2.052a35.085 35.085 0 0 1-.631 1.802h3.808Zm-6.927-.995c-.052-.427-.146-.93-.282-1.51-.132-.58-.283-1.17-.453-1.771a40.814 40.814 0 0 0-.531-1.734 18.29 18.29 0 0 0-.51-1.401l1.119-.318c.16.371.33.833.511 1.385a41.861 41.861 0 0 1 .984 3.453c.135.563.229 1.045.281 1.448l-1.119.448Zm21.281-7.937h-11.615v-3.037h11.615v3.037Zm-10.495-.818h2.479v-1.401h-2.479v1.401Zm3.505-1.401v1.401h2.396v-1.401h-2.396Zm5.886 0h-2.464v1.401h2.464v-1.401Zm2.416 11.552v.948h-14.224v-.948h2.287v-6.667h4.255v-.786h-5.839v-.88h5.839v-.813l1.141.047v.766h5.823v.88h-5.823v.786h4.239v6.667h2.302Zm-10.765-5.786v.786h7.291v-.786h-7.291Zm7.291 1.505h-7.291v.948h7.291v-.948Zm-7.291 1.666v.907h7.291v-.907h-7.291Zm0 2.615h7.291v-.99h-7.291v.99Zm-71.563 20.469v2.198h3.313v1.119H87.62v-1.119h3.187v-2.198h-3.474v-1.136h3.474v-2.192l1.198.047v2.145h3.969v1.136h-3.969Zm-9.104 2.552c-.094.007-.194.015-.302.026a3.82 3.82 0 0 0-.401.052l-.24-1.12c.15-.052.26-.104.334-.156a1.1 1.1 0 0 0 .245-.276c.149-.201.328-.47.536-.807a28.047 28.047 0 0 0 1.276-2.355c.208-.434.392-.844.552-1.229l.995.417a32.677 32.677 0 0 1-1.161 2.323c-.22.396-.431.766-.636 1.109a8.843 8.843 0 0 1-.542.834c.077 0 .2-.005.37-.016.17-.014.36-.026.568-.037a93.754 93.754 0 0 0 1.13-.062c.115-.195.23-.394.349-.599.118-.208.236-.427.354-.656l.927.416c-.246.483-.5.962-.76 1.438-.26.472-.52.922-.776 1.349-.257.423-.505.817-.745 1.182s-.46.682-.662.953l2.797-.411.032 1.13a11.7 11.7 0 0 1-.36.052 23.13 23.13 0 0 0-.614.083c-.236.031-.493.07-.771.115l-.781.12c-.247.038-.47.074-.672.109-.202.031-.346.052-.433.063a16.4 16.4 0 0 0-.463.067 2.5 2.5 0 0 0-.464.115l-.255-1.161a2 2 0 0 0 .484-.214c.105-.069.214-.179.329-.328.333-.41.649-.83.947-1.261.3-.434.598-.903.896-1.406l-.593.037c-.212.014-.417.026-.615.036-.198.011-.377.023-.536.037-.16.01-.273.02-.339.031Zm5.073 2.594h6.896v6.104h-1.198v-1.052h-4.516v1.052h-1.182v-6.104Zm1.182 1.088v2.875h4.516v-2.875h-4.516Zm-1.614 2.688.015.411a78.717 78.717 0 0 1-2.87.537c-.538.09-1.059.175-1.562.255-.5.08-.925.141-1.276.182l-.13-1.135c.35-.042.781-.105 1.291-.188a101.38 101.38 0 0 0 1.589-.271 78.275 78.275 0 0 0 1.594-.312c.517-.111.951-.212 1.302-.302l.047.823Zm18.312-3.5c.674.736 1.514 1.46 2.521 2.172 1.007.708 2.193 1.338 3.557 1.89l-.604 1.104c-1.399-.67-2.595-1.357-3.588-2.062-.99-.705-1.832-1.451-2.526-2.24v4.912h-1.198v-4.896c-.695.767-1.54 1.514-2.537 2.239-.996.726-2.173 1.408-3.531 2.047l-.688-1.119c1.334-.553 2.507-1.183 3.521-1.891 1.014-.712 1.879-1.431 2.594-2.156H99.12v-4.287h4.896v-1.651H98v-1.135h6.016v-1.599l1.198.047v1.552h6v1.135h-6v1.651h4.88v4.287h-4.24Zm-5.552-1.026h3.714v-2.224h-3.714v2.224Zm4.912-2.224v2.224h3.697v-2.224h-3.697Zm12.974 4.453a15.605 15.605 0 0 0-.303-.495 6.521 6.521 0 0 0-.38-.552 63.446 63.446 0 0 0-.422-.563 8.76 8.76 0 0 0-.401-.505v6.656h-1.021v-6.703a22.178 22.178 0 0 1-.838 1.927 18.02 18.02 0 0 1-.969 1.724l-.963-.666c.288-.389.562-.801.823-1.235.263-.434.51-.875.739-1.323a20.55 20.55 0 0 0 1.115-2.64h-2.037v-1.136h2.13v-2.151a18.676 18.676 0 0 1-1.968.276l-.224-1.067c.33-.021.724-.068 1.182-.141a26.177 26.177 0 0 0 2.75-.589c.438-.118.811-.227 1.12-.328l.234 1.131c-.264.079-.576.164-.937.255-.358.087-.736.17-1.136.25v2.364h1.985v1.136h-1.985v1.604l.448-.385c.132.128.281.289.448.484.167.191.339.397.516.62.18.219.349.432.505.64.16.205.286.389.38.552l-.791.86Zm7.953-4.792h-6.797v-4.302h6.797v4.302Zm-1.136-3.26h-4.573v2.234h4.573v-2.234Zm2.339 10.625v1.151h-9.365v-1.151h4.182v-1.896h-2.911v-1.104h2.911v-1.896h-3.338v-1.104h8.026v1.104h-3.552v1.896h3.036v1.104h-3.036v1.896h4.047Zm15.484-11.026v1.135h-11.146v3.849a29 29 0 0 1-.099 2.583 12.26 12.26 0 0 1-.317 1.964c-.15.587-.342 1.146-.578 1.677a17.685 17.685 0 0 1-.881 1.708l-1.041-.557c.343-.563.626-1.094.849-1.594a9.574 9.574 0 0 0 .546-1.578 10.97 10.97 0 0 0 .287-1.807 29.14 29.14 0 0 0 .078-2.271v-5.109h5.677a29.576 29.576 0 0 0-.495-1.459l1.183-.224c.083.184.178.439.286.766l.307.917h5.344Zm-4.739 6.359h4.578v1.042a29.29 29.29 0 0 1-1.506 2.812l-1.104-.479c.247-.361.479-.736.698-1.125.219-.393.434-.785.646-1.177h-3.359v3.484c0 .375-.039.674-.115.896a1.097 1.097 0 0 1-.359.537 1.423 1.423 0 0 1-.646.281 8.2 8.2 0 0 1-.974.13l-1.057.078-.386-1.12 1.183-.078c.256-.01.46-.032.609-.067a.835.835 0 0 0 .349-.146.451.451 0 0 0 .172-.276c.028-.122.041-.291.041-.506v-3.213h-4.687v-1.073h4.594a31.217 31.217 0 0 0-1.313-1 50.643 50.643 0 0 0-1.234-.875l.64-.729a62.417 62.417 0 0 1 2.334 1.583l.729-.474.807-.536c.268-.177.518-.346.75-.505.236-.163.429-.299.578-.407h-7.166v-1.057h8.927v1.089c-.139.107-.363.27-.672.489-.309.215-.648.448-1.016.698-.368.247-.739.493-1.114.74-.372.246-.686.456-.943.63.031.035.062.066.094.094l.099.067-.177.193Zm-49.75 25.365a9.088 9.088 0 0 0 1.192-1.584c.316-.538.603-1.088.86-1.651l1.213.209a18.296 18.296 0 0 1-.672 1.328h4.61v.994h-2.813a16.19 16.19 0 0 1 .89 1.25l-.843.521a4.49 4.49 0 0 0-.24-.385 10.942 10.942 0 0 0-.677-.938 15.604 15.604 0 0 1-.349-.448h-1.166c-.299.413-.63.816-.995 1.209l-1.01-.505Zm-3.855-.704a15.42 15.42 0 0 1-1.744 1.943l-.927-.609c.308-.295.599-.608.87-.938.274-.333.527-.667.76-1 .236-.337.448-.666.635-.989.188-.327.344-.627.469-.901l1.266.224-.329.64a7.59 7.59 0 0 1-.375.636h3.683v.994H86.26c.14.215.28.45.422.704.146.25.273.47.38.661l-1.01.438a8.819 8.819 0 0 0-.474-.959c-.09-.159-.18-.31-.27-.453l-.246-.391h-.578Zm11.204 4.646v1.026H81.666v-1.026h6.385v-1.64h-4.927v-.964h4.927v-.88l1.25.078v.802h4.911v.964h-4.91v1.64h6.385Zm-3.329 2.318h2.579v1.042h-2.579v1.937c0 .371-.038.675-.114.912a1.076 1.076 0 0 1-.401.567c-.191.143-.459.254-.802.334-.34.083-.776.146-1.308.187l-.927.078-.385-1.135 1.182-.094c.33-.035.594-.071.792-.109a1 1 0 0 0 .458-.183.56.56 0 0 0 .209-.322 2.51 2.51 0 0 0 .046-.542v-1.63h-5.921c.204.118.427.257.666.416.24.16.481.325.724.495.247.17.481.342.703.516.226.17.419.324.578.463l-.671 1.068a7.853 7.853 0 0 0-.615-.578 16.13 16.13 0 0 0-.745-.589 22.14 22.14 0 0 0-1.422-.974l.573-.817h-2.578v-1.042h8.708v-.99l1.25.047v.943Zm9.834-8.703c-.216.305-.478.64-.787 1.005-.309.361-.642.728-1 1.099a40.66 40.66 0 0 1-1.099 1.099c-.375.357-.732.68-1.073.969l-.786-.901c.344-.264.701-.57 1.073-.917.375-.347.736-.703 1.083-1.068.347-.368.674-.731.979-1.088.306-.358.554-.681.745-.969l.865.771Zm9.474 4.38v1.089h-10.032v-1.089h4.193v-1.969h-3.203v-1.104h3.203v-1.979l1.245.047v1.932h3.552v1.104h-3.552v1.969h4.594Zm-9.636-.854c-.18.33-.385.667-.614 1.01-.229.344-.479.693-.75 1.047v8.141h-1.12v-6.729c-.278.309-.56.611-.85.906-.287.295-.57.566-.848.812l-.734-.911c.33-.281.684-.618 1.062-1.01a21.482 21.482 0 0 0 2.13-2.573c.316-.445.587-.861.813-1.25l.911.557Zm7.125 3.797h2.11v1.088h-2.11v3.12c0 .375-.028.683-.083.922a1.09 1.09 0 0 1-.318.583c-.16.149-.387.261-.682.334-.295.076-.682.13-1.162.161l-.843.063-.37-1.115.943-.068c.288-.021.517-.052.687-.093a.85.85 0 0 0 .391-.193.632.632 0 0 0 .177-.344c.028-.146.042-.33.042-.552v-2.818h-5.964v-1.088h5.964v-1.313l1.218.047v1.266Zm-5.567 1.396c.138.128.305.291.5.489.197.195.397.4.599.615.201.211.392.42.572.625.184.201.336.382.454.541l-.813.974a10.471 10.471 0 0 0-.463-.63 26.155 26.155 0 0 0-.563-.687 11.981 11.981 0 0 0-.578-.646 9.901 9.901 0 0 0-.495-.5l.787-.781Zm23.635-8.308v1.203h-6.688v12.032h-1.281V260.36h-5.922v-1.203h13.891Zm-5.651 3.396c.33.243.705.532 1.125.865a42.308 42.308 0 0 1 2.448 2.062c.375.341.684.639.927.896l-.771 1.12a19.986 19.986 0 0 0-1.016-1.037c-.388-.375-.79-.746-1.203-1.114a42.16 42.16 0 0 0-1.208-1.047 14.081 14.081 0 0 0-1.068-.833l.766-.912Zm16.958.307c.139 1.715.347 3.184.625 4.407.379-.552.719-1.139 1.021-1.761.302-.621.576-1.3.823-2.036l1.047.411a24.667 24.667 0 0 1-1.146 2.604 15.383 15.383 0 0 1-1.37 2.172c.17.514.337.95.5 1.308.16.354.302.6.427.739s.262.209.412.209c.149 0 .262-.101.338-.303.077-.205.157-.54.24-1.005.055-.257.09-.472.104-.646.017-.177.037-.394.057-.651l1.068.464c-.01.149-.021.273-.031.37a4.39 4.39 0 0 1-.042.286l-.057.328c-.021.122-.052.285-.094.49a7.05 7.05 0 0 1-.286.984 2.045 2.045 0 0 1-.349.61 1.052 1.052 0 0 1-.438.312c-.16.059-.33.089-.51.089a1.51 1.51 0 0 1-.985-.355c-.284-.236-.564-.646-.838-1.229a11.08 11.08 0 0 1-.391-.942c-.34.375-.706.748-1.099 1.119-.392.375-.819.749-1.281 1.12l-.828-.927a20.868 20.868 0 0 0 1.536-1.271c.462-.42.886-.856 1.271-1.307a24.5 24.5 0 0 1-.567-2.526 31.525 31.525 0 0 1-.37-3.063h-8.396v-1.036h3.703v-1.359h-2.891v-.974h2.891v-1.568l1.125.047v1.521h2.781v.974h-2.781v1.359h3.505a4.903 4.903 0 0 1-.015-.38c0-.125-.007-.257-.021-.396l-.11-3.24 1.162.047.146 3.401c.01.101.015.198.015.292 0 .094.006.186.016.276H143v1.036h-4.469Zm2.761-1.442c-.188-.236-.384-.47-.589-.703a8.32 8.32 0 0 0-.62-.657 11.378 11.378 0 0 0-.604-.547 17.088 17.088 0 0 0-.5-.406l.729-.719c.278.191.629.478 1.052.86.427.382.841.813 1.24 1.292l-.708.88Zm-4.636 8.39c-.284.042-.649.082-1.094.12-.444.035-.932.08-1.463.136v2.224h-1.141v-2.125c-.413.031-.821.063-1.224.098l-1.161.089c-.372.024-.715.045-1.031.063l-.828.036-.131-1.036c.257 0 .552-.007.886-.021.333-.017.691-.04 1.073-.068.382-.028.776-.054 1.182-.078.41-.028.821-.059 1.234-.094v-1.182h-3.005v-.979c.379-.615.722-1.224 1.031-1.828h-1.698v-1.006h2.24c.115-.205.215-.396.302-.573.087-.177.172-.352.255-.526l1.099.261a31.021 31.021 0 0 1-.416.838h3.974v1.006h-4.48c-.149.291-.3.583-.453.875a21.13 21.13 0 0 1-.515.921h1.666v-1.166l1.141.047v1.119h2.463v1.011h-2.463v1.088c.531-.052 1.016-.097 1.453-.135.441-.038.804-.078 1.089-.12l.015 1.005Zm21.172-9.338a404.27 404.27 0 0 1-.078 3.812c-.01.525-.024 1.061-.042 1.61l-.052 1.604c-.014.524-.029 1.019-.047 1.484a42.13 42.13 0 0 1-.052 1.219 3.88 3.88 0 0 1-.13.849 1.265 1.265 0 0 1-.307.557 1.276 1.276 0 0 1-.558.323c-.225.069-.513.12-.864.151l-1.359.115-.381-1.219 1.532-.094c.26-.021.458-.095.593-.224.139-.128.224-.4.256-.817a71.32 71.32 0 0 0 .088-1.969 229.197 229.197 0 0 0 .12-4.479c.01-.705.021-1.299.031-1.782l-3.599.016c-.149.354-.304.705-.463 1.052-.157.344-.323.688-.5 1.031l-1.073-.578c.462-.791.88-1.671 1.255-2.64.375-.969.679-1.924.911-2.865l1.151.24a43.67 43.67 0 0 1-.401 1.323 28 28 0 0 1-.437 1.281h4.406Zm-8.849-2.432c-.087.354-.189.743-.307 1.166-.115.42-.252.854-.412 1.302h2.48v11.318h-5.459v-11.318h1.646c.16-.427.299-.869.417-1.328.118-.462.231-.932.338-1.411l1.297.271Zm.641 3.619h-3.219v3.834h3.219v-3.834Zm4.687 6.365a26.144 26.144 0 0 0-1.146-2.141 34.694 34.694 0 0 0-1.046-1.666l.927-.646c.361.483.743 1.054 1.146 1.713.402.66.779 1.344 1.13 2.052l-1.011.688Zm-4.687 2.682v-4.047h-3.219v4.047h3.219Zm21.797-2.224c.757 1.083 1.791 2.122 3.104 3.115l-.833.864a19.066 19.066 0 0 1-1.631-1.463 13.579 13.579 0 0 1-1.281-1.495 11.186 11.186 0 0 1-1.391 1.516 20.95 20.95 0 0 1-1.885 1.526l-.74-.896a15.765 15.765 0 0 0 1.969-1.531 8.544 8.544 0 0 0 1.375-1.625 12.316 12.316 0 0 1-1-2.266 16.713 16.713 0 0 1-.583-2.531c-.084.149-.172.302-.266.458-.09.153-.182.304-.276.453l-.901-.578a10.7 10.7 0 0 0 .839-1.38c.264-.507.5-1.026.708-1.557a18.206 18.206 0 0 0 .891-3.063l1.119.276a18.567 18.567 0 0 1-.671 2.287h4.156v1.151h-1.089a39.62 39.62 0 0 1-.224 2.041 19.387 19.387 0 0 1-.312 1.766 12.496 12.496 0 0 1-.448 1.547 9.007 9.007 0 0 1-.63 1.385Zm-11.552-3.432a11.353 11.353 0 0 0 1.968-1.234 12.193 12.193 0 0 0 1.537-1.433h-3.005v-.979h3.276v-3.276l1.073.063v3.213h2.88v.979h-2.88v2.974h-1.073v-1.969c-.407.473-.874.921-1.401 1.344-.528.42-1.127.814-1.797 1.183l-.578-.865Zm7.536-6.151c-.073.17-.163.356-.271.557-.107.201-.222.406-.344.615a10.537 10.537 0 0 1-.729 1.094l-.802-.448c.097-.125.205-.278.323-.459.118-.184.233-.373.344-.567.111-.195.217-.396.318-.605.104-.208.192-.404.265-.588l.896.401Zm-5.437 2.25c-.053-.17-.119-.359-.198-.568a8.123 8.123 0 0 0-.266-.614 11.767 11.767 0 0 0-.286-.573 16.718 16.718 0 0 0-.256-.485l.844-.317a9.076 9.076 0 0 1 .542 1.031c.097.208.187.42.271.635.086.212.163.408.229.589l-.88.302Zm7.322 1.047c.115 1.017.285 1.948.511 2.791.226.844.536 1.641.932 2.391a11.1 11.1 0 0 0 .797-2.516c.181-.909.325-1.949.432-3.119h-2.479l-.193.453Zm-2.38 3.422a22.259 22.259 0 0 0-.984-1.115 15.396 15.396 0 0 0-1.031-1l.64-.594c.278.215.603.507.974.875.375.368.722.733 1.042 1.094l-.641.74Zm-.432 5.932a17.133 17.133 0 0 0-.927-.521c-.32-.163-.646-.332-.979-.505a9.942 9.942 0 0 1-1.651.979c-.643.309-1.434.618-2.375.927l-.563-1.005a23.098 23.098 0 0 0 2.052-.698 9.71 9.71 0 0 0 1.479-.729 27.292 27.292 0 0 0-2.38-1.021 43.083 43.083 0 0 0 .88-1.521h-1.854v-.963h2.334c.097-.209.185-.408.265-.599.08-.195.151-.379.214-.552l1.026.343-.162.412c-.052.132-.106.264-.161.396H167v.916c-.212.448-.441.87-.688 1.266a6.09 6.09 0 0 1-.895 1.115c.236.118.475.232.718.343.247.111.504.231.771.36l-.432 1.057Zm-3.891-2.958.881.359c.298.121.614.257.947.406.32-.277.589-.571.808-.88a7.29 7.29 0 0 0 .599-1.021h-2.61a7.47 7.47 0 0 1-.302.584 35.02 35.02 0 0 1-.323.552Zm25.594-6.412h-10.578v-3.687h10.578v3.687Zm-9.359-2.906v.833h8.156v-.833h-8.156Zm8.156 2.187v-.635h-8.156v.635h8.156ZM190 262.98v.844h-14.224v-.844H190Zm-6.526 8.177h6.187v.849h-13.546v-.849h6.203v-.817h-5.12v-.849h5.12v-.985h-4.735v-3.734h10.594v3.734h-4.703v.985h5.104v.849h-5.104v.817Zm-4.688-5.666v.666h3.532v-.666h-3.532Zm8.188 0h-3.5v.666h3.5v-.666Zm-4.656 2.229v-.844h-3.532v.844h3.532Zm4.656 0v-.844h-3.5v.844h3.5Zm-91.083 21.437v1.203h-6.688v12.032h-1.281V290.36H82v-1.203h13.89Zm-5.651 3.396c.33.243.705.532 1.125.865a42.451 42.451 0 0 1 2.448 2.062c.374.341.683.639.927.896l-.771 1.12a20.094 20.094 0 0 0-1.016-1.037c-.389-.375-.79-.746-1.203-1.114a43.43 43.43 0 0 0-1.208-1.047 14.284 14.284 0 0 0-1.068-.833l.766-.912Zm16.958.307c.139 1.715.347 3.184.625 4.407.378-.552.719-1.139 1.021-1.761.302-.621.576-1.3.823-2.036l1.047.411a24.667 24.667 0 0 1-1.146 2.604c-.4.767-.856 1.491-1.37 2.172.17.514.337.95.5 1.308.16.354.302.6.427.739s.262.209.411.209c.15 0 .263-.101.339-.303.076-.205.156-.54.24-1.005.055-.257.09-.472.104-.646.017-.177.036-.394.057-.651l1.068.464a10.15 10.15 0 0 1-.032.37c-.01.093-.024.189-.041.286a20.381 20.381 0 0 1-.151.818c-.09.399-.186.727-.287.984-.1.257-.217.461-.349.61a1.043 1.043 0 0 1-.437.312c-.16.059-.33.089-.511.089-.368 0-.696-.118-.984-.355-.285-.236-.564-.646-.838-1.229a11.08 11.08 0 0 1-.391-.942c-.34.375-.707.748-1.099 1.119-.392.375-.819.749-1.281 1.12l-.828-.927a20.868 20.868 0 0 0 1.536-1.271c.462-.42.885-.856 1.271-1.307a24.486 24.486 0 0 1-.568-2.526 32.159 32.159 0 0 1-.37-3.063h-8.395v-1.036h3.703v-1.359h-2.891v-.974h2.891v-1.568l1.125.047v1.521h2.781v.974h-2.781v1.359h3.505a4.457 4.457 0 0 1-.016-.38c0-.125-.007-.257-.021-.396l-.109-3.24 1.162.047.145 3.401c.011.101.016.198.016.292 0 .094.005.186.016.276h4.552v1.036h-4.469Zm2.76-1.442a17.8 17.8 0 0 0-.588-.703 8.51 8.51 0 0 0-.62-.657c-.208-.201-.41-.384-.604-.547a18.541 18.541 0 0 0-.5-.406l.729-.719c.278.191.629.478 1.052.86.427.382.84.813 1.24 1.292l-.709.88Zm-4.635 8.39c-.285.042-.649.082-1.094.12-.444.035-.932.08-1.463.136v2.224h-1.141v-2.125c-.413.031-.821.063-1.224.098l-1.161.089c-.372.024-.716.045-1.032.063l-.828.036-.13-1.036c.257 0 .552-.007.885-.021.334-.017.691-.04 1.073-.068a83.11 83.11 0 0 1 1.183-.078c.409-.028.821-.059 1.234-.094v-1.182H98.62v-.979c.378-.615.722-1.224 1.031-1.828h-1.698v-1.006h2.24c.114-.205.215-.396.302-.573.087-.177.172-.352.255-.526l1.099.261a22.78 22.78 0 0 1-.214.437l-.203.401h3.974v1.006h-4.479c-.149.291-.3.583-.453.875-.153.291-.325.598-.516.921h1.667v-1.166l1.141.047v1.119h2.463v1.011h-2.463v1.088c.531-.052 1.015-.097 1.453-.135a18.64 18.64 0 0 0 1.088-.12l.016 1.005ZM126 297.663h-5.333v4.703h-1.282v-4.703h-5.302v-6.766h5.302v-3.104l1.282.062v3.042H126v6.766Zm-6.615-1.183v-4.401h-4.052v4.401h4.052Zm5.386-4.401h-4.104v4.401h4.104v-4.401Zm17.39-1.609c-.02 1.319-.046 2.59-.078 3.812-.01.525-.024 1.061-.041 1.61l-.052 1.604a150.874 150.874 0 0 1-.099 2.703 3.873 3.873 0 0 1-.131.849 1.265 1.265 0 0 1-.307.557 1.272 1.272 0 0 1-.557.323 4.33 4.33 0 0 1-.865.151l-1.359.115-.38-1.219 1.531-.094c.26-.021.458-.095.594-.224.139-.128.224-.4.255-.817.035-.566.064-1.222.088-1.969a229.197 229.197 0 0 0 .12-4.479c.011-.705.021-1.299.031-1.782l-3.599.016a34.17 34.17 0 0 1-.463 1.052c-.156.344-.323.688-.5 1.031l-1.073-.578c.462-.791.88-1.671 1.255-2.64.375-.969.679-1.924.912-2.865l1.151.24c-.129.448-.262.889-.401 1.323-.136.43-.282.857-.438 1.281h4.406Zm-8.849-2.432a36.15 36.15 0 0 1-.307 1.166c-.114.42-.252.854-.411 1.302h2.479v11.318h-5.458v-11.318h1.645c.16-.427.299-.869.417-1.328.118-.462.231-.932.339-1.411l1.296.271Zm.641 3.619h-3.219v3.834h3.219v-3.834Zm4.688 6.365a26.144 26.144 0 0 0-1.146-2.141 35.432 35.432 0 0 0-1.047-1.666l.927-.646c.361.483.743 1.054 1.146 1.713.403.66.779 1.344 1.13 2.052l-1.01.688Zm-4.688 2.682v-4.047h-3.219v4.047h3.219Zm21.797-2.224c.757 1.083 1.792 2.122 3.104 3.115l-.833.864a19.046 19.046 0 0 1-1.63-1.463c-.48-.486-.907-.984-1.282-1.495a11.241 11.241 0 0 1-1.39 1.516 20.973 20.973 0 0 1-1.886 1.526l-.739-.896a15.823 15.823 0 0 0 1.968-1.531 8.55 8.55 0 0 0 1.376-1.625 12.182 12.182 0 0 1-1-2.266 16.712 16.712 0 0 1-.584-2.531 20.228 20.228 0 0 1-.542.911l-.901-.578c.299-.413.579-.873.839-1.38.264-.507.5-1.026.708-1.557.209-.535.387-1.066.537-1.594.149-.531.267-1.021.354-1.469l1.12.276a19.326 19.326 0 0 1-.672 2.287h4.156v1.151h-1.088a41.975 41.975 0 0 1-.224 2.041 19.727 19.727 0 0 1-.313 1.766 12.325 12.325 0 0 1-.448 1.547 8.82 8.82 0 0 1-.63 1.385Zm-11.552-3.432a11.401 11.401 0 0 0 1.969-1.234 12.252 12.252 0 0 0 1.536-1.433h-3.005v-.979h3.276v-3.276l1.073.063v3.213h2.88v.979h-2.88v2.974h-1.073v-1.969c-.406.473-.873.921-1.401 1.344-.528.42-1.127.814-1.797 1.183l-.578-.865Zm7.536-6.151c-.073.17-.163.356-.27.557-.108.201-.223.406-.344.615-.122.208-.247.408-.375.599a9.949 9.949 0 0 1-.354.495l-.802-.448c.097-.125.204-.278.322-.459.118-.184.233-.373.344-.567.111-.195.217-.396.318-.605.104-.208.193-.404.266-.588l.895.401Zm-5.437 2.25a8.84 8.84 0 0 0-.464-1.182 10.926 10.926 0 0 0-.286-.573 19.892 19.892 0 0 0-.255-.485l.843-.317a9.206 9.206 0 0 1 .542 1.031c.097.208.188.42.271.635.087.212.163.408.229.589l-.88.302Zm7.323 1.047c.114 1.017.285 1.948.51 2.791.226.844.537 1.641.932 2.391.355-.771.62-1.609.797-2.516.181-.909.325-1.949.433-3.119h-2.48l-.192.453Zm-2.38 3.422a22.285 22.285 0 0 0-.985-1.115 15.396 15.396 0 0 0-1.031-1l.641-.594c.277.215.602.507.974.875.375.368.722.733 1.041 1.094l-.64.74Zm-.433 5.932a16.403 16.403 0 0 0-.927-.521c-.319-.163-.646-.332-.979-.505a9.901 9.901 0 0 1-1.651.979c-.642.309-1.434.618-2.375.927l-.563-1.005a23.242 23.242 0 0 0 2.053-.698 9.804 9.804 0 0 0 1.479-.729 27.557 27.557 0 0 0-2.38-1.021 50.368 50.368 0 0 0 .88-1.521h-1.854v-.963h2.333c.097-.209.186-.408.266-.599.079-.195.151-.379.213-.552l1.026.343-.161.412c-.052.132-.106.264-.162.396h3.328v.916c-.212.448-.441.87-.687 1.266a6.097 6.097 0 0 1-.896 1.115c.236.118.476.232.719.343.246.111.503.231.771.36l-.433 1.057Zm-3.89-2.958.88.359c.299.121.614.257.948.406a5 5 0 0 0 .807-.88 7.29 7.29 0 0 0 .599-1.021h-2.609a8.228 8.228 0 0 1-.302.584c-.108.187-.216.371-.323.552Zm25.593-6.412h-10.578v-3.687h10.578v3.687Zm-9.359-2.906v.833h8.156v-.833h-8.156Zm8.156 2.187v-.635h-8.156v.635h8.156Zm3.026 1.521v.844h-14.224v-.844h14.224Zm-6.526 8.177h6.188v.849h-13.547v-.849h6.203v-.817h-5.12v-.849h5.12v-.985h-4.734v-3.734h10.593v3.734h-4.703v.985h5.104v.849h-5.104v.817Zm-4.687-5.666v.666h3.531v-.666h-3.531Zm8.187 0h-3.5v.666h3.5v-.666Zm-4.656 2.229v-.844h-3.531v.844h3.531Zm4.656 0v-.844h-3.5v.844h3.5Zm-75.838 30.495c-.01.239-.031.484-.063.734-.031.25-.067.521-.11.812a5.944 5.944 0 0 1-.25 1.115 1.462 1.462 0 0 1-.431.672c-.191.163-.443.28-.756.349a6.65 6.65 0 0 1-1.192.141 73.995 73.995 0 0 1-6.823 0 5.56 5.56 0 0 1-1.193-.162 1.72 1.72 0 0 1-.766-.417c-.194-.187-.335-.444-.422-.77-.086-.33-.13-.749-.13-1.256v-7.651l1.266.052v2.089h8.12v-3.766h-9.85v-1.234H94v6.234h-9.401v3.943c0 .347.024.629.073.844.049.215.132.38.25.495.121.114.29.195.505.244.219.049.498.084.839.105.99.055 1.994.085 3.015.088a41.844 41.844 0 0 0 3.021-.088c.326-.021.592-.051.797-.089.208-.038.379-.106.51-.203a.939.939 0 0 0 .303-.427 4.25 4.25 0 0 0 .182-.755l.036-.355c.014-.135.026-.276.037-.421.014-.149.026-.294.036-.433.01-.139.016-.251.016-.338l1.25.448Zm16.088-9.058v1.203h-6.687v12.032h-1.281V320.36h-5.922v-1.203h13.89Zm-5.651 3.396c.33.243.705.532 1.125.865a42.343 42.343 0 0 1 2.448 2.062c.375.341.684.639.927.896l-.771 1.12a19.936 19.936 0 0 0-1.015-1.037c-.389-.375-.79-.746-1.203-1.114a43.58 43.58 0 0 0-1.209-1.047 14.286 14.286 0 0 0-1.067-.833l.765-.912Zm16.959.307c.138 1.715.347 3.184.625 4.407.378-.552.718-1.139 1.02-1.761.302-.621.577-1.3.823-2.036l1.047.411a24.262 24.262 0 0 1-1.146 2.604 15.468 15.468 0 0 1-1.369 2.172c.17.514.336.95.5 1.308.159.354.302.6.427.739s.262.209.411.209c.149 0 .262-.101.339-.303.076-.205.156-.54.239-1.005.056-.257.091-.472.104-.646.018-.177.037-.394.058-.651l1.067.464c-.01.149-.02.273-.031.37-.01.093-.024.189-.041.286l-.058.328c-.021.122-.052.285-.094.49-.09.399-.185.727-.286.984a2.045 2.045 0 0 1-.349.61 1.043 1.043 0 0 1-.437.312c-.16.059-.33.089-.511.089-.368 0-.696-.118-.984-.355-.285-.236-.564-.646-.839-1.229a11.11 11.11 0 0 1-.39-.942c-.341.375-.707.748-1.099 1.119-.393.375-.82.749-1.282 1.12l-.828-.927a21.105 21.105 0 0 0 1.537-1.271c.462-.42.885-.856 1.271-1.307a24.227 24.227 0 0 1-.568-2.526 31.839 31.839 0 0 1-.37-3.063h-8.396v-1.036h3.703v-1.359h-2.89v-.974h2.89v-1.568l1.125.047v1.521h2.782v.974h-2.782v1.359h3.506a4.457 4.457 0 0 1-.016-.38c0-.125-.007-.257-.021-.396l-.109-3.24 1.161.047.146 3.401c.01.101.016.198.016.292 0 .094.005.186.015.276h4.552v1.036h-4.468Zm2.76-1.442c-.187-.236-.384-.47-.589-.703a8.312 8.312 0 0 0-.619-.657c-.209-.201-.41-.384-.605-.547a17.088 17.088 0 0 0-.5-.406l.73-.719c.277.191.628.478 1.052.86.427.382.84.813 1.239 1.292l-.708.88Zm-4.635 8.39c-.285.042-.65.082-1.094.12-.445.035-.932.08-1.464.136v2.224h-1.14v-2.125c-.413.031-.821.063-1.224.098l-1.162.089c-.371.024-.715.045-1.031.063l-.828.036-.13-1.036c.257 0 .552-.007.885-.021.333-.017.691-.04 1.073-.068.382-.028.776-.054 1.182-.078.41-.028.822-.059 1.235-.094v-1.182h-3.006v-.979c.379-.615.723-1.224 1.032-1.828h-1.698v-1.006h2.239c.115-.205.216-.396.302-.573l.256-.526 1.099.261a22.78 22.78 0 0 1-.214.437l-.203.401h3.974v1.006h-4.479l-.453.875c-.153.291-.325.598-.516.921h1.667v-1.166l1.14.047v1.119h2.464v1.011h-2.464v1.088a137.46 137.46 0 0 1 1.453-.135c.441-.038.804-.078 1.089-.12l.016 1.005Zm21.171-9.338c-.02 1.319-.046 2.59-.078 3.812-.01.525-.024 1.061-.041 1.61l-.052 1.604a150.874 150.874 0 0 1-.099 2.703 3.873 3.873 0 0 1-.131.849 1.265 1.265 0 0 1-.307.557 1.272 1.272 0 0 1-.557.323 4.33 4.33 0 0 1-.865.151l-1.359.115-.38-1.219 1.531-.094c.26-.021.458-.095.594-.224.139-.128.224-.4.255-.817.035-.566.064-1.222.088-1.969a229.197 229.197 0 0 0 .12-4.479c.011-.705.021-1.299.031-1.782l-3.599.016a34.17 34.17 0 0 1-.463 1.052c-.156.344-.323.688-.5 1.031l-1.073-.578c.462-.791.88-1.671 1.255-2.64.375-.969.679-1.924.912-2.865l1.151.24c-.129.448-.262.889-.401 1.323-.136.43-.282.857-.438 1.281h4.406Zm-8.849-2.432a36.15 36.15 0 0 1-.307 1.166c-.114.42-.252.854-.411 1.302h2.479v11.318h-5.458v-11.318h1.645c.16-.427.299-.869.417-1.328.118-.462.231-.932.339-1.411l1.296.271Zm.641 3.619h-3.219v3.834h3.219v-3.834Zm4.688 6.365a26.144 26.144 0 0 0-1.146-2.141 35.432 35.432 0 0 0-1.047-1.666l.927-.646c.361.483.743 1.054 1.146 1.713.403.66.779 1.344 1.13 2.052l-1.01.688Zm-4.688 2.682v-4.047h-3.219v4.047h3.219Zm21.797-2.224c.757 1.083 1.792 2.122 3.104 3.115l-.833.864a19.046 19.046 0 0 1-1.63-1.463c-.48-.486-.907-.984-1.282-1.495a11.241 11.241 0 0 1-1.39 1.516 20.973 20.973 0 0 1-1.886 1.526l-.739-.896a15.823 15.823 0 0 0 1.968-1.531 8.55 8.55 0 0 0 1.376-1.625 12.182 12.182 0 0 1-1-2.266 16.712 16.712 0 0 1-.584-2.531 20.228 20.228 0 0 1-.542.911l-.901-.578c.299-.413.579-.873.839-1.38.264-.507.5-1.026.708-1.557.209-.535.387-1.066.537-1.594.149-.531.267-1.021.354-1.469l1.12.276a19.326 19.326 0 0 1-.672 2.287h4.156v1.151h-1.088a41.975 41.975 0 0 1-.224 2.041 19.727 19.727 0 0 1-.313 1.766 12.325 12.325 0 0 1-.448 1.547 8.82 8.82 0 0 1-.63 1.385Zm-11.552-3.432a11.401 11.401 0 0 0 1.969-1.234 12.252 12.252 0 0 0 1.536-1.433h-3.005v-.979h3.276v-3.276l1.073.063v3.213h2.88v.979h-2.88v2.974h-1.073v-1.969c-.406.473-.873.921-1.401 1.344-.528.42-1.127.814-1.797 1.183l-.578-.865Zm7.536-6.151c-.073.17-.163.356-.27.557-.108.201-.223.406-.344.615-.122.208-.247.408-.375.599a9.949 9.949 0 0 1-.354.495l-.802-.448c.097-.125.204-.278.322-.459.118-.184.233-.373.344-.567.111-.195.217-.396.318-.605.104-.208.193-.404.266-.588l.895.401Zm-5.437 2.25a8.84 8.84 0 0 0-.464-1.182 10.926 10.926 0 0 0-.286-.573 19.892 19.892 0 0 0-.255-.485l.843-.317a9.206 9.206 0 0 1 .542 1.031c.097.208.188.42.271.635.087.212.163.408.229.589l-.88.302Zm7.323 1.047c.114 1.017.285 1.948.51 2.791.226.844.537 1.641.932 2.391.355-.771.62-1.609.797-2.516.181-.909.325-1.949.433-3.119h-2.48l-.192.453Zm-2.38 3.422a22.285 22.285 0 0 0-.985-1.115 15.396 15.396 0 0 0-1.031-1l.641-.594c.277.215.602.507.974.875.375.368.722.733 1.041 1.094l-.64.74Zm-.433 5.932a16.403 16.403 0 0 0-.927-.521c-.319-.163-.646-.332-.979-.505a9.901 9.901 0 0 1-1.651.979c-.642.309-1.434.618-2.375.927l-.563-1.005a23.242 23.242 0 0 0 2.053-.698 9.804 9.804 0 0 0 1.479-.729 27.557 27.557 0 0 0-2.38-1.021 50.368 50.368 0 0 0 .88-1.521h-1.854v-.963h2.333c.097-.209.186-.408.266-.599.079-.195.151-.379.213-.552l1.026.343-.161.412c-.052.132-.106.264-.162.396h3.328v.916c-.212.448-.441.87-.687 1.266a6.097 6.097 0 0 1-.896 1.115c.236.118.476.232.719.343.246.111.503.231.771.36l-.433 1.057Zm-3.89-2.958.88.359c.299.121.614.257.948.406a5 5 0 0 0 .807-.88 7.29 7.29 0 0 0 .599-1.021h-2.609a8.228 8.228 0 0 1-.302.584c-.108.187-.216.371-.323.552Zm25.593-6.412h-10.578v-3.687h10.578v3.687Zm-9.359-2.906v.833h8.156v-.833h-8.156Zm8.156 2.187v-.635h-8.156v.635h8.156Zm3.026 1.521v.844h-14.224v-.844h14.224Zm-6.526 8.177h6.188v.849h-13.547v-.849h6.203v-.817h-5.12v-.849h5.12v-.985h-4.734v-3.734h10.593v3.734h-4.703v.985h5.104v.849h-5.104v.817Zm-4.687-5.666v.666h3.531v-.666h-3.531Zm8.187 0h-3.5v.666h3.5v-.666Zm-4.656 2.229v-.844h-3.531v.844h3.531Zm4.656 0v-.844h-3.5v.844h3.5Zm-81.458 28.307c.236.597.53 1.146.88 1.646.354.5.778.958 1.271 1.375a9.979 9.979 0 0 0 1.745 1.156 18.16 18.16 0 0 0 2.281.99l-.75 1.151c-1.549-.618-2.826-1.33-3.833-2.136a8.365 8.365 0 0 1-2.344-2.937c-.48.941-1.23 1.849-2.25 2.724-1.017.871-2.358 1.675-4.02 2.411l-.787-1.088c1.802-.723 3.204-1.527 4.208-2.412s1.66-1.845 1.969-2.88h-5.886v-1.203h6.094v-.089c.01-.145.017-.473.02-.984.008-.514.022-1.096.043-1.745h-3.453a17.924 17.924 0 0 1-1.235 2.282l-1.052-.558c.246-.368.48-.765.698-1.192.219-.427.424-.865.615-1.313.194-.448.368-.896.52-1.344.157-.448.292-.887.407-1.317l1.166.276a32.368 32.368 0 0 1-.656 1.984h2.99l.03-2.771 1.282.047v.234a60.735 60.735 0 0 0-.016 1.464v1.026h5.058v1.182H89.77l-.031 2.63v.188h5.823v1.203h-5.714Zm18.37 2.109c.427.597.934 1.172 1.521 1.724a17.615 17.615 0 0 0 2.062 1.636l-.766.927a20.636 20.636 0 0 1-2.01-1.662 14.168 14.168 0 0 1-1.495-1.661 13.187 13.187 0 0 1-1.677 1.75 23.504 23.504 0 0 1-2.224 1.703l-.802-.958c.927-.577 1.719-1.144 2.375-1.703a10.905 10.905 0 0 0 1.672-1.771 11.355 11.355 0 0 1-1.01-2.167 16.146 16.146 0 0 1-.605-2.422 14.824 14.824 0 0 1-.958 1.485l-.88-.912v3.854h-1.089v-7.807h-2.979v7.875h-1.073v-8.963h5.141v4.895c.351-.423.665-.885.943-1.385.281-.503.527-1.015.739-1.536.215-.525.399-1.047.552-1.568.156-.525.292-1.028.406-1.511l1.214.099c-.118.417-.233.828-.344 1.235-.111.403-.236.802-.375 1.198h5.005v1.104h-1.328c-.159 1.365-.397 2.575-.713 3.63a11.728 11.728 0 0 1-1.302 2.911Zm-6.834-2.218c0 .681-.05 1.288-.151 1.823-.1.531-.286 1.04-.557 1.526a7.062 7.062 0 0 1-1.099 1.448c-.462.479-1.054.996-1.776 1.552l-.833-.818c.732-.511 1.32-.985 1.765-1.422.448-.437.788-.871 1.021-1.302.236-.434.391-.871.464-1.312.076-.445.114-.927.114-1.448v-4.896l1.052.036v4.813Zm4.657-4.037c.118 1.014.297 1.945.536 2.792.24.847.563 1.649.969 2.406a9.554 9.554 0 0 0 1-2.5c.219-.892.387-1.887.505-2.984h-2.896l-.057.146-.057.14Zm-3.162 9.474a7.507 7.507 0 0 0-.885-1.146 8.407 8.407 0 0 0-.469-.474l-.505-.479.635-.833c.347.313.686.634 1.016.963.33.33.665.693 1.005 1.089l-.797.88Zm23.615-10.885a404.27 404.27 0 0 1-.12 5.422l-.052 1.604a150.874 150.874 0 0 1-.099 2.703 3.88 3.88 0 0 1-.13.849 1.266 1.266 0 0 1-.308.557 1.272 1.272 0 0 1-.557.323c-.226.069-.514.12-.864.151l-1.36.115-.38-1.219 1.531-.094c.261-.021.459-.095.594-.224.139-.128.224-.4.255-.817.035-.566.064-1.222.089-1.969a229.197 229.197 0 0 0 .12-4.479c.01-.705.02-1.299.031-1.782l-3.599.016a34.19 34.19 0 0 1-.464 1.052c-.156.344-.323.688-.5 1.031l-1.073-.578c.462-.791.881-1.671 1.256-2.64.375-.969.678-1.924.911-2.865l1.151.24a43.67 43.67 0 0 1-.401 1.323 28 28 0 0 1-.437 1.281h4.406Zm-8.849-2.432c-.087.354-.189.743-.307 1.166-.115.42-.252.854-.412 1.302h2.479v11.318h-5.458v-11.318h1.646c.159-.427.298-.869.416-1.328.118-.462.231-.932.339-1.411l1.297.271Zm.64 3.619h-3.218v3.834h3.218v-3.834Zm4.688 6.365a26.144 26.144 0 0 0-1.146-2.141 33.85 33.85 0 0 0-1.047-1.666l.927-.646c.361.483.743 1.054 1.146 1.713.403.66.78 1.344 1.13 2.052l-1.01.688Zm-4.688 2.682v-4.047h-3.218v4.047h3.218Zm21.797-2.224c.757 1.083 1.792 2.122 3.105 3.115l-.834.864a19.199 19.199 0 0 1-1.63-1.463 13.579 13.579 0 0 1-1.281-1.495 11.251 11.251 0 0 1-1.391 1.516 21.092 21.092 0 0 1-1.885 1.526l-.74-.896a15.839 15.839 0 0 0 1.969-1.531 8.58 8.58 0 0 0 1.375-1.625 12.249 12.249 0 0 1-1-2.266 16.593 16.593 0 0 1-.583-2.531c-.084.149-.172.302-.266.458-.09.153-.182.304-.276.453l-.901-.578c.298-.413.578-.873.838-1.38a16.272 16.272 0 0 0 1.245-3.151c.149-.531.267-1.021.354-1.469l1.12.276a19.326 19.326 0 0 1-.672 2.287h4.156v1.151h-1.088a40.764 40.764 0 0 1-.224 2.041 19.377 19.377 0 0 1-.313 1.766c-.121.545-.27 1.061-.447 1.547a8.917 8.917 0 0 1-.631 1.385Zm-11.552-3.432a11.363 11.363 0 0 0 1.969-1.234 12.183 12.183 0 0 0 1.536-1.433h-3.005v-.979h3.276v-3.276l1.073.063v3.213h2.88v.979h-2.88v2.974h-1.073v-1.969c-.406.473-.873.921-1.401 1.344-.528.42-1.126.814-1.797 1.183l-.578-.865Zm7.537-6.151c-.073.17-.163.356-.271.557-.108.201-.222.406-.344.615a10.537 10.537 0 0 1-.729 1.094l-.802-.448c.097-.125.205-.278.323-.459.118-.184.232-.373.344-.567.111-.195.217-.396.317-.605.104-.208.193-.404.266-.588l.896.401Zm-5.438 2.25a8.84 8.84 0 0 0-.463-1.182 11.76 11.76 0 0 0-.287-.573 19.892 19.892 0 0 0-.255-.485l.844-.317c.073.118.158.267.255.448.097.18.193.374.286.583.098.208.188.42.271.635.087.212.163.408.229.589l-.88.302Zm7.323 1.047c.115 1.017.285 1.948.511 2.791.225.844.536 1.641.932 2.391a11.1 11.1 0 0 0 .797-2.516c.18-.909.324-1.949.432-3.119h-2.479l-.193.453Zm-2.38 3.422a22.259 22.259 0 0 0-.984-1.115 15.402 15.402 0 0 0-1.032-1l.641-.594c.278.215.602.507.974.875.375.368.722.733 1.042 1.094l-.641.74Zm-.432 5.932a17.133 17.133 0 0 0-.927-.521c-.32-.163-.646-.332-.98-.505a9.86 9.86 0 0 1-1.651.979c-.642.309-1.434.618-2.375.927l-.562-1.005a23.21 23.21 0 0 0 2.052-.698 9.804 9.804 0 0 0 1.479-.729 27.424 27.424 0 0 0-2.38-1.021 38.217 38.217 0 0 0 .88-1.521h-1.854v-.963h2.333a13.137 13.137 0 0 0 .479-1.151l1.026.343-.161.412c-.052.132-.106.264-.161.396h3.328v.916c-.212.448-.441.87-.688 1.266a6.097 6.097 0 0 1-.896 1.115c.236.118.476.232.719.343.247.111.504.231.771.36l-.432 1.057Zm-3.891-2.958.88.359c.299.121.615.257.948.406.32-.277.589-.571.807-.88.219-.309.419-.65.599-1.021h-2.609a7.831 7.831 0 0 1-.302.584c-.108.187-.215.371-.323.552Zm25.594-6.412h-10.578v-3.687h10.578v3.687Zm-9.36-2.906v.833h8.157v-.833h-8.157Zm8.157 2.187v-.635h-8.157v.635h8.157Zm3.026 1.521v.844h-14.224v-.844h14.224Zm-6.526 8.177h6.187v.849h-13.547v-.849h6.203v-.817h-5.119v-.849h5.119v-.985h-4.734v-3.734h10.594v3.734h-4.703v.985h5.104v.849h-5.104v.817Zm-4.688-5.666v.666h3.531v-.666h-3.531Zm8.188 0h-3.5v.666h3.5v-.666Zm-4.657 2.229v-.844h-3.531v.844h3.531Zm4.657 0v-.844h-3.5v.844h3.5Z"/>
</svg>
