<svg xmlns="http://www.w3.org/2000/svg" width="400" height="380" fill="none" viewBox="0 0 400 380">
  <path fill="#fff" d="M390 0H10C4.477 0 0 4.477 0 10v360c0 5.523 4.477 10 10 10h380c5.523 0 10-4.477 10-10V10c0-5.523-4.477-10-10-10Z"/>
  <path fill="#000" fill-rule="evenodd" d="M49 30a1 1 0 0 1-1 1H38a1 1 0 0 1-1-1V20a1 1 0 0 1 1-1h10a1 1 0 0 1 1 1v10Zm2-10v10a3 3 0 0 1-3 3H38a3 3 0 0 1-3-3V20a3 3 0 0 1 3-3h10a3 3 0 0 1 3 3Z" clip-rule="evenodd"/>
  <path fill="#000" fill-rule="evenodd" d="M43 23a2 2 0 1 1 0 4 2 2 0 0 1 0-4Zm-6 2c0 2.21 2.686 4 6 4s6-1.79 6-4-2.686-4-6-4-6 1.79-6 4Zm6-2.5c-1.402 0-2.603.382-3.41.92-.818.545-1.09 1.133-1.09 1.58 0 .447.272 1.035 1.09 1.58.806.538 2.008.92 3.41.92 1.402 0 2.603-.382 3.41-.92.818-.545 1.09-1.133 1.09-1.58 0-.447-.272-1.035-1.09-1.58-.806-.538-2.008-.92-3.41-.92ZM49 60a1 1 0 0 1-1 1H38a1 1 0 0 1-1-1V50a1 1 0 0 1 1-1h10a1 1 0 0 1 1 1v10Zm2-10v10a3 3 0 0 1-3 3H38a3 3 0 0 1-3-3V50a3 3 0 0 1 3-3h10a3 3 0 0 1 3 3Z" clip-rule="evenodd"/>
  <path fill="#000" d="M38.293 58.392a1 1 0 0 0 1.414 1.414l8.099-8.099a1 1 0 1 0-1.414-1.414l-8.1 8.099ZM42.977 53 41 54.977A2 2 0 0 1 42.977 53ZM37 55c0 .98.528 1.877 1.405 2.572l1.07-1.07c-.729-.523-.975-1.076-.975-1.502 0-.447.272-1.035 1.09-1.58.806-.538 2.008-.92 3.41-.92.157 0 .312.005.464.014l1.331-1.332A8.795 8.795 0 0 0 43 51c-3.314 0-6 1.79-6 4Zm6.234 1.986a2.001 2.001 0 0 0 1.752-1.752l-1.752 1.752Zm-1.864 1.865A8.87 8.87 0 0 0 43 59c3.314 0 6-1.79 6-4 0-.938-.485-1.801-1.296-2.483l-1.066 1.066c.641.497.862 1.014.862 1.417 0 .447-.272 1.035-1.09 1.58-.806.538-2.008.92-3.41.92-.093 0-.184-.002-.275-.005l-1.355 1.356Zm-1.201 25.545a.67.67 0 0 1-.102-1.026l2.247-2.245a.957.957 0 0 1 1.354 0l2.244 2.245a.671.671 0 0 1-.47 1.14H43.99v3.65a1 1 0 0 1-2 0v-3.65h-1.452v.001a.671.671 0 0 1-.37-.115Z"/>
  <path fill="#000" fill-rule="evenodd" d="M49 90a1 1 0 0 1-1 1H38a1 1 0 0 1-1-1V80a1 1 0 0 1 1-1h10a1 1 0 0 1 1 1v10Zm2-10v10a3 3 0 0 1-3 3H38a3 3 0 0 1-3-3V80a3 3 0 0 1 3-3h10a3 3 0 0 1 3 3Zm-11.076 34.097a.67.67 0 0 1 .143-.727l2.247-2.245a.955.955 0 0 1 1.354 0l2.244 2.245a.67.67 0 0 1-.47 1.14H43.99v3.65a1 1 0 1 1-2 0v-3.65h-1.452a.666.666 0 0 1-.614-.413ZM51 110v10a3 3 0 0 1-3 3H38a3 3 0 0 1-3-3v-10a3 3 0 0 1 3-3h10a3 3 0 0 1 3 3Zm-4.373 2.671.056.06L49 110.414V120a1 1 0 0 1-1 1h-9.586l2.591-2.591a1.996 1.996 0 0 1-.015-.249v-2.564l-3.99 3.99V110a1 1 0 0 1 1-1h9.586l-2.315 2.314 1.356 1.357Z" clip-rule="evenodd"/>
  <path fill="#000" d="M45.218 140.712a.544.544 0 0 0-.362.665c.024.09.07.172.136.239l.337.337-1.077 1.077a.508.508 0 0 0 .718.718l1.077-1.077.337.337a.545.545 0 0 0 .515.139.55.55 0 0 0 .389-.365l.684-2.075a.53.53 0 0 0-.128-.55.534.534 0 0 0-.55-.129l-2.076.684Zm-4.436 8.576a.544.544 0 0 0 .362-.665.546.546 0 0 0-.136-.239l-.337-.337 1.077-1.077a.508.508 0 0 0-.718-.718l-1.077 1.077-.337-.337a.545.545 0 0 0-.515-.139.55.55 0 0 0-.389.365l-.684 2.075a.531.531 0 0 0 .128.55.534.534 0 0 0 .55.129l2.076-.684Zm6.512.684-2.076-.684a.544.544 0 0 1-.362-.665.546.546 0 0 1 .136-.239l.337-.337-1.077-1.077a.508.508 0 0 1 .718-.718l1.077 1.077.337-.337a.545.545 0 0 1 .515-.139.55.55 0 0 1 .389.365l.684 2.075a.531.531 0 0 1-.129.55h.001a.533.533 0 0 1-.55.129Zm-8.582-7.19a.548.548 0 0 0 .904.226l.337-.337 1.077 1.077a.51.51 0 0 0 .718-.718l-1.077-1.077.337-.337a.549.549 0 0 0-.226-.904l-2.075-.684a.533.533 0 0 0-.694.384.534.534 0 0 0 .015.294l.684 2.076Z"/>
  <path fill="#000" fill-rule="evenodd" d="M49 150a1 1 0 0 1-1 1H38a1 1 0 0 1-1-1v-10a1 1 0 0 1 1-1h10a1 1 0 0 1 1 1v10Zm2-10v10a3 3 0 0 1-3 3H38a3 3 0 0 1-3-3v-10a3 3 0 0 1 3-3h10a3 3 0 0 1 3 3Z" clip-rule="evenodd"/>
  <path fill="#000" d="M39.619 173.696a.557.557 0 0 1-.365-.391.55.55 0 0 1 .139-.516l.338-.338-1.082-1.081a.512.512 0 0 1 .557-.832.523.523 0 0 1 .165.111l1.08 1.082.338-.338a.55.55 0 0 1 .907.226l.686 2.083a.533.533 0 0 1-.68.68l-2.083-.686Zm6.995-.148a.548.548 0 0 0-.007-.759l-.338-.338 1.082-1.081a.508.508 0 0 0 .11-.556.519.519 0 0 0-.276-.276.504.504 0 0 0-.556.111l-1.08 1.082-.338-.338a.55.55 0 0 0-.907.226l-.686 2.083a.533.533 0 0 0 .68.68l2.083-.686c.09-.029.17-.08.233-.148Zm-7.228 2.904a.547.547 0 0 0 .007.759l.338.338-1.082 1.081a.508.508 0 0 0-.11.556.519.519 0 0 0 .276.276.504.504 0 0 0 .556-.111l1.08-1.082.338.338a.55.55 0 0 0 .907-.226l.686-2.083a.535.535 0 0 0-.68-.68l-2.083.686a.557.557 0 0 0-.233.148Zm5.066 2.162a.543.543 0 0 0 .519.13.559.559 0 0 0 .24-.137l.338-.338 1.081 1.082a.509.509 0 0 0 .87-.361.51.51 0 0 0-.149-.361l-1.082-1.08.338-.338a.552.552 0 0 0-.226-.907l-2.083-.686a.528.528 0 0 0-.695.386.533.533 0 0 0 .015.294l.686 2.083a.55.55 0 0 0 .148.233Z"/>
  <path fill="#000" fill-rule="evenodd" d="M49 180a1 1 0 0 1-1 1H38a1 1 0 0 1-1-1v-10a1 1 0 0 1 1-1h10a1 1 0 0 1 1 1v10Zm2-10v10a3 3 0 0 1-3 3H38a3 3 0 0 1-3-3v-10a3 3 0 0 1 3-3h10a3 3 0 0 1 3 3Zm-16 40a2.998 2.998 0 0 0 3 3h10a2.999 2.999 0 0 0 3-3v-7.143a2.998 2.998 0 0 0-3-3h-2.715a.998.998 0 0 1-.68-.267l-.849-.788a3 3 0 0 0-2.041-.802H38a2.999 2.999 0 0 0-3 3v9Zm6.715-10c.252 0 .495.095.68.267l.849.789a3 3 0 0 0 2.041.801H48a.998.998 0 0 1 1 1V203H37v-2a1 1 0 0 1 1-1h3.715ZM48 211a.998.998 0 0 0 1-1v-5H37v5a1 1 0 0 0 1 1h10Z" clip-rule="evenodd"/>
  <path fill="#000" d="M44.5 233h2v-3a3 3 0 0 0-3-3H38a3 3 0 0 0-3 3v10a3 3 0 0 0 3 3h5.5a3 3 0 0 0 3-3v-3h-2v3a1 1 0 0 1-1 1H38a1 1 0 0 1-1-1v-10a1 1 0 0 1 1-1h5.5a1 1 0 0 1 1 1v3Zm-1.218 1.321a.962.962 0 0 0 .68 1.644h3.511v1.398a.644.644 0 0 0 .768.625.647.647 0 0 0 .329-.172l2.16-2.162a.934.934 0 0 0 .27-.652.919.919 0 0 0-.27-.652l-2.16-2.164a.648.648 0 0 0-.698-.137.642.642 0 0 0-.399.591v1.398h-3.511a.96.96 0 0 0-.68.283ZM47 269v-1h-8v1h8Zm-8-3v-1h8v1h-8Zm0-3v-1h8v1h-8Z"/>
  <path fill="#000" fill-rule="evenodd" d="M49 270a1 1 0 0 1-1 1H38a1 1 0 0 1-1-1v-10a1 1 0 0 1 1-1h10a1 1 0 0 1 1 1v10Zm2-10v10a3 3 0 0 1-3 3H38a3 3 0 0 1-3-3v-10a3 3 0 0 1 3-3h10a3 3 0 0 1 3 3Z" clip-rule="evenodd"/>
  <path fill="#000" d="M45.832 295.605a.67.67 0 0 1 .101 1.026l-2.246 2.245a.955.955 0 0 1-1.354 0l-2.245-2.246a.674.674 0 0 1-.14-.725.673.673 0 0 1 .61-.415h1.452v-3.65a1 1 0 1 1 2 0v3.65h1.453c.132.001.26.041.369.115Z"/>
  <path fill="#000" fill-rule="evenodd" d="M49 300a1 1 0 0 1-1 1H38a1 1 0 0 1-1-1v-10a1 1 0 0 1 1-1h10a1 1 0 0 1 1 1v10Zm2-10v10a3 3 0 0 1-3 3H38a3 3 0 0 1-3-3v-10a3 3 0 0 1 3-3h10a3 3 0 0 1 3 3Z" clip-rule="evenodd"/>
  <path fill="#000" d="m42.564 328.396 5.103-5.103a1.001 1.001 0 0 0-1.414-1.415l-4.808 4.808-1.698-1.696a.992.992 0 0 0-.713-.316 1.008 1.008 0 0 0-.723.293.99.99 0 0 0-.293.723.992.992 0 0 0 .315.713l1.992 1.988c.296.299.699.467 1.12.467l-.001.001c.42.001.824-.166 1.12-.463Z"/>
  <path fill="#000" fill-rule="evenodd" d="M49 330a1 1 0 0 1-1 1H38a1 1 0 0 1-1-1v-10a1 1 0 0 1 1-1h10a1 1 0 0 1 1 1v10Zm2-10v10a3 3 0 0 1-3 3H38a3 3 0 0 1-3-3v-10a3 3 0 0 1 3-3h10a3 3 0 0 1 3 3Zm-3.686 38.281a.999.999 0 0 1-1.708.707l-2.585-2.586-2.588 2.586a.988.988 0 0 1-.718.334.998.998 0 0 1-.694-1.745l2.586-2.589-2.594-2.593a1.004 1.004 0 0 1-.217-1.09 1.008 1.008 0 0 1 .542-.541.986.986 0 0 1 .765 0c.122.05.232.124.325.216l2.593 2.594 2.589-2.586a1.004 1.004 0 0 1 1.367.044 1 1 0 0 1 .044 1.368l-2.586 2.588 2.586 2.586a.999.999 0 0 1 .293.707ZM38 363h10a3 3 0 0 0 3-3v-10a3 3 0 0 0-3-3H38a3 3 0 0 0-3 3v10a3 3 0 0 0 3 3Zm-1-3a1 1 0 0 0 1 1h10a1 1 0 0 0 1-1v-10a1 1 0 0 0-1-1H38a1 1 0 0 0-1 1v10Z" clip-rule="evenodd"/>
  <path fill="#000" d="M75.568 21.13c-.556 1.482-1.158 2.772-1.808 3.87l-1.104-.542c.545-.906 1.06-1.967 1.542-3.182a24.044 24.044 0 0 0 1.099-3.412l1.213.209c-.19.736-.371 1.364-.541 1.885h4.734v1.172h-5.135Zm-4.193-3.12 1.12.031v7.662h-1.12V18.01Zm-3.182.588 1.104.032v6.656h-1.104v-6.688Zm8.432 3.12c.417.334.94.818 1.568 1.454.628.631 1.097 1.15 1.406 1.557l-.88.88c-.299-.448-.752-.986-1.36-1.615-.607-.631-1.135-1.123-1.583-1.474l.849-.802Zm2.495 4.625v4.323h1.87v1.068H66.688v-1.068h1.838v-4.323H79.12Zm-7.344 1.073h-2.13v3.25h2.13v-3.25Zm1.01 3.25h2.094v-3.25h-2.093v3.25Zm3.084 0H78v-3.25h-2.13v3.25Zm11.27-3.312c-.374-.535-.886-1.127-1.536-1.776v6.765h-1.088V25.88a31.28 31.28 0 0 1-1.839 1.89l-.724-.895c1.868-1.636 3.186-3.355 3.953-5.157h-3.229v-1.166h2.047a27.288 27.288 0 0 0-.77-2.48l1.088-.192c.267.705.534 1.595.802 2.672h1.297v1.166c-.396.92-.882 1.806-1.459 2.657.365.288.752.626 1.162 1.015.41.39.743.74 1 1.052l-.703.912Zm7.022-7.474h-4.834v7.807h-1.12V18.73h7.089v8.927h-1.135V19.88Zm2.463 8.864c-.063.917-.148 1.627-.255 2.13-.073.351-.233.601-.48.75-.246.15-.673.245-1.28.287-.3.02-.528.031-.688.031-.15 0-.384-.01-.703-.031-.587-.042-.993-.177-1.219-.406-.222-.23-.333-.643-.333-1.24v-2.64a7.56 7.56 0 0 1-1.6 2.578c-.725.777-1.706 1.55-2.942 2.317l-.74-1.01c1.205-.701 2.132-1.401 2.782-2.099.652-.701 1.114-1.467 1.385-2.297.274-.833.443-1.873.505-3.12.021-.343.031-1.395.031-3.156l1.172.052-.052 3.23c-.02.916-.095 1.706-.224 2.37l.803.03v3.313c0 .371.05.621.15.75.101.128.329.203.683.224.073.01.222.016.448.016.36 0 .627-.021.797-.063.173-.042.293-.111.359-.208.07-.098.127-.252.172-.464.094-.479.14-1.06.14-1.745l1.089.401Zm15.495-9.296v1.01H98.26v-1.01h4.115a10.291 10.291 0 0 0-.896-1.042l.828-.688c.184.17.396.398.636.683.239.28.434.53.583.744l-.338.303h3.411a24.246 24.246 0 0 0 1.437-1.745l.912.594a18.82 18.82 0 0 1-.943 1.15h4.115Zm-4.245 7.614-.318-.974 1.104-.114c.351-.032.603-.087.756-.167.156-.08.253-.186.291-.318a2.44 2.44 0 0 0 .058-.614v-3.698l1.057.03v3.985c0 .459-.047.8-.141 1.026-.09.223-.274.387-.552.495-.274.108-.705.193-1.291.255l-.964.094Zm-4.766-.927a3.6 3.6 0 0 0 .615-.104c.125-.038.2-.094.224-.167.028-.076.042-.21.042-.4v-.162h-3.36v1.604h-1.088v-5.583h5.567v4.156c0 .375-.048.663-.145.864-.094.202-.27.356-.526.464-.257.108-.636.182-1.136.224l-.802.068-.302-.88.911-.084Zm4.703-.797h-1.041v-3.922l1.041.016v3.906Zm-3.822-2.4v-.787h-3.36v.786h3.36Zm-3.36.78v.802h3.36v-.802h-3.36Zm-1.583 4.964v-1.026h12.047c-.139 1.236-.247 2.078-.323 2.526-.063.493-.169.85-.318 1.073-.149.226-.406.394-.771.505-.361.111-.936.2-1.724.266l-.927.078-.37-1.057 1.151-.079c.514-.03.882-.076 1.105-.135.225-.06.38-.153.463-.281.087-.129.151-.337.193-.625l.193-1.245h-5.167c-.184.726-.486 1.323-.906 1.792-.42.468-1.016.862-1.787 1.182-.767.32-1.795.608-3.083.864l-.432-1.01c1.107-.212 1.996-.441 2.666-.688.674-.243 1.196-.534 1.568-.874a2.87 2.87 0 0 0 .802-1.266h-4.38Zm28.641-8.068v1.136h-3.615v3.125h2.818v7.39h-1.141v-.979h-3.87v.964h-1.135v-7.375h2.177v-6.933l1.151.032v2.64h3.615Zm-8.912-.448h-3.073v8.146h-1.073v-9.281h5.219v9.219h-1.073v-8.084Zm-1.01.964v5.036c0 .896-.096 1.672-.287 2.328-.191.657-.533 1.296-1.026 1.917-.489.618-1.193 1.288-2.109 2.01l-.735-.942c.83-.608 1.469-1.182 1.917-1.724.448-.545.757-1.1.927-1.667.174-.566.261-1.222.261-1.969v-5.041l1.052.052Zm4.114 9.052h3.87v-4.156h-3.87v4.156Zm-3.823-1.552c.341.288.788.724 1.344 1.307.556.58.95 1.02 1.182 1.318l-.88.88c-.212-.32-.58-.778-1.104-1.375a18.799 18.799 0 0 0-1.281-1.36l.739-.77Zm16.162-2.11a8.177 8.177 0 0 0-.651-.953 13.769 13.769 0 0 0-.854-1.015v7.854h-1.12v-7.74c-.511 1.438-1.103 2.658-1.776 3.662l-.959-.719c.521-.715 1.03-1.592 1.526-2.63a18.198 18.198 0 0 0 1.131-2.953h-1.938v-1.12h2.016v-2.964l1.12.052v2.912h2.031v1.12h-2.031v1.791l.432-.4c.278.267.611.624 1 1.072.389.448.675.81.859 1.089l-.786.942Zm9.713 4.959-.771 1.057c-1.524-.875-2.723-1.82-3.599-2.833-.937.962-2.217 1.9-3.838 2.817l-.818-.994c1.684-.896 2.992-1.823 3.922-2.782a11.778 11.778 0 0 1-1.161-2.27 19.163 19.163 0 0 1-.839-2.896h-.479c-.014 1.375-.101 2.57-.26 3.583a11.653 11.653 0 0 1-.777 2.776 13.711 13.711 0 0 1-1.432 2.537l-1.12-.688c.612-.792 1.089-1.573 1.433-2.344.347-.774.597-1.646.75-2.614.156-.973.234-2.148.234-3.526V19.4c2.264-.14 4.792-.453 7.583-.943l.261 1.135c-2.146.403-4.37.697-6.672.88v2.016h6.255v1.089c-.278 1.128-.594 2.113-.948 2.953a9.435 9.435 0 0 1-1.328 2.26c.844.952 2.045 1.847 3.604 2.688Zm-5.968-7.901c.35 1.736.894 3.154 1.63 4.255a8.717 8.717 0 0 0 1.015-1.88c.264-.667.507-1.459.73-2.375h-3.375Zm9.937 10.38c-.833-1.195-1.464-2.418-1.891-3.672a12.15 12.15 0 0 1-.635-3.911c0-1.427.22-2.776.661-4.047a15.973 15.973 0 0 1 1.912-3.73h1.312c-.875 1.365-1.512 2.664-1.911 3.896a12.172 12.172 0 0 0-.599 3.771c0 1.323.2 2.611.599 3.865.399 1.253 1.021 2.53 1.865 3.828h-1.313Zm15.313-14.156V32.25h-1.261v-.995h-8.193v1.042h-1.25V19.802h3.761c.319-.747.576-1.457.771-2.13l1.375.208a25.597 25.597 0 0 1-.735 1.922h5.532Zm-1.261 3.468v-2.302h-8.193v2.302h8.193Zm0 3.375v-2.24h-8.193v2.24h8.193Zm-8.193 1.172v2.302h8.193v-2.302h-8.193Zm26.084-6.74a919.28 919.28 0 0 1-.136 4.318 327.628 327.628 0 0 1-.172 4.438c-.021.51-.1.9-.239 1.167-.139.267-.368.465-.688.593-.319.129-.804.23-1.453.302l-.927.115-.37-1.25 1.042-.078c.423-.045.734-.108.932-.188a.753.753 0 0 0 .422-.39c.087-.18.141-.464.162-.85.045-.926.093-2.093.145-3.5l.131-3.504h-2.547c-.063 2.034-.163 3.583-.302 4.645-.139 1.063-.407 2.021-.802 2.875-.393.851-1.021 1.794-1.886 2.829l-1.026-.72c.833-.926 1.439-1.777 1.818-2.551.379-.775.632-1.657.76-2.646.129-.993.224-2.47.287-4.432h-1.953v-1.172h1.968l.063-3.167 1.172.063-.052 3.104h3.651Zm-12.495-1.916h5.661v1.136h-5.661V19.16Zm5.021 11.615a24.8 24.8 0 0 0-.24-.85l-4.031.579a5.092 5.092 0 0 0-1.01.255l-.448-1.213c.194-.077.336-.167.427-.271a2.55 2.55 0 0 0 .281-.438c.233-.479.519-1.168.859-2.068.344-.902.627-1.732.849-2.49h-2.526v-1.15h6.974v1.15h-3.213a46.98 46.98 0 0 1-.922 2.75c-.368 1.004-.681 1.746-.938 2.225l3.313-.448c-.393-1.108-.787-2.04-1.183-2.797l1.073-.417c.309.618.648 1.39 1.016 2.313.368.92.621 1.658.76 2.213l-1.041.657Zm23.812-10.146v1.156h-4.099v3.167h3.141v7.422h-1.156v-.943h-4.464v.958h-1.135v-7.437h2.432v-6.995l1.182.052v2.62h4.099Zm-9.906 5.187c.278.278.632.68 1.063 1.209.434.527.769.961 1.005 1.302l-.834.927a8.86 8.86 0 0 0-.724-1.125 15.296 15.296 0 0 0-.942-1.193v5.375h-1.089V25.85a18.929 18.929 0 0 1-.984 2.26c-.344.66-.778 1.309-1.302 1.948l-.818-.802a15.083 15.083 0 0 0 1.49-2.219c.469-.844.842-1.651 1.119-2.422h-2.093V23.48h2.588v-5.505l1.089.052v5.453h2.463v1.135h-2.463v1.62l.432-.417Zm-.109-3.328c.201-.375.427-.916.677-1.625.25-.708.429-1.297.536-1.765l1.042.255c-.129.49-.33 1.102-.604 1.838-.271.736-.513 1.297-.724 1.683l-.927-.386Zm-2.98.433c-.073-.47-.218-1.053-.437-1.75a15.929 15.929 0 0 0-.599-1.662l.958-.396c.191.424.403.981.636 1.672.236.688.392 1.227.469 1.62l-1.027.516Zm6.417 7.343h4.464v-4.13h-4.464v4.13Zm22.084-9.65v1.135h-3.615v3.125h2.818v7.39h-1.141v-.979h-3.87v.964h-1.135v-7.375h2.177v-6.933l1.151.032v2.64h3.615Zm-8.912-.449h-3.073v8.146h-1.073v-9.281h5.219v9.219h-1.073v-8.084Zm-1.01.964v5.036c0 .896-.096 1.672-.287 2.328-.191.657-.533 1.296-1.026 1.917-.489.618-1.192 1.288-2.109 2.01l-.735-.942c.83-.608 1.469-1.182 1.917-1.724.448-.545.757-1.1.927-1.667.174-.566.261-1.222.261-1.969v-5.041l1.052.052Zm4.114 9.052h3.87v-4.156h-3.87v4.156Zm-3.823-1.552c.341.288.789.724 1.344 1.307.555.58.949 1.02 1.182 1.318l-.88.88c-.212-.32-.58-.778-1.104-1.375a18.799 18.799 0 0 0-1.281-1.36l.739-.77Zm11.412 5.328c.875-1.365 1.512-2.662 1.911-3.89.399-1.233.599-2.49.599-3.771 0-1.323-.2-2.612-.599-3.865-.399-1.254-1.016-2.531-1.849-3.833h1.313c.83 1.194 1.458 2.418 1.885 3.671.427 1.254.641 2.558.641 3.912 0 1.43-.222 2.781-.667 4.052a15.829 15.829 0 0 1-1.906 3.724h-1.328ZM80.609 49.463v1.042h-9.458v-1.042h4.063a29.23 29.23 0 0 0-.51-1.52l1.181-.225c.129.31.332.891.61 1.745h4.114Zm-9.666-1.375a34.59 34.59 0 0 1-1.281 3.646v10.484h-1.1v-8.245a22.07 22.07 0 0 1-1.328 2.037l-.88-.833c.702-.907 1.337-1.988 1.906-3.245a27.873 27.873 0 0 0 1.453-4.005l1.23.161Zm1.073 6.146v-2.77h7.39v2.77h-7.39Zm1.135-.833h5.136v-1.089H73.15v1.089Zm-1.213 4.494h-1.12v-2.687h9.76v2.687h-1.14v-1.661h-7.5v1.661Zm.349.563v-1.01h6.786v1.01h-2.625v2.016c0 .416-.054.732-.161.948-.105.218-.3.381-.59.489-.287.108-.73.182-1.327.224l-.948.063-.365-1.1 1.073-.067c.361-.021.622-.06.782-.115.16-.052.263-.133.312-.244.049-.112.073-.285.073-.521v-1.693h-3.01Zm18.66-4.755v6.672h5.631v1.12H82.37v-1.12h2.734v-9.87l1.25.047v9.823h3.328V47.817l1.266.047v4.656h4.719v1.183h-4.72Zm15.954-2.573c-.556 1.482-1.158 2.772-1.807 3.87l-1.104-.542c.545-.906 1.059-1.967 1.541-3.182.486-1.22.853-2.356 1.099-3.412l1.214.209a32.433 32.433 0 0 1-.542 1.885h4.734v1.172h-5.135Zm-4.193-3.12 1.12.031v7.662h-1.12V48.01Zm-3.182.589 1.104.03v6.657h-1.104v-6.688Zm8.432 3.12c.417.333.94.817 1.568 1.453.629.631 1.097 1.15 1.406 1.557l-.88.88c-.298-.448-.752-.986-1.359-1.615-.608-.632-1.136-1.123-1.584-1.474l.849-.802Zm2.495 4.624v4.323h1.87v1.068H98.021v-1.068h1.838v-4.323h10.594Zm-7.344 1.073h-2.13v3.25h2.13v-3.25Zm1.011 3.25h2.094v-3.25h-2.094v3.25Zm3.083 0h2.13v-3.25h-2.13v3.25Zm11.271-3.312c-.375-.535-.887-1.127-1.536-1.776v6.765h-1.089V55.88a31.37 31.37 0 0 1-1.839 1.89l-.724-.895c1.868-1.636 3.186-3.355 3.954-5.157h-3.23v-1.166h2.047a26.822 26.822 0 0 0-.771-2.48l1.089-.192c.267.705.535 1.595.802 2.672h1.297v1.166c-.396.92-.882 1.806-1.458 2.657.364.288.751.626 1.161 1.015.41.39.743.74 1 1.052l-.703.912Zm7.021-7.474h-4.834v7.807h-1.119V48.73h7.088v8.927h-1.135V49.88Zm2.463 8.864c-.062.917-.147 1.627-.255 2.13-.073.351-.232.601-.479.75-.247.15-.674.245-1.281.287-.299.02-.528.031-.688.031-.149 0-.383-.01-.703-.031-.587-.042-.993-.177-1.219-.406-.222-.23-.333-.643-.333-1.24v-2.64a7.55 7.55 0 0 1-1.599 2.578c-.726.777-1.707 1.55-2.943 2.317l-.739-1.01c1.205-.701 2.132-1.401 2.781-2.099.653-.701 1.115-1.467 1.385-2.297.275-.833.443-1.873.506-3.12.02-.343.031-1.395.031-3.156l1.172.052-.052 3.23c-.021.916-.096 1.706-.224 2.37l.802.03v3.313c0 .371.05.621.151.75.101.128.328.203.682.224.073.01.222.015.448.015.361 0 .627-.02.797-.062.173-.042.293-.111.359-.208.07-.098.127-.252.172-.464.094-.479.141-1.06.141-1.745l1.088.401ZM71.135 78.328a36.787 36.787 0 0 1-1.182 3.281V92.39h-1.135v-8.495a18.34 18.34 0 0 1-1.537 2.256l-.911-.797a19.26 19.26 0 0 0 2.187-3.443 21.144 21.144 0 0 0 1.459-3.792l1.12.209Zm.927.4h7.412v4.928h-7.412v-4.927Zm1.204 3.808h5.005v-2.688h-5.005v2.688Zm3.244 4.031a11.375 11.375 0 0 0 2.047 2.089 14.958 14.958 0 0 0 2.755 1.719l-.734 1.026c-1.75-.973-3.18-2.172-4.291-3.6v4.542H75.15v-4.495c-.5.685-1.082 1.315-1.745 1.891-.66.573-1.486 1.153-2.479 1.74l-.797-.974a14.257 14.257 0 0 0 2.698-1.771c.813-.677 1.481-1.4 2.005-2.167h-4.015v-1.073h4.333v-1.312l1.136.068v1.244h4.37v1.073H76.51Zm10.578-1.39.053.416c-.257.105-.749.27-1.474.495v4.48c0 .406-.054.713-.162.921a.867.867 0 0 1-.52.438c-.24.086-.605.145-1.094.177l-.85.062-.348-1.104.86-.047c.385-.02.641-.081.77-.182.128-.1.193-.313.193-.635v-3.756c-.726.223-1.483.441-2.271.657l-.292-1.141c.823-.17 1.677-.394 2.563-.672v-3.344h-2v-1.036h2v-3.073l1.15.047v3.026h1.699v1.036h-1.698v2.995a61.143 61.143 0 0 0 1.312-.48l.11.72Zm9.506-1.089h-2.365v1.807h1.933v1.073h-1.933v3.328c0 .438-.059.782-.177 1.032s-.33.44-.635.573c-.302.135-.742.224-1.318.265l-.865.068-.432-1.156.995-.063c.371-.02.642-.06.812-.12.17-.059.282-.158.334-.296.055-.14.083-.358.083-.657v-2.974h-5.661v-1.073h5.661v-1.807h-6.047v-1.057h4.031v-1.969h-3.04v-1.088h3.041V77.91l1.183.047v2.016h3.38v1.088h-3.38v1.969h4.4v1.057Zm-7.714 3.375c.344.299.71.66 1.1 1.084.388.42.678.769.869 1.046l-.828.912a10.36 10.36 0 0 0-.933-1.25c-.371-.438-.716-.8-1.036-1.089l.828-.703Zm11.24-7.198v1.26h-1.188v-2.223h5.745a18.41 18.41 0 0 0-.417-1.214l1.105-.208c.107.267.277.741.51 1.422h5.62v2.224h-1.188v-1.26H100.12Zm3.948 1.23c-.639.298-1.538.649-2.698 1.051-1.156.4-2.108.69-2.854.87l-.396-.958c.82-.16 1.788-.429 2.906-.807 1.122-.382 1.991-.743 2.609-1.084l.433.927Zm2.625-.88c.736.183 1.675.464 2.817.843 1.143.378 2.018.694 2.625.948l-.307 1.041c-.607-.319-1.482-.678-2.625-1.078-1.139-.399-2.092-.69-2.859-.875l.349-.88Zm-.782 1.327c-.149.365-.38.818-.692 1.36h5.588v9.088h-1.156v-.75h-8.911v.75h-1.151v-9.088h4.338c.149-.223.304-.483.464-.782.159-.298.286-.56.38-.786l1.14.208Zm-5.171 8.688h8.911v-6.365h-8.911v6.365Zm3.01-4.287a15.326 15.326 0 0 1-1.969 1.6l-.687-.688a12.742 12.742 0 0 0 1.797-1.365 8.56 8.56 0 0 0 1.338-1.531l.787.578a5.491 5.491 0 0 1-.433.526h3.839v.865a9.01 9.01 0 0 1-1.651 1.745c.92.479 1.529.814 1.828 1.005l-.417.995c-.524-.396-1.286-.855-2.286-1.375-1.07.67-2.441 1.244-4.115 1.724l-.479-.829c1.59-.427 2.806-.885 3.646-1.375a22.731 22.731 0 0 0-1.708-.755l.526-.75c.555.191 1.253.495 2.093.912a6.96 6.96 0 0 0 1.297-1.282h-3.406Zm11.604 5.76V79.449h10.958v12.578h-1.265v-1.412h-8.432v1.49h-1.261Zm1.261-11.405v8.671h8.432v-8.671h-8.432Zm14.083-1.907h11.614v2.959h-11.614v-2.96Zm3.599.818h-2.479v1.328h2.479V79.61Zm3.427 1.328V79.61h-2.401v1.328h2.401Zm1.021 0h2.463V79.61h-2.463v1.328Zm2.578 3.568v6.573h2.302v.948h-14.224v-.948h2.292v-6.573h4.255v-.865h-5.844v-.88h5.844v-.734l1.135.047v.687h5.823v.88h-5.823v.865h4.24Zm-1.167 1.729v-.849h-7.297v.849h7.297Zm-7.297 1.583h7.297V87h-7.297v.817Zm7.297 1.615v-.85h-7.297v.85h7.297Zm0 .75h-7.297v.896h7.297v-.896Zm13.36-8.287.401-2.046h-3.453V78.76h8.619v1.088h-3.932l-.401 2.047h3.391v6.912h-1.151v-5.87h-4.974v5.854h-1.157v-6.896h2.657Zm-3.422-1.76h-1.49v9.568c0 .479-.038.842-.114 1.088a.842.842 0 0 1-.438.537c-.219.11-.557.184-1.016.218l-1.135.079-.401-1.089 1.375-.094c.236-.024.385-.102.448-.234.066-.132.099-.365.099-.698v-9.375h-2.224v-1.151h4.896v1.151Zm4.958 3.698v2.48c0 .971-.13 1.782-.391 2.431-.26.65-.756 1.252-1.489 1.808-.729.555-1.799 1.116-3.208 1.682l-.62-1.026c1.333-.49 2.321-.967 2.963-1.432.646-.466 1.068-.978 1.266-1.537.198-.559.297-1.302.297-2.229v-2.24l1.182.063Zm.432 4.588.417.308c1.472 1.076 2.582 1.946 3.328 2.61l-.734.989a15.51 15.51 0 0 0-1.651-1.505 59.406 59.406 0 0 0-2.047-1.553l.687-.849Zm-85.932 23.396a13.743 13.743 0 0 0-1.031-1.494c-.39-.497-.76-.933-1.115-1.308l.85-.718c.319.298.702.716 1.15 1.255a13.08 13.08 0 0 1 1.042 1.401l-.896.864Zm2.27 8.271-.447-1.01c.215-.115.358-.217.427-.308a.595.595 0 0 0 .104-.364v-9.761h7.198v5.969H73.01v3.969l2.75-.797.224 1.052-1.854.516a29.97 29.97 0 0 1-1.396.396c-.34.087-.644.199-.911.338Zm6.194-8.974v-1.427H73.01v1.427h5.006Zm-5.006 1.021v1.427h5.006v-1.427H73.01Zm3.552 8.625c1.556 0 3.05-.043 4.48-.13l-.276 1.187c-1.782.052-3.136.078-4.063.078l-1.041-.015c-1.258-.031-2.23-.09-2.917-.177a5.757 5.757 0 0 1-1.875-.542c-.56-.278-1.127-.705-1.703-1.281-.278.33-.566.66-.865.989-.299.333-.644.702-1.036 1.105l-.85-.896 2.256-2.318v-4.401h-1.73v-1.135h2.88V119c.515.489 1.011.852 1.49 1.088a5.53 5.53 0 0 0 1.62.49c.605.09 1.413.145 2.427.166l1.204.016Zm-1.843-5.568a78.24 78.24 0 0 1 2.114 1.328c1.077-.618 1.999-1.29 2.766-2.015l.656.797a18.154 18.154 0 0 1-2.495 1.812c1.282.851 2.113 1.431 2.495 1.74l-.593.979c-.48-.417-1.405-1.102-2.777-2.057-1.368-.955-2.26-1.556-2.677-1.802l.51-.782Zm19.49 5.214v-4.479l1.265.047v6.385h-1.266v-.766h-10.62v-5.635l1.245.068v4.38h4.068v-5.708h-4.656v-5.412l1.229.052v4.172h3.427v-5.63l1.198.031v5.599h3.458v-4.224l1.23.052v5.36h-4.688v5.708h4.11Zm5.156-11.615h11.614v2.959H99.365v-2.959Zm3.599.818h-2.48v1.328h2.48v-1.328Zm3.427 1.328v-1.328h-2.401v1.328h2.401Zm1.02 0h2.464v-1.328h-2.464v1.328Zm2.579 3.568v6.573h2.302v.948H98.068v-.948h2.291v-6.573h4.256v-.865h-5.844v-.88h5.844v-.734l1.135.047v.687h5.823v.88h-5.823v.865h4.24Zm-1.167 1.729v-.849h-7.297v.849h7.297Zm-7.297 1.583h7.297V117h-7.297v.817Zm7.297 1.615v-.849h-7.297v.849h7.297Zm0 .75h-7.297v.896h7.297v-.896Zm13.359-8.287.401-2.046h-3.453v-1.089h8.62v1.089h-3.932l-.401 2.046h3.39v6.912h-1.151v-5.87h-4.974v5.854h-1.156v-6.896h2.656Zm-3.422-1.76h-1.489v9.568c0 .479-.038.841-.115 1.088a.84.84 0 0 1-.437.537c-.219.111-.558.183-1.016.218l-1.135.079-.401-1.089 1.375-.094c.236-.024.385-.102.448-.234.066-.132.099-.365.099-.698v-9.375h-2.224v-1.151h4.895v1.151Zm4.959 3.698v2.479c0 .972-.13 1.783-.391 2.432-.26.649-.757 1.252-1.489 1.808-.73.555-1.799 1.116-3.209 1.682l-.62-1.026c1.334-.489 2.322-.967 2.964-1.432.646-.465 1.068-.978 1.266-1.537.198-.559.296-1.302.296-2.229v-2.24l1.183.063Zm.432 4.588.417.308c1.472 1.076 2.581 1.946 3.328 2.609l-.735.99a15.36 15.36 0 0 0-1.651-1.505c-.628-.5-1.31-1.018-2.046-1.553l.687-.849ZM76 143.687h4.88v1.026H66.818v-1.026h4.895v-3.088h-4.16v-1.021h3.744c-.278-.427-.63-.875-1.057-1.344l.88-.594c.607.715 1.03 1.243 1.265 1.584l-.463.354h3.26c.236-.267.493-.592.771-.974.278-.385.492-.707.64-.964l.912.557c-.18.313-.501.773-.963 1.381h3.62v1.021H76v3.088Zm-1.12-3.088h-2.047v3.088h2.047v-3.088Zm-4.75 3.072a10.43 10.43 0 0 0-.906-1.229c-.4-.483-.738-.84-1.016-1.073l.735-.724c.288.267.635.62 1.041 1.058.407.437.71.795.912 1.073l-.766.895Zm6.604-.796c.299-.289.638-.648 1.016-1.079.379-.434.675-.795.89-1.083l.818.641c-.277.34-.612.732-1.005 1.177a13.78 13.78 0 0 1-.948.995l-.77-.651Zm-6.604 9.468h-1.12v-6.416h9.693v6.401h-1.12v-.719H70.13v.734Zm7.453-4.031v-1.328H70.13v1.328h7.453Zm-7.453.99v1.297h7.453v-1.297H70.13Zm15.026-7.167c-.17-.437-.456-.989-.86-1.656a20.732 20.732 0 0 0-1.046-1.61l.896-.573c.288.33.637.823 1.047 1.48.413.656.72 1.192.922 1.609l-.959.75Zm8.35-2.464H87.14v-.989h8.255v.958c-1.313.948-2.353 1.646-3.12 2.094l.031.036-.078.11h3.198v6.562c0 .531-.12.905-.36 1.12-.239.212-.69.349-1.353.412l-.641.067-.333-1.057.78-.063c.247-.021.426-.06.537-.119a.426.426 0 0 0 .224-.256c.038-.114.057-.293.057-.536v-.5h-2.541v2.224h-1.073v-2.224h-2.48v2.401h-1.088v-8.031h3.453c-.68-.5-1.368-.927-2.062-1.281l.578-.797c.66.34 1.401.772 2.224 1.297.608-.344 1.326-.82 2.156-1.428Zm-2.782 4.547v-1.312h-2.48v1.312h2.48Zm1.073 0h2.541v-1.312h-2.541v1.312Zm1.052 6.604c1.313 0 2.646-.026 4-.078l-.224 1.105c-1.354.052-2.682.078-3.984.078-1.323 0-2.438-.021-3.344-.063-1.129-.041-2.04-.225-2.734-.552a4.395 4.395 0 0 1-1.745-1.495c-.459.511-1.125 1.183-2 2.016l-.766-1.057 2.14-1.969v-4.302h-1.791v-1.183h2.948v5.438c.361.673.864 1.163 1.51 1.469.646.302 1.518.479 2.615.531a78.1 78.1 0 0 0 3.375.062Zm-4.604-5.598v1.296h2.479v-1.296h-2.48Zm3.552 0v1.296h2.541v-1.296h-2.541Zm8.323-4.959v1.261h-1.188v-2.224h5.745a18.492 18.492 0 0 0-.417-1.214l1.105-.208c.107.267.277.741.51 1.422h5.62v2.224h-1.188v-1.261H100.12Zm3.948 1.229c-.639.299-1.538.649-2.698 1.052-1.156.399-2.108.689-2.854.87l-.396-.958c.82-.16 1.788-.429 2.906-.807 1.122-.382 1.991-.743 2.609-1.084l.433.927Zm2.625-.88c.736.184 1.675.465 2.817.844 1.143.379 2.018.695 2.625.948l-.307 1.041c-.607-.319-1.482-.679-2.625-1.078-1.139-.399-2.092-.691-2.859-.875l.349-.88Zm-.782 1.328c-.149.365-.38.818-.692 1.36h5.588v9.088h-1.156v-.75h-8.911v.75h-1.151v-9.088h4.338c.149-.223.304-.483.464-.782.159-.299.286-.561.38-.786l1.14.208Zm-5.171 8.688h8.911v-6.365h-8.911v6.365Zm3.01-4.287a15.209 15.209 0 0 1-1.969 1.599l-.687-.687a12.774 12.774 0 0 0 1.797-1.365 8.586 8.586 0 0 0 1.338-1.531l.787.578a5.37 5.37 0 0 1-.433.526h3.839v.865a9.006 9.006 0 0 1-1.651 1.744c.92.479 1.529.815 1.828 1.006l-.417.994c-.524-.395-1.286-.854-2.286-1.375-1.07.671-2.441 1.245-4.115 1.724l-.479-.828c1.59-.427 2.806-.885 3.646-1.375a23.136 23.136 0 0 0-1.708-.755l.526-.75c.555.191 1.253.495 2.093.912a6.976 6.976 0 0 0 1.297-1.282h-3.406Zm11.604 5.761v-12.657h10.958v12.579h-1.265v-1.412h-8.432v1.49h-1.261Zm1.261-11.407v8.672h8.432v-8.672h-8.432Zm20.854.797h-1.042v-1.036h-2.099v-1.042h2.099v-1.521l1.042.032v1.489h2.411v-1.521l1.058.032v1.489h2.416v1.042h-2.416v1.036h-1.058v-1.036h-2.411v1.036Zm-3.589 4.896c-.232-.448-.621-1.017-1.166-1.708v7.599h-1.089v-7.875c-.563 1.409-1.165 2.637-1.807 3.682l-.943-.625a29.839 29.839 0 0 0 1.516-2.703c.493-.983.878-1.911 1.156-2.786h-1.938v-1.037h2.016v-2.995l1.089.032v2.963h1.682v1.037h-1.682v1.89l.307-.286c.222.201.495.514.818.937.326.42.581.774.765 1.063l-.724.812Zm5.459 2.386c.375.618.927 1.133 1.656 1.546.729.41 1.703.731 2.922.964l-.417 1.12c-1.24-.319-2.252-.708-3.036-1.167-.782-.458-1.391-1.012-1.829-1.661-.34.618-.895 1.156-1.666 1.614-.768.459-1.802.863-3.104 1.214l-.573-1.005c1.291-.289 2.288-.648 2.989-1.079.705-.434 1.186-.949 1.443-1.546h-3.682v-.99h3.922a.95.95 0 0 0 .015-.193c.011-.159.016-.458.016-.896h-3.151v-4.864h7.521v4.864h-3.219l-.031.896v.193h4.286v.99h-4.062Zm1.953-4.943v-1.104h-5.412v1.104h5.412Zm0 .833h-5.412v1.12h5.412v-1.12Zm17.651 3.933a17.82 17.82 0 0 1-.354 1.635c-.191.712-.421 1.203-.688 1.474a1.31 1.31 0 0 1-.974.411c-.385 0-.752-.128-1.099-.385-.347-.253-.696-.691-1.047-1.313-.437-.788-.809-1.906-1.114-3.354-.302-1.451-.513-3.212-.631-5.281h-7.729v-1.172h7.683l-.094-2.703 1.26.047c0 .802.021 1.687.063 2.656h2.771a12.644 12.644 0 0 0-.818-1.078 11.16 11.16 0 0 0-.849-.937l.802-.672c.247.205.559.531.937.979.379.448.674.826.886 1.135l-.542.573h1.521v1.172h-4.641c.15 2.121.36 3.844.631 5.167s.63 2.352 1.078 3.088c.288.479.604.719.948.719.139 0 .264-.082.375-.245.111-.167.22-.479.328-.937.149-.653.239-1.139.271-1.459l1.026.48Zm-5.922 1.01.015.542a209.8 209.8 0 0 1-3.921.567c-1.598.219-2.861.377-3.792.474l-.188-1.151a109.2 109.2 0 0 0 3.375-.416v-4.209h-2.718v-1.135h6.656v1.135h-2.693v4.047c1.462-.212 2.545-.377 3.25-.495l.016.641Zm-82.526 28.432a15.083 15.083 0 0 0 2.37-1.76 11.863 11.863 0 0 0 1.807-2.047H71.01v-1.135h3.964v-5.089l1.203.047v5.042h4.333v1.135h-4.333v1.516l.688-.797c.545.361 1.208.854 1.99 1.479.784.625 1.39 1.156 1.817 1.594l-.656 1.036a29.37 29.37 0 0 0-1.933-1.766 26.032 26.032 0 0 0-1.906-1.494v4.239h-1.203v-4.479c-.958 1.309-2.217 2.493-3.776 3.552l-.703-1.073Zm-.974-5.859c-.236-.448-.582-.993-1.037-1.636-.451-.645-.831-1.128-1.14-1.447l.943-.74c.298.319.682.795 1.15 1.427.473.629.82 1.134 1.042 1.516l-.958.88Zm3.76.354c-.205-.437-.535-.979-.99-1.625a17.345 17.345 0 0 0-1.156-1.51l.88-.672c.32.34.709.828 1.167 1.463.459.635.8 1.155 1.026 1.558l-.927.786Zm6.781-3.135c-.222.417-.562.943-1.02 1.578-.459.632-.85 1.12-1.172 1.463l-.896-.692c.309-.309.684-.778 1.125-1.407.444-.628.785-1.161 1.02-1.599l.944.657Zm-3.197 11.421c1.354 0 2.788-.036 4.302-.109l-.271 1.182a147.52 147.52 0 0 1-4.063.079l-1.041-.016c-1.257-.031-2.231-.09-2.922-.177a5.701 5.701 0 0 1-1.87-.542c-.559-.278-1.127-.705-1.703-1.281l-1.906 2.099-.85-.896 2.261-2.323v-4.396h-1.73v-1.14h2.897v5.776c.51.493 1.005.857 1.484 1.093a5.542 5.542 0 0 0 1.62.48c.597.083 1.403.135 2.417.156.298.01.757.015 1.375.015Zm9.536-7.02a20.223 20.223 0 0 0 1.63-2.823c.514-1.063.915-2.08 1.203-3.052l1.22.161a22.805 22.805 0 0 1-.74 1.953h6.354v1.151l-1.281 2.657-1.09-.402 1.12-2.255h-5.614c-.628 1.292-1.236 2.375-1.823 3.25l-.979-.64Zm.292-5.552a31.207 31.207 0 0 1-1.25 3.328v10.672h-1.136v-8.448c-.396.68-.854 1.383-1.375 2.109l-.849-.75c.66-.951 1.304-2.066 1.933-3.344a20.674 20.674 0 0 0 1.442-3.76l1.235.193Zm4.24 4.224 1.166.031v7.937c0 .403-.059.719-.177.948-.118.229-.325.403-.62.521-.292.118-.708.193-1.25.224l-.802.062-.417-1.197.964-.063c.33-.021.571-.059.724-.115a.52.52 0 0 0 .323-.26c.059-.125.088-.303.088-.536v-7.552Zm-1.443 2.604c-.299.972-.68 1.968-1.146 2.989a29.026 29.026 0 0 1-1.464 2.823l-1.02-.448c.489-.802.979-1.722 1.468-2.76a21.101 21.101 0 0 0 1.14-2.891l1.022.287Zm4.703-.287c.406.663.875 1.587 1.406 2.771.535 1.184.92 2.149 1.156 2.896l-.995.604c-.232-.778-.61-1.771-1.135-2.979-.52-1.212-.98-2.155-1.375-2.828l.943-.464Zm5.927-4.526v1.261h-1.188v-2.224h5.745a18.492 18.492 0 0 0-.417-1.214l1.105-.208c.107.267.277.741.51 1.422h5.62v2.224h-1.188v-1.261H100.12Zm3.948 1.229c-.639.299-1.538.649-2.698 1.052-1.156.399-2.108.689-2.854.87l-.396-.958c.82-.16 1.788-.429 2.906-.807 1.122-.382 1.991-.743 2.609-1.084l.433.927Zm2.625-.88c.736.184 1.675.465 2.817.844 1.143.379 2.018.695 2.625.948l-.307 1.041c-.607-.319-1.482-.679-2.625-1.078-1.139-.399-2.092-.691-2.859-.875l.349-.88Zm-.782 1.328c-.149.365-.38.818-.692 1.36h5.588v9.088h-1.156v-.75h-8.911v.75h-1.151v-9.088h4.338c.149-.223.304-.483.464-.782.159-.299.286-.561.38-.786l1.14.208Zm-5.171 8.688h8.911v-6.365h-8.911v6.365Zm3.01-4.287a15.209 15.209 0 0 1-1.969 1.599l-.687-.687a12.774 12.774 0 0 0 1.797-1.365 8.586 8.586 0 0 0 1.338-1.531l.787.578a5.37 5.37 0 0 1-.433.526h3.839v.865a9.006 9.006 0 0 1-1.651 1.744c.92.479 1.529.815 1.828 1.006l-.417.994c-.524-.395-1.286-.854-2.286-1.375-1.07.671-2.441 1.245-4.115 1.724l-.479-.828c1.59-.427 2.806-.885 3.646-1.375a23.136 23.136 0 0 0-1.708-.755l.526-.75c.555.191 1.253.495 2.093.912a6.976 6.976 0 0 0 1.297-1.282h-3.406Zm11.604 5.761v-12.657h10.958v12.579h-1.265v-1.412h-8.432v1.49h-1.261Zm1.261-11.407v8.672h8.432v-8.672h-8.432Zm20.854.797h-1.042v-1.036h-2.099v-1.042h2.099v-1.521l1.042.032v1.489h2.411v-1.521l1.058.032v1.489h2.416v1.042h-2.416v1.036h-1.058v-1.036h-2.411v1.036Zm-3.589 4.896c-.232-.448-.621-1.017-1.166-1.708v7.599h-1.089v-7.875c-.563 1.409-1.165 2.637-1.807 3.682l-.943-.625a29.839 29.839 0 0 0 1.516-2.703c.493-.983.878-1.911 1.156-2.786h-1.938v-1.037h2.016v-2.995l1.089.032v2.963h1.682v1.037h-1.682v1.89l.307-.286c.222.201.495.514.818.937.326.42.581.774.765 1.063l-.724.812Zm5.459 2.386c.375.618.927 1.133 1.656 1.546.729.41 1.703.731 2.922.964l-.417 1.12c-1.24-.319-2.252-.708-3.036-1.167-.782-.458-1.391-1.012-1.829-1.661-.34.618-.895 1.156-1.666 1.614-.768.459-1.802.863-3.104 1.214l-.573-1.005c1.291-.289 2.288-.648 2.989-1.079.705-.434 1.186-.949 1.443-1.546h-3.682v-.99h3.922a.95.95 0 0 0 .015-.193c.011-.159.016-.458.016-.896h-3.151v-4.864h7.521v4.864h-3.219l-.031.896v.193h4.286v.99h-4.062Zm1.953-4.943v-1.104h-5.412v1.104h5.412Zm0 .833h-5.412v1.12h5.412v-1.12Zm17.651 3.933a17.82 17.82 0 0 1-.354 1.635c-.191.712-.421 1.203-.688 1.474a1.31 1.31 0 0 1-.974.411c-.385 0-.752-.128-1.099-.385-.347-.253-.696-.691-1.047-1.313-.437-.788-.809-1.906-1.114-3.354-.302-1.451-.513-3.212-.631-5.281h-7.729v-1.172h7.683l-.094-2.703 1.26.047c0 .802.021 1.687.063 2.656h2.771a12.644 12.644 0 0 0-.818-1.078 11.16 11.16 0 0 0-.849-.937l.802-.672c.247.205.559.531.937.979.379.448.674.826.886 1.135l-.542.573h1.521v1.172h-4.641c.15 2.121.36 3.844.631 5.167s.63 2.352 1.078 3.088c.288.479.604.719.948.719.139 0 .264-.082.375-.245.111-.167.22-.479.328-.937.149-.653.239-1.139.271-1.459l1.026.48Zm-5.922 1.01.015.542a209.8 209.8 0 0 1-3.921.567c-1.598.219-2.861.377-3.792.474l-.188-1.151a109.2 109.2 0 0 0 3.375-.416v-4.209h-2.718v-1.135h6.656v1.135h-2.693v4.047c1.462-.212 2.545-.377 3.25-.495l.016.641Zm-72.302 32.365c-2.024-.16-3.648-.355-4.87-.584-1.222-.229-2.26-.545-3.115-.948-.541.413-1.253.783-2.135 1.11-.879.326-2 .649-3.365.968l-.484-1.073c1.25-.288 2.259-.557 3.026-.807.767-.25 1.386-.529 1.854-.838-.65-.448-1.385-1.089-2.208-1.922l.786-.703c.726.788 1.483 1.422 2.271 1.901.406-.479.669-1.139.787-1.979h-4.688v-5.907h4.75v-1.422h-5.937v-1.073h13.041v1.073h-5.89v1.422h4.708v5.907h-4.77c-.119 1.031-.418 1.867-.897 2.51.844.351 1.858.62 3.042.807 1.184.187 2.646.302 4.385.344l-.291 1.214Zm-7.39-8.365v-1.443H69.76v1.443h3.568Zm4.75 0v-1.443h-3.537v1.443h3.536Zm-8.319.974v1.489h3.568v-1.489H69.76Zm4.782 1.489h3.536v-1.489h-3.536v1.489Zm22.406 5.183-.802 1.073c-1.674-1.122-3.002-2.263-3.984-3.422a14.724 14.724 0 0 1-1.87 1.745 25.159 25.159 0 0 1-2.532 1.724l-.75-1.053c1.962-1.101 3.434-2.21 4.417-3.328a12.089 12.089 0 0 1-1.875-4.13c-.222.361-.472.74-.75 1.136l-.781-.865c.608-.854 1.166-1.87 1.677-3.047.514-1.177.872-2.278 1.073-3.302l1.166.24a18.882 18.882 0 0 1-.75 2.395h5.297v1.157H95.09c-.17 1.365-.43 2.559-.776 3.583a10.908 10.908 0 0 1-1.412 2.813c.99 1.131 2.339 2.225 4.047 3.281Zm-8.594-3.12.193 1.266c-.33.17-.762.373-1.297.609l-2.688 1.276c-.427.236-.779.45-1.057.641l-.604-1.167c.243-.181.396-.32.458-.417a.675.675 0 0 0 .1-.385v-5.948h3.234v-3.667h-3.605v-1.198h4.818v6H84.61v4.766l3.745-1.776Zm3.808-1.089a9.572 9.572 0 0 0 1.16-2.421c.282-.882.487-1.898.615-3.047h-3.213c-.097.233-.226.514-.386.843.289 1.761.896 3.302 1.824 4.625Zm10.307-8.718a36.672 36.672 0 0 1-1.183 3.281v10.781h-1.135v-8.495c-.448.778-.96 1.53-1.536 2.256l-.912-.797a19.22 19.22 0 0 0 2.188-3.443 21.13 21.13 0 0 0 1.458-3.792l1.12.209Zm.927.401h7.411v4.927h-7.411v-4.927Zm1.203 3.807h5.005v-2.687h-5.005v2.687Zm3.245 4.031a11.35 11.35 0 0 0 2.047 2.089 14.924 14.924 0 0 0 2.755 1.719l-.735 1.026c-1.75-.973-3.18-2.172-4.291-3.599v4.541h-1.136v-4.494c-.5.684-1.081 1.314-1.744 1.89-.66.573-1.487 1.153-2.48 1.74l-.796-.974a14.25 14.25 0 0 0 2.697-1.771c.813-.677 1.481-1.4 2.006-2.167h-4.016v-1.073h4.333v-1.312l1.136.068v1.244h4.37v1.073h-4.146Zm11.635-5.823a19.287 19.287 0 0 1-2.015 3.282v8.38h-1.152v-7.021a30.515 30.515 0 0 1-2.13 2.047l-.812-.943c1.993-1.653 3.555-3.568 4.687-5.745h-3.698v-1.088h4.224c.257-.566.481-1.168.672-1.807l1.266.208c-.17.531-.363 1.064-.578 1.599h7.599v1.088h-8.063Zm8.401 5.823v1.104h-4.146l.016 2.704c0 .493-.056.864-.167 1.114-.111.25-.321.436-.63.557-.309.125-.785.214-1.427.266l-.911.078-.401-1.151 1.088-.094c.386-.031.663-.079.833-.145.171-.063.285-.158.344-.287.059-.129.089-.332.089-.609l-.016-2.433h-4.177v-1.104h4.177v-1.182l2.386-1.714h-5.62v-1.057h7.489v1.057l-3.073 2.256v.64h4.146Zm6-8.495a35.941 35.941 0 0 1-1.276 3.422v10.688h-1.151v-8.432a22.183 22.183 0 0 1-1.604 2.369l-.943-.849a24.871 24.871 0 0 0 2.177-3.526 21.984 21.984 0 0 0 1.537-3.88l1.26.208Zm9.412 2.464v1.135h-9.344v-1.135h4.24c-.098-.34-.237-.743-.417-1.208-.181-.465-.33-.842-.448-1.131l1.12-.317c.107.225.276.645.505 1.26.229.611.391 1.077.484 1.396h3.86Zm.286 9.823v1.12H133.5v-1.12h5.021c.396-1.055.823-2.385 1.281-3.99.458-1.607.785-2.911.979-3.911l1.261.255c-.212.989-.547 2.248-1.006 3.776a61.915 61.915 0 0 1-1.281 3.87h3.823Zm-6.927-1.005c-.108-.833-.349-1.922-.724-3.266-.371-1.344-.722-2.415-1.052-3.213l1.12-.323c.319.757.668 1.805 1.047 3.145.378 1.337.621 2.407.729 3.209l-1.12.448Zm9.714-10.563h11.614v2.959h-11.614v-2.959Zm3.599.818h-2.48v1.328h2.48v-1.328Zm3.427 1.328v-1.328h-2.401v1.328h2.401Zm1.02 0h2.464v-1.328h-2.464v1.328Zm2.579 3.568v6.573h2.302v.948h-14.224v-.948h2.291v-6.573h4.256v-.865h-5.844v-.88h5.844v-.734l1.135.046v.688h5.823v.88h-5.823v.865h4.24Zm-1.167 1.729v-.849h-7.297v.849h7.297Zm-7.297 1.583h7.297V207h-7.297v.817Zm7.297 1.615v-.849h-7.297v.849h7.297Zm0 .75h-7.297v.896h7.297v-.896Zm-74.927 19.937v1.136h-3.969v2.271h3.313v1.119h-7.698v-1.119h3.187v-2.271h-3.474v-1.136h3.474v-2.192l1.198.047v2.145h3.969ZM67.12 233.88l-.24-1.12c.16-.052.275-.104.344-.156.07-.056.147-.148.234-.276.31-.407.7-1.049 1.172-1.927.476-.882.874-1.702 1.193-2.459l.995.417a28.889 28.889 0 0 1-1.162 2.354c-.475.875-.868 1.526-1.177 1.953.056 0 .563-.028 1.521-.083l.542-.031c.298-.521.534-.954.708-1.297l.927.432c-.448.906-.943 1.8-1.484 2.682a30.874 30.874 0 0 1-1.459 2.198l2.797-.401.031 1.12c-.427.055-1.013.137-1.76.245-.746.104-1.37.199-1.87.286a4.46 4.46 0 0 0-.927.177l-.255-1.156a2.36 2.36 0 0 0 .484-.203c.101-.066.21-.179.329-.339a23.07 23.07 0 0 0 1.843-2.656l-.64.047c-.525.031-1.006.064-1.443.099a6.253 6.253 0 0 0-.703.094Zm6.958 8.495h-1.182v-6h6.896v6h-1.198v-1.053h-4.516v1.053Zm4.516-2.125v-2.787h-4.516v2.787h4.516Zm-6.13-.178.015.402c-.694.139-1.639.309-2.833.51a90.775 90.775 0 0 1-2.88.448l-.125-1.12a56.067 56.067 0 0 0 2.885-.458 51.428 51.428 0 0 0 2.89-.584l.047.802Zm18.276-3.505c.715.778 1.583 1.519 2.604 2.224a17.938 17.938 0 0 0 3.474 1.839l-.61 1.088c-1.385-.67-2.576-1.354-3.573-2.052-.996-.701-1.842-1.446-2.536-2.234v4.896h-1.198v-4.881c-1.496 1.663-3.52 3.087-6.068 4.271l-.687-1.104a18.685 18.685 0 0 0 3.422-1.828 18.416 18.416 0 0 0 2.692-2.219h-4.255v-4.286h4.896v-1.651h-6.02v-1.136h6.02v-1.599l1.198.047v1.552h6v1.136h-6v1.651h4.88v4.286h-4.24Zm-1.839-3.245h-3.713v2.224H88.9v-2.224Zm4.896 2.224v-2.224h-3.698v2.224h3.698Zm9.25 2.412c-.16-.288-.382-.632-.667-1.031a16.027 16.027 0 0 0-.823-1.078v6.609h-1.026v-6.656a19.99 19.99 0 0 1-1.807 3.63l-.958-.656a18.005 18.005 0 0 0 1.536-2.568c.469-.945.847-1.854 1.136-2.729h-2.032v-1.136h2.125v-2.109c-.767.149-1.422.24-1.963.271l-.224-1.104c.65-.042 1.493-.167 2.531-.375 1.042-.209 1.882-.421 2.521-.636l.224 1.089c-.629.215-1.316.398-2.063.547v2.317h1.985v1.136h-1.985v1.713l.448-.385c.257.257.577.625.959 1.104.385.479.673.875.864 1.188l-.781.859Zm1.135-9.151h6.797v4.255h-6.797v-4.255Zm1.089 3.234h4.573v-2.192h-4.573v2.192Zm2.864 6.589v1.875h4.047v1.135h-9.328v-1.135h4.141v-1.875h-2.912v-1.104h2.912v-1.886h-3.307v-1.104h8v1.104h-3.553v1.886h3.037v1.104h-3.037Zm19.631-9.229v1.135h-11.12v3.885c0 1.333-.059 2.436-.177 3.308a10.359 10.359 0 0 1-.568 2.338c-.26.688-.635 1.468-1.125 2.339l-1.042-.557c.469-.768.827-1.482 1.073-2.141a9.948 9.948 0 0 0 .526-2.193c.108-.802.162-1.79.162-2.963v-5.151h5.651a49.156 49.156 0 0 0-.5-1.459l1.187-.224c.094.215.29.776.589 1.683h5.344Zm-4.735 6.463h4.578v1.042l-1.505 2.812-1.104-.479 1.344-2.302h-3.36v3.484c0 .483-.067.846-.203 1.089a1.09 1.09 0 0 1-.63.521c-.288.101-.71.174-1.266.219l-1.052.078-.385-1.12 1.182-.078c.365-.021.623-.055.776-.104.156-.049.261-.137.313-.266.055-.129.083-.332.083-.609v-3.214h-4.687v-1.073h4.588a35.841 35.841 0 0 0-2.542-1.854l.641-.724a33.542 33.542 0 0 1 2.333 1.568c1.355-.872 2.309-1.506 2.865-1.901h-7.167v-1.058h8.927v1.089c-.267.201-.802.573-1.604 1.115-.798.538-1.512 1.008-2.14 1.411.041.045.105.099.192.161l-.177.193ZM73.406 261.13a10.56 10.56 0 0 0 1.136-1.568c.323-.545.628-1.149.916-1.812l1.214.208c-.222.493-.446.935-.672 1.328h4.61v.995h-2.818c.395.587.694 1.061.895 1.422l-.849.593c-.232-.489-.652-1.161-1.26-2.015h-1.172c-.298.469-.628.927-.99 1.375l-1.01-.526Zm-3.854-.849a17.426 17.426 0 0 1-1.745 2.208l-.927-.687c.577-.577 1.1-1.228 1.573-1.953.476-.726.863-1.414 1.162-2.063l1.265.224c-.267.521-.501.946-.703 1.276h3.677v.995h-2.526c.288.521.556 1.038.802 1.552l-1.01.495a11.508 11.508 0 0 0-.464-1.063c-.19-.389-.366-.717-.526-.984h-.578Zm11.198 5.729h-3.328v1.292H80v1.041h-2.578v1.938c0 .5-.07.878-.209 1.135-.135.257-.385.447-.75.568-.36.121-.914.215-1.66.281l-.933.078-.38-1.135 1.182-.094c.458-.045.788-.101.99-.167.204-.062.341-.161.41-.296.07-.139.105-.365.105-.677v-1.631h-5.922c.386.226.839.526 1.36.901.524.372.961.702 1.312.99l-.672 1.052c-.309-.33-.738-.696-1.286-1.099a22.512 22.512 0 0 0-1.495-1.026l.573-.818h-2.573v-1.041h8.703v-1.292h-9.443v-1.026h6.386v-1.422h-4.927v-.963h4.927v-.99l1.25.078v.912h4.911v.963H74.37v1.422h6.38v1.026Zm6.375-7.344c-.396.587-.976 1.278-1.74 2.073a32.981 32.981 0 0 1-2.213 2.115l-.787-.912c.664-.51 1.374-1.164 2.13-1.963.757-.802 1.34-1.497 1.745-2.084l.865.771Zm9.469 5.485h-2.51v1.807h2.109v1.088h-2.11v3.12c0 .514-.057.898-.171 1.151-.112.257-.322.447-.63.568-.31.125-.789.213-1.438.266l-.85.067-.369-1.119.948-.068c.392-.031.677-.08.854-.146a.538.538 0 0 0 .349-.318c.06-.149.089-.384.089-.703v-2.818H86.9v-1.088h5.964v-1.807h-6.302v-1.089h4.192v-1.984h-3.203v-1.104h3.203v-1.98l1.25.047v1.933h3.552v1.104h-3.552v1.984h4.589v1.089Zm-9.63-1.954c-.32.587-.773 1.277-1.36 2.068v8.078h-1.12v-6.703a19.508 19.508 0 0 1-1.697 1.714l-.735-.912c.66-.545 1.379-1.286 2.156-2.224.782-.941 1.396-1.8 1.844-2.578l.911.557Zm1.552 5.157c.32.299.7.681 1.14 1.146.445.461.773.836.985 1.125l-.813.974c-.236-.361-.568-.79-.995-1.287a15.1 15.1 0 0 0-1.104-1.177l.787-.781Zm9.713-7.104v-1.204h13.891v1.204h-6.693v12.015h-1.276V260.25h-5.922Zm8.24 2.192a44.94 44.94 0 0 1 2.432 1.927c.906.761 1.594 1.393 2.063 1.896l-.766 1.12a31.039 31.039 0 0 0-2.219-2.161c-.889-.799-1.647-1.422-2.276-1.87l.766-.912Zm21.442.412h-4.432c.139 1.708.347 3.17.625 4.385.715-1.024 1.323-2.272 1.823-3.745l1.042.433a24.635 24.635 0 0 1-1.157 2.588c-.392.75-.838 1.455-1.338 2.115.17.514.335.951.495 1.312.159.344.3.585.422.724.125.139.262.209.411.209.139 0 .245-.094.318-.282.076-.187.161-.526.255-1.015.056-.278.109-.71.161-1.297l1.058.463a8.507 8.507 0 0 1-.084.683c-.031.205-.078.468-.14.791-.15.747-.351 1.262-.604 1.547a1.22 1.22 0 0 1-.964.432c-.364 0-.689-.12-.974-.359-.281-.239-.561-.642-.838-1.208a14.589 14.589 0 0 1-.381-.943c-.618.684-1.408 1.425-2.369 2.224l-.834-.927c1.153-.875 2.087-1.73 2.802-2.563-.448-1.607-.757-3.463-.927-5.567h-8.448v-1.037h3.729v-1.458h-2.916v-.974h2.916v-1.568l1.136.047v1.521h2.797v.974h-2.797v1.458h3.516l-.032-.833-.109-3.281 1.151.047.146 3.458.031.609h4.51v1.037Zm-1.697-1.532c-.33-.437-.714-.875-1.152-1.312a10.518 10.518 0 0 0-1.135-1.01l.719-.719c.312.212.679.514 1.099.906.42.389.812.807 1.177 1.255l-.708.88Zm-4.589 8.464c-.226.031-.931.101-2.115.208l-.463.047v2.209h-1.151v-2.115c-1.771.16-3.195.255-4.271.286l-.13-1.036c.916-.011 2.383-.096 4.401-.255v-1.188h-3.026v-.974c.385-.587.732-1.168 1.041-1.744h-1.713v-1.006h2.26c.16-.288.346-.673.558-1.156l1.104.276-.417.88h4v1.006h-4.51c-.32.597-.646 1.168-.979 1.713h1.682v-1.167l1.151.047v1.12h2.479v1.005h-2.479v1.089l.385-.031a87.527 87.527 0 0 0 2.177-.224v.479l.016.531Zm21.25-9.365c-.01.813-.043 2.361-.099 4.646a183.095 183.095 0 0 1-.172 5.183c-.031.458-.104.812-.219 1.062a1.07 1.07 0 0 1-.552.552c-.253.118-.621.198-1.104.24l-1.375.114-.385-1.218 1.552-.094c.288-.021.498-.097.63-.229.135-.135.214-.401.234-.797.098-1.719.177-4.491.24-8.318h-3.583a22.65 22.65 0 0 1-1.037 2.224l-1.088-.578c.458-.767.878-1.635 1.26-2.604.385-.973.695-1.935.927-2.886l1.172.24a40.359 40.359 0 0 1-.786 2.463h4.385Zm-8.927-2.286a19.841 19.841 0 0 1-.719 2.464h2.479v11.25h-5.458v-11.25h1.651c.243-.66.493-1.572.75-2.735l1.297.271Zm-2.578 7.411h3.219v-3.796h-3.219v3.796Zm7.953 2.797a25.013 25.013 0 0 0-2.162-3.661l.912-.61a25.642 25.642 0 0 1 2.276 3.584l-1.026.687Zm-7.953-1.63v4.031h3.219v-4.031h-3.219Zm28.083 4.766-.833.864c-1.226-.958-2.222-1.972-2.99-3.041-.736.961-1.835 1.965-3.297 3.01l-.734-.896c1.493-.983 2.623-2.023 3.391-3.12-.757-1.323-1.27-2.88-1.537-4.671-.236.406-.417.71-.542.911l-.895-.75c.573-.705 1.078-1.604 1.515-2.698a15.78 15.78 0 0 0 .917-3.13l1.12.276a23.286 23.286 0 0 1-.672 2.286h4.302v1.151h-1.234c-.139 1.549-.332 2.837-.579 3.865a10.103 10.103 0 0 1-1.083 2.776c.736 1.066 1.786 2.122 3.151 3.167ZM144.688 265a12.361 12.361 0 0 0 1.989-1.224 11.31 11.31 0 0 0 1.609-1.464h-3.088v-.974h3.328v-3.281l1.073.062v3.219h2.927v.974h-2.927v2.974h-1.073v-1.932c-.896.979-1.984 1.815-3.266 2.51l-.572-.864Zm7.739-6.178c-.149.344-.354.74-.615 1.188-.26.448-.503.811-.729 1.089l-.828-.454c.212-.274.438-.625.677-1.052.24-.427.429-.817.568-1.172l.927.401Zm-5.63 2.256a8.625 8.625 0 0 0-.443-1.141c-.194-.434-.382-.8-.562-1.099l.88-.318c.149.247.326.594.531 1.042.208.448.377.853.505 1.214l-.911.302Zm8.833 6.114c.34-.715.61-1.516.808-2.401.197-.885.35-1.925.458-3.12h-2.485l-.192.448c.118 1.014.288 1.938.51 2.771.226.83.526 1.597.901 2.302Zm-3.791-1.646a17.775 17.775 0 0 0-2.016-2.114l.641-.594c.263.215.585.507.963.875.379.368.729.733 1.052 1.094l-.64.739Zm-.547 5.901a28.497 28.497 0 0 0-1.886-1.005c-.941.639-2.264 1.247-3.968 1.823l-.563-1.01c1.497-.417 2.649-.865 3.458-1.344a48.326 48.326 0 0 0-2.385-1.021c.299-.472.597-.984.896-1.536h-1.823v-.964h2.302c.215-.489.371-.857.469-1.104l1.02.339c-.062.17-.168.425-.317.765h3.437v.912c-.243.513-.493.963-.75 1.349-.257.382-.56.743-.911 1.083.437.184.922.408 1.453.672l-.432 1.041Zm-2.032-2.161c.32-.264.594-.55.823-.859.229-.313.452-.67.667-1.073h-2.703c-.087.159-.3.543-.641 1.151.608.247 1.226.507 1.854.781Zm13.282-10.844h10.578v3.693h-10.578v-3.693Zm9.38 1.485v-.703h-8.162v.703h8.162Zm-8.162.718v.724h8.162v-.724h-8.162Zm-3.041 3.089v-.844h14.224v.844h-14.224Zm12.802 6.484h-5.104v.912h6.192v.844h-13.552v-.844h6.209v-.912h-5.12v-.849h5.12v-.927h-4.74v-3.875h10.594v3.875h-4.703v.927h5.104v.849Zm-6.255-4.099v-.781h-3.537v.781h3.537Zm1.151 0h3.505v-.781h-3.505v.781Zm-4.688.756v.781h3.537v-.781h-3.537Zm4.688 0v.781h3.505v-.781h-3.505ZM66.896 290.25v-1.204h13.89v1.204h-6.692v12.015h-1.276V290.25h-5.922Zm8.24 2.192a44.936 44.936 0 0 1 2.432 1.927c.906.761 1.594 1.393 2.062 1.896l-.765 1.12a31.117 31.117 0 0 0-2.22-2.161c-.888-.799-1.647-1.422-2.275-1.87l.765-.912Zm21.442.412h-4.432c.139 1.708.347 3.17.625 4.385.715-1.024 1.323-2.272 1.823-3.745l1.041.433c-.375.972-.76 1.835-1.156 2.588-.392.75-.838 1.455-1.338 2.115.17.514.335.951.494 1.312.16.344.3.585.422.724.125.139.263.209.412.209.139 0 .245-.094.318-.282.076-.187.16-.526.255-1.015.055-.278.109-.71.161-1.297l1.057.463c-.02.247-.048.474-.083.683-.031.205-.078.468-.14.791-.15.747-.351 1.262-.605 1.547-.25.288-.57.432-.963.432-.365 0-.69-.12-.974-.359-.282-.239-.561-.642-.839-1.208a14.872 14.872 0 0 1-.38-.943c-.618.684-1.408 1.425-2.37 2.224l-.833-.927c1.153-.875 2.087-1.73 2.802-2.563-.448-1.607-.757-3.463-.927-5.567H82.5v-1.037h3.73v-1.458h-2.918v-.974h2.917v-1.568l1.136.047v1.521h2.797v.974h-2.797v1.458h3.515l-.031-.833-.11-3.281 1.152.047.145 3.458.032.609h4.51v1.037Zm-1.698-1.532c-.33-.437-.713-.875-1.15-1.312a10.623 10.623 0 0 0-1.136-1.01l.719-.719a9.63 9.63 0 0 1 1.099.906c.42.389.812.807 1.176 1.255l-.708.88Zm-4.588 8.464c-.226.031-.93.101-2.115.208l-.464.047v2.209h-1.15v-2.115c-1.771.16-3.195.255-4.271.286l-.13-1.036c.916-.011 2.383-.096 4.4-.255v-1.188h-3.025v-.974c.385-.587.732-1.168 1.041-1.744h-1.713v-1.006h2.26a14 14 0 0 0 .557-1.156l1.105.276-.417.88h4v1.006h-4.51c-.32.597-.647 1.168-.98 1.713h1.683v-1.167l1.15.047v1.12h2.48v1.005h-2.48v1.089L88.1 299a87.882 87.882 0 0 0 2.177-.224v.479l.016.531Zm15.489-8.896h5.375v6.766h-5.375v4.687H104.5v-4.687h-5.328v-6.766h5.328v-3.104l1.281.063v3.041Zm-5.359 1.182v4.402h4.078v-4.402h-4.078Zm5.359 4.402h4.146v-4.402h-4.146v4.402Zm21.427-6.053c-.01.813-.043 2.361-.099 4.646a187.866 187.866 0 0 1-.171 5.183c-.032.458-.105.812-.219 1.062a1.07 1.07 0 0 1-.552.552c-.254.118-.622.198-1.105.24l-1.374.114-.386-1.218 1.552-.094c.288-.021.498-.097.63-.229.136-.135.214-.401.235-.797.097-1.719.177-4.491.239-8.318h-3.583a22.63 22.63 0 0 1-1.036 2.224l-1.089-.578c.458-.767.878-1.635 1.26-2.604.386-.973.695-1.935.928-2.886l1.171.24a40.359 40.359 0 0 1-.786 2.463h4.385Zm-8.927-2.286a19.671 19.671 0 0 1-.719 2.464h2.48v11.25h-5.459v-11.25h1.651c.243-.66.493-1.572.75-2.735l1.297.271Zm-2.578 7.411h3.219v-3.796h-3.219v3.796Zm7.953 2.797a25.008 25.008 0 0 0-2.161-3.661l.911-.61a25.642 25.642 0 0 1 2.276 3.584l-1.026.687Zm-7.953-1.63v4.031h3.219v-4.031h-3.219Zm28.083 4.766-.833.864c-1.226-.958-2.222-1.972-2.989-3.041-.737.961-1.835 1.965-3.297 3.01l-.735-.896c1.493-.983 2.624-2.023 3.391-3.12-.757-1.323-1.269-2.88-1.537-4.671-.236.406-.416.71-.541.911l-.896-.75c.573-.705 1.078-1.604 1.516-2.698.437-1.094.743-2.137.916-3.13l1.12.276a23.286 23.286 0 0 1-.672 2.286h4.302v1.151h-1.234c-.139 1.549-.332 2.837-.578 3.865a10.072 10.072 0 0 1-1.084 2.776c.737 1.066 1.787 2.122 3.151 3.167ZM129.021 295a12.274 12.274 0 0 0 1.989-1.224 11.374 11.374 0 0 0 1.61-1.464h-3.089v-.974h3.328v-3.281l1.073.062v3.219h2.927v.974h-2.927v2.974h-1.073v-1.932c-.895.979-1.984 1.815-3.265 2.51l-.573-.864Zm7.739-6.178c-.149.344-.354.74-.614 1.188a8.791 8.791 0 0 1-.729 1.089l-.828-.454c.211-.274.437-.625.677-1.052.239-.427.428-.817.567-1.172l.927.401Zm-5.63 2.256a8.747 8.747 0 0 0-.442-1.141c-.195-.434-.382-.8-.563-1.099l.88-.318c.15.247.327.594.531 1.042.209.448.377.853.506 1.214l-.912.302Zm8.834 6.114c.34-.715.609-1.516.807-2.401.198-.885.351-1.925.458-3.12h-2.484l-.193.448c.118 1.014.288 1.938.51 2.771.226.83.527 1.597.902 2.302Zm-3.792-1.646a17.775 17.775 0 0 0-2.016-2.114l.641-.594c.264.215.585.507.963.875.379.368.73.733 1.052 1.094l-.64.739Zm-.547 5.901a28.503 28.503 0 0 0-1.885-1.005c-.941.639-2.264 1.247-3.969 1.823l-.563-1.01c1.497-.417 2.65-.865 3.459-1.344a48.757 48.757 0 0 0-2.386-1.021c.299-.472.597-.984.896-1.536h-1.823v-.964h2.302c.216-.489.372-.857.469-1.104l1.021.339c-.063.17-.169.425-.318.765h3.438v.912c-.243.513-.493.963-.75 1.349a6.77 6.77 0 0 1-.912 1.083c.438.184.922.408 1.453.672l-.432 1.041Zm-2.031-2.161c.319-.264.594-.55.823-.859.229-.313.451-.67.666-1.073h-2.703c-.087.159-.3.543-.64 1.151.607.247 1.225.507 1.854.781Zm13.281-10.844h10.578v3.693h-10.578v-3.693Zm9.38 1.485v-.703h-8.161v.703h8.161Zm-8.161.718v.724h8.161v-.724h-8.161Zm-3.042 3.089v-.844h14.224v.844h-14.224Zm12.802 6.484h-5.104v.912h6.193v.844h-13.552v-.844h6.208v-.912h-5.12v-.849h5.12v-.927h-4.74v-3.875h10.594v3.875h-4.703v.927h5.104v.849Zm-6.255-4.099v-.781h-3.537v.781h3.537Zm1.151 0h3.505v-.781h-3.505v.781Zm-4.688.756v.781h3.537v-.781h-3.537Zm4.688 0v.781h3.505v-.781h-3.505Zm-72.24 31.343a8.27 8.27 0 0 1-.088.87 26.59 26.59 0 0 0-.084.646c-.086.621-.21 1.078-.37 1.37a1.32 1.32 0 0 1-.744.625c-.337.121-.85.198-1.542.229-.93.055-2.078.083-3.442.083a60.64 60.64 0 0 1-3.438-.083c-.663-.031-1.174-.122-1.531-.271a1.405 1.405 0 0 1-.771-.755c-.153-.351-.23-.861-.23-1.531v-7.568l1.267.047v2.13h8.223v-3.844h-9.953v-1.229h11.235v6.302h-9.505v3.839c0 .461.045.802.135 1.021.09.215.25.366.479.453.23.087.583.146 1.063.177 1.152.052 2.21.078 3.171.078.886 0 1.861-.026 2.927-.078.48-.031.825-.078 1.037-.141a.825.825 0 0 0 .49-.385c.114-.195.208-.5.28-.917.053-.309.096-.815.131-1.516l1.26.448Zm2.052-7.968v-1.204h13.891v1.204H89.76v12.015h-1.276V320.25h-5.921Zm8.24 2.192a44.936 44.936 0 0 1 2.432 1.927c.907.761 1.594 1.393 2.063 1.896l-.766 1.12a31.134 31.134 0 0 0-2.219-2.161c-.888-.799-1.647-1.422-2.275-1.87l.765-.912Zm21.443.412h-4.433c.139 1.708.348 3.17.626 4.385.715-1.024 1.322-2.272 1.822-3.745l1.042.433c-.375.972-.76 1.835-1.156 2.588-.393.75-.839 1.455-1.339 2.115.17.514.335.951.495 1.312.16.344.3.585.422.724.125.139.262.209.411.209.139 0 .245-.094.318-.282.077-.187.162-.526.255-1.015.056-.278.11-.71.162-1.297l1.057.463a9.012 9.012 0 0 1-.083.683c-.031.205-.078.468-.141.791-.149.747-.351 1.262-.604 1.547-.25.288-.571.432-.964.432-.364 0-.689-.12-.974-.359-.281-.239-.56-.642-.838-1.208a14.648 14.648 0 0 1-.38-.943c-.618.684-1.408 1.425-2.37 2.224l-.833-.927c1.152-.875 2.086-1.73 2.802-2.563-.448-1.607-.757-3.463-.927-5.567h-8.448v-1.037h3.729v-1.458h-2.917v-.974h2.917v-1.568l1.135.047v1.521h2.797v.974h-2.797v1.458h3.516l-.031-.833-.11-3.281 1.151.047.146 3.458.031.609h4.511v1.037Zm-1.698-1.532c-.33-.437-.714-.875-1.151-1.312a10.61 10.61 0 0 0-1.136-1.01l.719-.719c.313.212.679.514 1.099.906.42.389.813.807 1.177 1.255l-.708.88Zm-4.589 8.464c-.225.031-.93.101-2.114.208l-.464.047v2.209h-1.151v-2.115c-1.771.16-3.194.255-4.27.286l-.13-1.036c.916-.011 2.383-.096 4.4-.255v-1.188h-3.026v-.974c.385-.587.733-1.168 1.042-1.744h-1.714v-1.006h2.261c.159-.288.345-.673.557-1.156l1.104.276-.417.88h4v1.006h-4.51a34.186 34.186 0 0 1-.979 1.713h1.682v-1.167l1.151.047v1.12h2.479v1.005h-2.479v1.089l.386-.031a88.548 88.548 0 0 0 2.177-.224v.479l.015.531Zm21.25-9.365c-.01.813-.043 2.361-.099 4.646a187.866 187.866 0 0 1-.171 5.183c-.032.458-.105.812-.219 1.062a1.07 1.07 0 0 1-.552.552c-.254.118-.622.198-1.105.24l-1.374.114-.386-1.218 1.552-.094c.288-.021.498-.097.63-.229.136-.135.214-.401.235-.797.097-1.719.177-4.491.239-8.318h-3.583a22.63 22.63 0 0 1-1.036 2.224l-1.089-.578c.458-.767.878-1.635 1.26-2.604.386-.973.695-1.935.928-2.886l1.171.24a40.359 40.359 0 0 1-.786 2.463h4.385Zm-8.927-2.286a19.671 19.671 0 0 1-.719 2.464h2.48v11.25h-5.459v-11.25h1.651c.243-.66.493-1.572.75-2.735l1.297.271Zm-2.578 7.411h3.219v-3.796h-3.219v3.796Zm7.953 2.797a25.008 25.008 0 0 0-2.161-3.661l.911-.61a25.642 25.642 0 0 1 2.276 3.584l-1.026.687Zm-7.953-1.63v4.031h3.219v-4.031h-3.219Zm28.083 4.766-.833.864c-1.226-.958-2.222-1.972-2.989-3.041-.737.961-1.835 1.965-3.297 3.01l-.735-.896c1.493-.983 2.624-2.023 3.391-3.12-.757-1.323-1.269-2.88-1.537-4.671-.236.406-.416.71-.541.911l-.896-.75c.573-.705 1.078-1.604 1.516-2.698.437-1.094.743-2.137.916-3.13l1.12.276a23.286 23.286 0 0 1-.672 2.286h4.302v1.151h-1.234c-.139 1.549-.332 2.837-.578 3.865a10.072 10.072 0 0 1-1.084 2.776c.737 1.066 1.787 2.122 3.151 3.167ZM129.021 325a12.274 12.274 0 0 0 1.989-1.224 11.374 11.374 0 0 0 1.61-1.464h-3.089v-.974h3.328v-3.281l1.073.062v3.219h2.927v.974h-2.927v2.974h-1.073v-1.932c-.895.979-1.984 1.815-3.265 2.51l-.573-.864Zm7.739-6.178c-.149.344-.354.74-.614 1.188a8.791 8.791 0 0 1-.729 1.089l-.828-.454c.211-.274.437-.625.677-1.052.239-.427.428-.817.567-1.172l.927.401Zm-5.63 2.256a8.747 8.747 0 0 0-.442-1.141c-.195-.434-.382-.8-.563-1.099l.88-.318c.15.247.327.594.531 1.042.209.448.377.853.506 1.214l-.912.302Zm8.834 6.114c.34-.715.609-1.516.807-2.401.198-.885.351-1.925.458-3.12h-2.484l-.193.448c.118 1.014.288 1.938.51 2.771.226.83.527 1.597.902 2.302Zm-3.792-1.646a17.775 17.775 0 0 0-2.016-2.114l.641-.594c.264.215.585.507.963.875.379.368.73.733 1.052 1.094l-.64.739Zm-.547 5.901a28.503 28.503 0 0 0-1.885-1.005c-.941.639-2.264 1.247-3.969 1.823l-.563-1.01c1.497-.417 2.65-.865 3.459-1.344a48.757 48.757 0 0 0-2.386-1.021c.299-.472.597-.984.896-1.536h-1.823v-.964h2.302c.216-.489.372-.857.469-1.104l1.021.339c-.063.17-.169.425-.318.765h3.438v.912c-.243.513-.493.963-.75 1.349a6.77 6.77 0 0 1-.912 1.083c.438.184.922.408 1.453.672l-.432 1.041Zm-2.031-2.161c.319-.264.594-.55.823-.859.229-.313.451-.67.666-1.073h-2.703c-.087.159-.3.543-.64 1.151.607.247 1.225.507 1.854.781Zm13.281-10.844h10.578v3.693h-10.578v-3.693Zm9.38 1.485v-.703h-8.161v.703h8.161Zm-8.161.718v.724h8.161v-.724h-8.161Zm-3.042 3.089v-.844h14.224v.844h-14.224Zm12.802 6.484h-5.104v.912h6.193v.844h-13.552v-.844h6.208v-.912h-5.12v-.849h5.12v-.927h-4.74v-3.875h10.594v3.875h-4.703v.927h5.104v.849Zm-6.255-4.099v-.781h-3.537v.781h3.537Zm1.151 0h3.505v-.781h-3.505v.781Zm-4.688.756v.781h3.537v-.781h-3.537Zm4.688 0v.781h3.505v-.781h-3.505ZM74.719 356.01a7.35 7.35 0 0 0 2.161 3.026c.972.809 2.31 1.518 4.016 2.125l-.75 1.151c-1.58-.629-2.868-1.346-3.865-2.151a8.36 8.36 0 0 1-2.312-2.906c-.49.972-1.259 1.896-2.307 2.771-1.046.875-2.367 1.658-3.964 2.349l-.786-1.089c3.479-1.406 5.538-3.165 6.176-5.276h-5.89v-1.203h6.099v-.094c.02-.458.041-1.402.062-2.833h-3.453a19.081 19.081 0 0 1-1.234 2.37l-1.057-.579c.468-.725.897-1.552 1.286-2.479.392-.927.71-1.843.953-2.75l1.172.271a31.94 31.94 0 0 1-.656 1.984h3.005l.016-2.77 1.28.047c0 .149-.003.47-.01.963-.003.489-.005 1.076-.005 1.76h5.057v1.183h-5.072l-.032 2.734v.193h5.823v1.203H74.72Zm22.083 5.469-.766.927c-1.482-1.077-2.65-2.179-3.505-3.307-.927 1.159-2.229 2.305-3.906 3.437l-.797-.958c1.781-1.091 3.13-2.244 4.047-3.459a10.53 10.53 0 0 1-.995-2.109 16.775 16.775 0 0 1-.62-2.484 14.2 14.2 0 0 1-.963 1.489l-.88-.911v3.854h-1.089v-7.807h-3.005v7.875H83.25v-8.964h5.167v4.896c1.121-1.365 2.001-3.365 2.64-6l1.219.099a37.64 37.64 0 0 1-.724 2.432h5.01v1.104h-1.328c-.16 1.396-.399 2.62-.718 3.672-.32 1.049-.752 2-1.297 2.854.854 1.184 2.048 2.304 3.583 3.36Zm-10.432-10.38v4.812c0 .941-.103 1.739-.308 2.396-.2.653-.555 1.286-1.062 1.901-.504.615-1.246 1.295-2.23 2.042l-.832-.818c.961-.649 1.683-1.257 2.166-1.823.486-.566.81-1.123.969-1.672.16-.549.24-1.208.24-1.979v-4.896l1.057.037Zm6.177 5.979c.417-.736.74-1.54.969-2.412.229-.875.408-1.899.536-3.073h-2.896l-.114.287c.128 1.035.312 1.976.552 2.823.24.847.557 1.639.953 2.375Zm-4.672 4.26a7.78 7.78 0 0 0-.818-1.047c-.267-.285-.618-.63-1.052-1.036l.636-.834a25.145 25.145 0 0 1 2.036 2.053l-.802.864Zm23.667-10.917c-.011.813-.044 2.361-.099 4.646-.052 2.281-.11 4.009-.172 5.183-.031.458-.104.812-.219 1.062a1.07 1.07 0 0 1-.552.552c-.253.118-.622.198-1.104.24l-1.375.114-.386-1.218 1.553-.094c.288-.021.498-.097.63-.229.135-.135.213-.401.234-.797.097-1.719.177-4.491.24-8.318h-3.584a22.4 22.4 0 0 1-1.036 2.224l-1.089-.578c.459-.767.879-1.635 1.261-2.604.385-.973.694-1.935.927-2.886l1.172.24a39.647 39.647 0 0 1-.787 2.463h4.386Zm-8.927-2.286a19.841 19.841 0 0 1-.719 2.464h2.479v11.25h-5.458v-11.25h1.651c.243-.66.493-1.572.75-2.735l1.297.271Zm-2.579 7.411h3.219v-3.796h-3.219v3.796Zm7.954 2.797a25.013 25.013 0 0 0-2.162-3.661l.912-.61a25.734 25.734 0 0 1 2.276 3.584l-1.026.687Zm-7.954-1.63v4.031h3.219v-4.031h-3.219Zm28.084 4.766-.834.864c-1.225-.958-2.222-1.972-2.989-3.041-.736.961-1.835 1.965-3.297 3.01l-.734-.896c1.493-.983 2.623-2.023 3.39-3.12-.757-1.323-1.269-2.88-1.536-4.671-.236.406-.417.71-.542.911l-.896-.75c.573-.705 1.078-1.604 1.516-2.698.437-1.094.743-2.137.917-3.13l1.119.276a22.75 22.75 0 0 1-.672 2.286h4.303v1.151h-1.235c-.139 1.549-.331 2.837-.578 3.865a10.103 10.103 0 0 1-1.083 2.776c.736 1.066 1.786 2.122 3.151 3.167ZM113.354 355a12.327 12.327 0 0 0 1.99-1.224 11.364 11.364 0 0 0 1.609-1.464h-3.088v-.974h3.328v-3.281l1.073.062v3.219h2.927v.974h-2.927v2.974h-1.073v-1.932c-.896.979-1.985 1.815-3.266 2.51l-.573-.864Zm7.74-6.178c-.15.344-.354.74-.615 1.188-.26.448-.503.811-.729 1.089l-.828-.454a8.75 8.75 0 0 0 .677-1.052c.24-.427.429-.817.568-1.172l.927.401Zm-5.63 2.256a8.767 8.767 0 0 0-.443-1.141c-.195-.434-.382-.8-.563-1.099l.881-.318c.149.247.326.594.531 1.042.208.448.377.853.505 1.214l-.911.302Zm8.833 6.114c.34-.715.609-1.516.807-2.401.198-.885.351-1.925.458-3.12h-2.484l-.193.448a19.58 19.58 0 0 0 .511 2.771c.226.83.526 1.597.901 2.302Zm-3.792-1.646a17.692 17.692 0 0 0-2.015-2.114l.64-.594c.264.215.585.507.964.875.378.368.729.733 1.052 1.094l-.641.739Zm-.547 5.901a28.254 28.254 0 0 0-1.885-1.005c-.941.639-2.264 1.247-3.969 1.823l-.562-1.01c1.496-.417 2.649-.865 3.458-1.344a48.326 48.326 0 0 0-2.385-1.021c.298-.472.597-.984.895-1.536h-1.822v-.964h2.302c.215-.489.371-.857.468-1.104l1.021.339c-.062.17-.168.425-.318.765h3.438v.912c-.243.513-.493.963-.75 1.349a6.815 6.815 0 0 1-.911 1.083c.437.184.921.408 1.453.672l-.433 1.041Zm-2.031-2.161c.32-.264.594-.55.823-.859.229-.313.451-.67.667-1.073h-2.703c-.087.159-.301.543-.641 1.151.608.247 1.226.507 1.854.781Zm13.281-10.844h10.578v3.693h-10.578v-3.693Zm9.381 1.485v-.703h-8.162v.703h8.162Zm-8.162.718v.724h8.162v-.724h-8.162Zm-3.042 3.089v-.844h14.224v.844h-14.224Zm12.803 6.484h-5.105v.912h6.193v.844h-13.552v-.844h6.208v-.912h-5.12v-.849h5.12v-.927h-4.739v-3.875h10.593v3.875h-4.703v.927h5.105v.849Zm-6.256-4.099v-.781h-3.536v.781h3.536Zm1.151 0h3.506v-.781h-3.506v.781Zm-4.687.756v.781h3.536v-.781h-3.536Zm4.687 0v.781h3.506v-.781h-3.506Z"/>
</svg>
